<svg xmlns="http://www.w3.org/2000/svg" viewBox="0 0 500 500"><g id="freepik--background-complete--inject-47"><rect x="15.76" y="271.49" width="55.27" height="55.27" style="fill:#f5f5f5"></rect><rect x="74.79" y="271.49" width="55.27" height="55.27" style="fill:#f5f5f5"></rect><rect x="133.82" y="271.49" width="55.27" height="55.27" style="fill:#f5f5f5"></rect><rect x="192.85" y="271.49" width="55.27" height="55.27" style="fill:#f5f5f5"></rect><rect x="251.88" y="271.49" width="55.27" height="55.27" style="fill:#f5f5f5"></rect><rect x="310.91" y="271.49" width="55.27" height="55.27" style="fill:#f5f5f5"></rect><rect x="369.94" y="271.49" width="55.27" height="55.27" style="fill:#f5f5f5"></rect><rect x="428.97" y="271.49" width="55.27" height="55.27" style="fill:#f5f5f5"></rect><rect x="15.76" y="152.3" width="55.27" height="55.27" style="fill:#f5f5f5"></rect><rect x="15.76" y="212.37" width="55.27" height="55.27" style="fill:#f5f5f5"></rect><rect x="74.79" y="152.3" width="55.27" height="55.27" style="fill:#f5f5f5"></rect><rect x="74.79" y="212.37" width="55.27" height="55.27" style="fill:#f5f5f5"></rect><rect x="133.82" y="152.3" width="55.27" height="55.27" style="fill:#f5f5f5"></rect><rect x="133.82" y="212.37" width="55.27" height="55.27" style="fill:#f5f5f5"></rect><rect x="192.85" y="152.3" width="55.27" height="55.27" style="fill:#f5f5f5"></rect><rect x="192.85" y="212.37" width="55.27" height="55.27" style="fill:#f5f5f5"></rect><rect x="251.88" y="152.3" width="55.27" height="55.27" style="fill:#f5f5f5"></rect><rect x="251.88" y="212.37" width="55.27" height="55.27" style="fill:#f5f5f5"></rect><rect x="310.91" y="152.3" width="55.27" height="55.27" style="fill:#f5f5f5"></rect><rect x="310.91" y="212.37" width="55.27" height="55.27" style="fill:#f5f5f5"></rect><rect x="369.94" y="152.3" width="55.27" height="55.27" style="fill:#f5f5f5"></rect><rect x="369.94" y="212.37" width="55.27" height="55.27" style="fill:#f5f5f5"></rect><rect x="428.97" y="152.3" width="55.27" height="55.27" style="fill:#f5f5f5"></rect><rect x="428.97" y="212.37" width="55.27" height="55.27" style="fill:#f5f5f5"></rect><path d="M429,43.6V33.54h-7.08V43.6h-7.11v57.52h20.8V43.6Z" style="fill:#ebebeb"></path><rect x="286.74" y="101.12" width="171.61" height="8.76" style="fill:#e0e0e0"></rect><rect x="426.95" y="109.88" width="5" height="15.22" style="fill:#e0e0e0"></rect><rect x="320.28" y="109.88" width="5" height="15.22" style="fill:#e0e0e0"></rect><path d="M383.24,59.07V51.72h-5.17v7.35h-5.2v42.05h15.21V59.07Z" style="fill:#f5f5f5"></path><path d="M405.39,59.07V51.72h-5.17v7.35H395v42.05h15.21V59.07Z" style="fill:#ebebeb"></path><rect x="311.86" y="73.8" width="27.32" height="27.32" style="fill:#e0e0e0"></rect><path d="M339,80.82c0,.18-6,.32-13.47.32S312.1,81,312.1,80.82s6-.32,13.47-.32S339,80.65,339,80.82Z" style="fill:#ebebeb"></path><path d="M326.56,84.43s.1,0,.27,0a2.25,2.25,0,0,1,.73.34,3.91,3.91,0,0,1,1.5,2.51,5.72,5.72,0,0,1-.71,4.3,4,4,0,0,1-2.12,1.61,5.18,5.18,0,0,1-2.84,0,5,5,0,0,1-3.79-3.65,4.25,4.25,0,0,1,4-5.23,1.87,1.87,0,0,1,1.06.17c0,.06-.39,0-1,.08a4.31,4.31,0,0,0-2.43,1.17,3.94,3.94,0,0,0-1,3.68,4.5,4.5,0,0,0,3.39,3.17,4.69,4.69,0,0,0,2.49,0,3.41,3.41,0,0,0,1.82-1.35,5.33,5.33,0,0,0,.74-3.87,3.82,3.82,0,0,0-1.2-2.4C326.91,84.59,326.53,84.49,326.56,84.43Z" style="fill:#ebebeb"></path><rect x="77.24" y="32.65" width="91.8" height="95.7" style="fill:#e0e0e0"></rect><rect x="71.03" y="32.65" width="91.8" height="95.7" style="fill:#ebebeb"></rect><rect x="83.37" y="45.52" width="67.12" height="69.97" style="fill:#fafafa"></rect><path d="M83.37,116a13.07,13.07,0,0,1-1.68,1.9c-1.08,1.13-2.59,2.66-4.28,4.32s-3.23,3.15-4.37,4.21A12.35,12.35,0,0,1,71.12,128a12.4,12.4,0,0,1,1.67-1.9c1.08-1.12,2.59-2.65,4.28-4.32s3.25-3.16,4.39-4.22A12.85,12.85,0,0,1,83.37,116Z" style="fill:#e0e0e0"></path><path d="M150.49,115.78a13.07,13.07,0,0,1,1.9,1.68c1.13,1.07,2.65,2.58,4.32,4.27s3.15,3.24,4.2,4.38a12.35,12.35,0,0,1,1.64,1.92,12.11,12.11,0,0,1-1.89-1.67c-1.13-1.08-2.66-2.59-4.33-4.29s-3.15-3.24-4.21-4.38A12.68,12.68,0,0,1,150.49,115.78Z" style="fill:#e0e0e0"></path><path d="M150.31,45.7A12.4,12.4,0,0,1,152,43.8c1.08-1.12,2.59-2.65,4.28-4.31s3.24-3.15,4.38-4.21a12.06,12.06,0,0,1,1.91-1.64,12.4,12.4,0,0,1-1.67,1.9c-1.07,1.12-2.59,2.65-4.28,4.32s-3.25,3.16-4.38,4.21A12,12,0,0,1,150.31,45.7Z" style="fill:#e0e0e0"></path><path d="M83.18,45.88a13.73,13.73,0,0,1-1.9-1.68c-1.12-1.08-2.65-2.59-4.31-4.28s-3.15-3.23-4.21-4.37a12.35,12.35,0,0,1-1.64-1.92A12.11,12.11,0,0,1,73,35.3c1.13,1.08,2.66,2.59,4.33,4.28s3.15,3.25,4.21,4.39A11.45,11.45,0,0,1,83.18,45.88Z" style="fill:#e0e0e0"></path><path d="M150.31,115.49s0-.12,0-.34,0-.56,0-1c0-.87,0-2.13,0-3.77,0-3.31,0-8.13-.05-14.25,0-12.26-.07-29.72-.11-50.63l.21.22-66.93,0h0l.25-.25c0,25.68,0,49.71,0,70l-.21-.22,48.48.11,13.61.06,3.59,0H150l.33,0H149.1l-3.55,0-13.57,0-48.61.11h-.22v-.21c0-20.26,0-44.29,0-70v-.25h.26l66.93,0h.23v.22c0,21-.08,38.48-.11,50.77,0,6.1,0,10.91,0,14.2,0,1.62,0,2.87,0,3.73,0,.41,0,.73,0,1S150.31,115.49,150.31,115.49Z" style="fill:#e0e0e0"></path><path d="M102.4,73.74H106s2.68-9.28,9.69-7.73,7.73,7.73,7.21,10.82a1.09,1.09,0,0,0,1,1.45c1.45.2,12.27,0,12.27,0s3.09,18.34-16.9,16.8-13-14.85-12.06-16.19S102.4,73.74,102.4,73.74Z" style="fill:#ebebeb"></path><path d="M126.31,83.73a10.13,10.13,0,0,1-7.25,1,8.29,8.29,0,0,0-4-.18,3.49,3.49,0,0,0-2.33,3.61l.21.52a7.19,7.19,0,0,0,13.32-5Z" style="fill:#e0e0e0"></path><path d="M110.77,73.45a.59.59,0,1,1-.59-.58A.58.58,0,0,1,110.77,73.45Z" style="fill:#e0e0e0"></path></g><g id="freepik--Sink--inject-47"><path d="M50.32,408.39c-1.36-2.6-.44-14.15,1.22-16.57a21.54,21.54,0,0,1,6.65-5.7C77.58,374,93.77,371.46,116.57,369a388.66,388.66,0,0,1,69.73-1.51c25.52,1.83,51.28-.46,74.21,10.76a21.74,21.74,0,0,1,9.08,7.95c1.77,2.88,1.06,9.3-.87,15.45-3.56,11.3-5.27,26.47-33.86,34.55-32.15,9.08-29.92,31.26-29.92,31.26L70.75,466.32,69,455.39a85,85,0,0,0-13.14-33,40.23,40.23,0,0,1-6-15.61" style="fill:#ebebeb"></path><path d="M265.63,411.53a1.48,1.48,0,0,1-.08.3c-.07.2-.14.5-.3.87a25.54,25.54,0,0,1-1.49,3.22,41.29,41.29,0,0,1-3,4.74,38.66,38.66,0,0,1-4.9,5.6,29.68,29.68,0,0,1-7.56,4.93c-2.93,1.4-6.17,2.62-9.59,3.86a197.16,197.16,0,0,1-65.29,12.09,150.58,150.58,0,0,1-17.8-.65h.32l.92,0,3.54.15c1.53.07,3.41.09,5.59.15s4.67,0,7.42,0a203.14,203.14,0,0,0,65.13-12.17c3.42-1.23,6.66-2.43,9.58-3.8A29.51,29.51,0,0,0,255.6,426a38.48,38.48,0,0,0,4.91-5.5,43.14,43.14,0,0,0,3.07-4.67,31.41,31.41,0,0,0,1.58-3.15c.16-.37.26-.67.34-.86A1.14,1.14,0,0,1,265.63,411.53Z" style="fill:#263238"></path><path d="M188.26,450.16c0,.08-1.14.5-2.92,1.4a31.51,31.51,0,0,0-6.42,4.34,31.87,31.87,0,0,0-5.13,5.82c-1.11,1.65-1.68,2.76-1.76,2.72a2.87,2.87,0,0,1,.31-.82,20.17,20.17,0,0,1,1.14-2.1,26.93,26.93,0,0,1,11.7-10.29,17.65,17.65,0,0,1,2.23-.86A2.57,2.57,0,0,1,188.26,450.16Z" style="fill:#263238"></path><ellipse cx="166.56" cy="396.12" rx="90.54" ry="15.41" style="fill:#e0e0e0"></ellipse><path d="M257.1,396.12a4.6,4.6,0,0,0-.2-.94,5.24,5.24,0,0,0-1.75-2.19c-2-1.57-5.39-3.07-9.94-4.41-9.13-2.68-22.79-4.84-39.74-6.2a512.1,512.1,0,0,0-59.73-1c-11.23.47-23,1.29-35.15,2.9a182.59,182.59,0,0,0-18.35,3.32,67,67,0,0,0-9.08,2.81,23.83,23.83,0,0,0-4.24,2.16,8.46,8.46,0,0,0-1.78,1.53,3.25,3.25,0,0,0-.86,2,3.21,3.21,0,0,0,.85,2,8.66,8.66,0,0,0,1.77,1.53,23.31,23.31,0,0,0,4.25,2.17,70,70,0,0,0,9.08,2.81A182.59,182.59,0,0,0,110.58,408c12.13,1.62,23.92,2.44,35.16,2.91a511.9,511.9,0,0,0,59.73-1c16.95-1.36,30.61-3.52,39.74-6.2,4.56-1.34,8-2.84,9.94-4.41a5.29,5.29,0,0,0,1.75-2.18,4.75,4.75,0,0,0,.2-.94v.24a2.9,2.9,0,0,1-.15.71,5.24,5.24,0,0,1-1.73,2.25c-1.95,1.61-5.39,3.15-9.95,4.52-9.14,2.75-22.8,5-39.77,6.38a504.19,504.19,0,0,1-59.78,1.13c-11.25-.45-23-1.26-35.21-2.87a181.29,181.29,0,0,1-18.4-3.33A69.09,69.09,0,0,1,83,402.32a24,24,0,0,1-4.34-2.22,9.07,9.07,0,0,1-1.88-1.63,3.33,3.33,0,0,1,0-4.72,8.82,8.82,0,0,1,1.88-1.63A23.33,23.33,0,0,1,83,389.91a67.07,67.07,0,0,1,9.15-2.83,178.5,178.5,0,0,1,18.4-3.32c12.15-1.61,24-2.43,35.2-2.88A504.1,504.1,0,0,1,205.5,382c17,1.4,30.63,3.62,39.77,6.37,4.55,1.37,8,2.91,9.95,4.52a5.24,5.24,0,0,1,1.73,2.25,2.9,2.9,0,0,1,.15.71Z" style="fill:#263238"></path><path d="M195.43,387.65a4.84,4.84,0,0,1,.19,1.09,9.18,9.18,0,0,1,.1,1.3,12.83,12.83,0,0,1,0,1.74,21.31,21.31,0,0,1-.71,4.45,24.55,24.55,0,0,1-2.07,5.12,26.08,26.08,0,0,1-6.39,7.68,22.22,22.22,0,0,1-2.46,1.77,4.79,4.79,0,0,1-1,.53c-.06-.09,1.29-.92,3.21-2.58a28.47,28.47,0,0,0,6.16-7.64,26.35,26.35,0,0,0,2.07-5,24.09,24.09,0,0,0,.81-4.35C195.55,389.23,195.32,387.66,195.43,387.65Z" style="fill:#263238"></path><path d="M205.73,388.53a3.62,3.62,0,0,1,0,.89,8.45,8.45,0,0,1-.07,1,11.17,11.17,0,0,1-.19,1.37,20.62,20.62,0,0,1-2.94,7.39,23.82,23.82,0,0,1-5.34,5.89,19.43,19.43,0,0,1-2,1.37,3,3,0,0,1-.79.41c-.05-.08,1-.76,2.54-2.07a26.9,26.9,0,0,0,5.13-5.88,22.85,22.85,0,0,0,3-7.19C205.59,389.78,205.63,388.52,205.73,388.53Z" style="fill:#263238"></path></g><g id="freepik--Character--inject-47"><path d="M290.77,366l-20.16,101.4h69.93l10.58-48.17,7,48.17h70.27S430.08,355.72,408,323.37Z" style="fill:#263238"></path><path d="M242,110.06l27.84,66-37.67,35.29c-2.57-4.63-11.16-23.21-11.16-23.21s-18.24,5.6-26.68-11.25c-4.1-8.18-11.18-25.77-17.39-41.69a34.88,34.88,0,0,1,19.12-44.87h0A34.86,34.86,0,0,1,242,110.06Z" style="fill:#ffbe9d"></path><path d="M221,188.21s11.13-4.34,19-17c0,0,.7,14.74-16.95,21.43Z" style="fill:#eb996e"></path><path d="M187.92,145.17a2.69,2.69,0,0,0,3.52,1.31,2.57,2.57,0,0,0,1.44-3.39,2.69,2.69,0,0,0-3.52-1.31A2.56,2.56,0,0,0,187.92,145.17Z" style="fill:#263238"></path><path d="M184.85,142.27c.45.17,1.63-2.08,4.24-3.33s5.15-.89,5.27-1.34c.08-.21-.51-.63-1.63-.83a7.32,7.32,0,0,0-4.42.68,7,7,0,0,0-3.18,3.05C184.63,141.5,184.63,142.2,184.85,142.27Z" style="fill:#263238"></path><path d="M213.07,134.3a2.69,2.69,0,0,0,3.52,1.3,2.56,2.56,0,0,0,1.44-3.39,2.69,2.69,0,0,0-3.52-1.31A2.58,2.58,0,0,0,213.07,134.3Z" style="fill:#263238"></path><path d="M210.69,130.32c.46.17,1.63-2.07,4.24-3.33s5.15-.88,5.28-1.34c.07-.21-.51-.63-1.64-.83a7.33,7.33,0,0,0-4.42.68,7.17,7.17,0,0,0-3.18,3.05C210.47,129.55,210.48,130.25,210.69,130.32Z" style="fill:#263238"></path><path d="M210.62,154.23c-.06-.15-1.82.36-4.6,1.29-.7.26-1.39.43-1.73,0a3.71,3.71,0,0,1-.51-2.18c-.16-1.92-.32-3.92-.49-6-.77-8.54-1.68-15.43-2-15.4s0,7,.77,15.52c.21,2.1.4,4.1.59,6a4.28,4.28,0,0,0,.93,2.78,1.85,1.85,0,0,0,1.56.44,5.22,5.22,0,0,0,1.21-.39C209,155.17,210.68,154.39,210.62,154.23Z" style="fill:#263238"></path><path d="M219.16,152.31c-.44.18.93,3-.51,6.2s-4.61,4.33-4.44,4.73c0,.2.94.23,2.23-.36a7.8,7.8,0,0,0,3.78-3.79,6.86,6.86,0,0,0,.25-5.11C220,152.75,219.35,152.2,219.16,152.31Z" style="fill:#263238"></path><path d="M205.06,120.44c.6.59,3-1,6.28-2.13s6.11-1.48,6.2-2.31c0-.39-.72-.85-2-1a11.47,11.47,0,0,0-9.5,3.38C205.08,119.33,204.79,120.16,205.06,120.44Z" style="fill:#263238"></path><path d="M182.15,134.27c.74.37,2.24-1.12,4.38-2.19s4.18-1.54,4.3-2.37c0-.39-.54-.84-1.61-1a7.09,7.09,0,0,0-7,3.67C181.76,133.35,181.81,134.08,182.15,134.27Z" style="fill:#263238"></path><path d="M214.71,100.69l.13,0a14.82,14.82,0,0,1,9.14,6.22c.08.11.15.22.21.32,3,4.51,5.28,9.49,8.34,14s7.11,8.58,12.3,10.18c2.13.65,5.18.33,5.61-1.86A4.54,4.54,0,0,0,250,127c-4.77-12.11-6.61-24-12.56-36.21a11.42,11.42,0,0,0-8.33-6.3c-3.45-.59-7.49-1-9.68,1.74S216.11,96.1,215,99.43" style="fill:#263238"></path><path d="M240.15,120.79c.23-.27,10-9.1,15.23,2.67s-7.64,14.62-7.81,14.29S240.15,120.79,240.15,120.79Z" style="fill:#ffbe9d"></path><path d="M249.17,131.68c0-.06.27,0,.69.06a2.27,2.27,0,0,0,1.54-.65c1-1,1.21-3.46.32-5.6a7.32,7.32,0,0,0-1.89-2.68,2.59,2.59,0,0,0-2.24-.89,1.14,1.14,0,0,0-1,1.1c0,.4.17.61.11.65s-.34-.08-.46-.61a1.43,1.43,0,0,1,.13-.94,1.72,1.72,0,0,1,1-.81,3.17,3.17,0,0,1,3,.87,7.68,7.68,0,0,1,2.18,3c1,2.41.76,5.17-.72,6.42a2.48,2.48,0,0,1-2,.53C249.32,132,249.14,131.72,249.17,131.68Z" style="fill:#eb996e"></path><path d="M222.74,89.14c1.53-5.85-8.94-10.4-15.61-10.46s-13.77,5.35-19.21,9.2c-3.43,2.43-6.7,5.36-10.77,6.42a28.24,28.24,0,0,1-8.42.39,21,21,0,0,0-8.36.85c-2.63,1-5,3.28-5.23,6.09s2.25,5.79,5,5.34c-4-.83-8.17,3.14-7.55,7.16s5.8,6.54,9.35,4.55c-2.15-.8-4.17,2.22-3.29,4.34s3.36,3.11,5.64,3.38c5.82.69,11.6-1.86,16.37-5.27s8.85-7.71,13.54-11.24,12.47-9.67,18.33-9.42c4.31.18,8.46,4,10.34,2.34a7.88,7.88,0,0,0,2.21-6.73,23,23,0,0,0-2.38-6.94" style="fill:#263238"></path><path d="M161.17,107.56s-.17.21-.43.63a3.75,3.75,0,0,0-.56,2,5.5,5.5,0,0,0,4.82,5.38,10.49,10.49,0,0,0,5.36-.74,21.27,21.27,0,0,0,5.39-3.3c3.47-2.85,6.41-6.89,9.53-11.06s6.52-8,10.51-10.29a16.87,16.87,0,0,1,6.09-2.17,15.57,15.57,0,0,1,5.62.2,16.32,16.32,0,0,1,7.26,3.56,11.5,11.5,0,0,1,2,2.19c-.05,0-.69-.82-2.16-2a16.55,16.55,0,0,0-7.19-3.35,15.62,15.62,0,0,0-5.49-.14,16.63,16.63,0,0,0-5.9,2.17c-3.88,2.27-7.21,6-10.33,10.18s-6.09,8.23-9.65,11.12a21.26,21.26,0,0,1-5.54,3.33,10.83,10.83,0,0,1-5.59.7,6.77,6.77,0,0,1-2.33-.86,5.37,5.37,0,0,1-1.6-1.54,5.58,5.58,0,0,1-1-3.35,3.73,3.73,0,0,1,.67-2.11A2.45,2.45,0,0,1,161.17,107.56Z" style="fill:#455a64"></path><path d="M200.47,83.65s.25-.17.75-.36a11.37,11.37,0,0,1,2.22-.51,12.55,12.55,0,0,1,12.69,6.47,11.11,11.11,0,0,1,.89,2.09,2.29,2.29,0,0,1,.16.82c-.09,0-.4-1.12-1.37-2.72a13.44,13.44,0,0,0-5.26-4.92,13.29,13.29,0,0,0-7.07-1.36C201.61,83.31,200.49,83.74,200.47,83.65Z" style="fill:#455a64"></path><path d="M241.84,101.84a2.27,2.27,0,0,1-.85.68,5.1,5.1,0,0,1-2.92.57A7.48,7.48,0,0,1,234,101.4a21.79,21.79,0,0,1-3.62-4,21.64,21.64,0,0,0-3.53-3.88A7.18,7.18,0,0,0,223,91.92a5.17,5.17,0,0,0-2.78.46c-.61.3-.89.57-.92.53s.22-.34.82-.72a5.13,5.13,0,0,1,2.9-.64,7.3,7.3,0,0,1,4.11,1.61,20.11,20.11,0,0,1,3.65,3.94,22.94,22.94,0,0,0,3.51,3.91,7.26,7.26,0,0,0,3.8,1.7,5.34,5.34,0,0,0,2.79-.37C241.52,102.06,241.81,101.8,241.84,101.84Z" style="fill:#455a64"></path><path d="M244.57,109.93s-.07.09-.25.21a8.19,8.19,0,0,1-.81.47,11.48,11.48,0,0,1-3.26,1.11,15.51,15.51,0,0,1-11-2.2,23,23,0,0,1-7.67-8.26,9.31,9.31,0,0,0-1-1.62,2.39,2.39,0,0,0-1.14-.77,1.89,1.89,0,0,0-1.18.06s.36-.42,1.23-.26a2.48,2.48,0,0,1,1.31.77,9.12,9.12,0,0,1,1.12,1.63,23.94,23.94,0,0,0,7.62,8,15.67,15.67,0,0,0,10.62,2.29A17.78,17.78,0,0,0,244.57,109.93Z" style="fill:#455a64"></path><path d="M351.45,218.89C336,201.19,313.07,179.68,292.67,176c-4.12-.74-16.2-.33-19.79-.18l-4.41-6.72a2,2,0,0,0-3-.51l-39.2,29.71a2.49,2.49,0,0,0-.72,3.11l1.66,3.27-3.15,12a51.64,51.64,0,0,0,7.53,42.55l58.24,83.92,1,22.24c7.11,4.66,56.82,14,78.45,7.21,18.75-5.91,39.21-31.78,44.33-38.58a3.31,3.31,0,0,0,.33-3.45C407.61,317.62,368.86,238.84,351.45,218.89Z" style="fill:#BA68C8"></path><path d="M157.14,339.2l50.38-39.4s5.61-72.36,6-73.88c2.88-10.8,16.15-24.49,16.15-24.49l24.37,78.41-.74,17.79A48,48,0,0,1,241.84,327l-.23.27A47.43,47.43,0,0,1,228.05,338L176.32,365.5Z" style="fill:#BA68C8"></path><path d="M287.65,338.08a1.69,1.69,0,0,1-.19-.21l-.5-.62-1.91-2.44c-1.66-2.11-4-5.25-6.8-9.13-5.65-7.77-13.19-18.7-21.32-30.9s-15.32-23.36-20.48-31.47l-6-9.63L228.78,251c-.16-.28-.3-.51-.41-.69a.92.92,0,0,1-.12-.25s.06.07.17.22l.45.66,1.7,2.59,6.19,9.54c5.24,8.06,12.48,19.18,20.61,31.38s15.61,23.15,21.18,31c2.8,3.9,5.05,7.07,6.66,9.22l1.83,2.49.46.66Q287.67,338.07,287.65,338.08Z" style="fill:#263238"></path><path d="M278.38,194l-4.12,109.6-83,39.93,7,25.34s44-1.18,81-12.81a68.55,68.55,0,0,0,47.74-59.86c2.69-33.33,6.09-76.2,6-78.89C332.78,212.89,295.87,187.6,278.38,194Z" style="fill:#BA68C8"></path><path d="M292.05,183.43l-.94.12a10.74,10.74,0,0,0-1.15.15l-1.56.4a14.93,14.93,0,0,0-7.86,6.91c-2.36,4-4,9.65-4.91,16.28a113.93,113.93,0,0,0-.57,22.84h0c-.16,20.13-.35,45.1-.57,73.46v.15l-.13.06L191.67,342.9l.14-.3c1.59,6.3,3.29,13,5,19.78.55,2.2,1.11,4.4,1.62,6.44l-.26-.2a382.32,382.32,0,0,0,46.89-4.87c7.51-1.23,14.83-2.79,21.92-4.53l5.28-1.37,5.18-1.52c1.73-.46,3.38-1.11,5-1.69a51.59,51.59,0,0,0,4.85-2,68.17,68.17,0,0,0,29.2-25.75A69.66,69.66,0,0,0,324,310.66a73.79,73.79,0,0,0,2.94-16.19c1.74-21,3.14-37.93,4.11-49.65.47-5.85.83-10.39,1.07-13.48.11-1.53.19-2.7.24-3.5,0-.4,0-.69,0-.89s0-.31,0-.31,0,.41,0,1.2-.09,2-.18,3.51c-.2,3.08-.53,7.63-1,13.49-.93,11.72-2.28,28.67-3.95,49.66a74.22,74.22,0,0,1-2.92,16.28,70.25,70.25,0,0,1-7.45,16.32,68.64,68.64,0,0,1-29.36,26c-1.61.69-3.19,1.49-4.88,2s-3.34,1.24-5.07,1.71l-5.19,1.52q-2.62.69-5.29,1.37c-7.11,1.76-14.43,3.32-22,4.56a381.28,381.28,0,0,1-47,4.89H198l0-.21c-.51-2-1.07-4.23-1.63-6.44l-5-19.77-.05-.21.19-.09,82.71-39-.13.21c.27-28.37.51-53.33.7-73.47v0a113.43,113.43,0,0,1,.65-22.91c.93-6.64,2.6-12.27,5-16.33a14.91,14.91,0,0,1,8-6.91l1.58-.38c.45-.09.85-.09,1.16-.13Z" style="fill:#263238"></path><path d="M353.49,316.94a9.63,9.63,0,0,1-1.33.85c-.88.52-2.18,1.23-3.79,2.08a120.53,120.53,0,0,1-13.05,5.77,118.63,118.63,0,0,1-13.65,4.15c-1.77.42-3.22.72-4.22.9a10.45,10.45,0,0,1-1.57.23,8,8,0,0,1,1.52-.43c1-.24,2.42-.6,4.18-1.06,3.53-.92,8.35-2.35,13.56-4.28s9.79-4,13.06-5.61c1.64-.8,2.95-1.46,3.86-1.93A9,9,0,0,1,353.49,316.94Z" style="fill:#263238"></path><path d="M372.54,336.48a4.42,4.42,0,0,1-.6.49l-1.79,1.31-1.31.94c-.48.32-1,.65-1.62,1-1.17.7-2.47,1.58-4,2.34l-2.4,1.25c-.84.43-1.76.79-2.68,1.21-1.84.87-3.89,1.57-6,2.35a81.52,81.52,0,0,1-14.46,3.31,80.68,80.68,0,0,1-14.84.4c-2.27-.22-4.43-.38-6.43-.77-1-.18-2-.3-2.9-.5l-2.63-.62c-1.7-.34-3.17-.87-4.48-1.26-.66-.21-1.27-.38-1.82-.58l-1.5-.58L301,346a7.75,7.75,0,0,1-.71-.32,3.88,3.88,0,0,1,.75.22l2.09.73,1.5.54c.56.18,1.18.34,1.83.53,1.32.36,2.79.86,4.48,1.18l2.63.58c.92.2,1.89.31,2.89.47,2,.37,4.14.51,6.4.72a76.2,76.2,0,0,0,29.11-3.69c2.13-.76,4.18-1.44,6-2.29.92-.41,1.83-.75,2.67-1.17l2.41-1.22c1.55-.73,2.86-1.58,4-2.26.59-.35,1.14-.66,1.64-1l1.32-.9,1.84-1.23A6.19,6.19,0,0,1,372.54,336.48Z" style="fill:#263238"></path><path d="M272.86,176.81s0,.05.05.15a1.94,1.94,0,0,1,.07.46,5.47,5.47,0,0,1-.13,1.79,8.54,8.54,0,0,1-1.13,2.6,20.53,20.53,0,0,1-2.36,2.91,23.62,23.62,0,0,0-2.8,3.48,47.53,47.53,0,0,0-2.44,4.53,34,34,0,0,1-2.89,5,28.36,28.36,0,0,1-4.17,4.57A27.07,27.07,0,0,1,246.62,208a26.68,26.68,0,0,1-9.68.87,26,26,0,0,1-6.4-1.38c-.73-.27-1.28-.49-1.65-.67a2.21,2.21,0,0,1-.55-.29s.8.3,2.26.77a28.69,28.69,0,0,0,6.37,1.21,26.76,26.76,0,0,0,19.74-6.57,28.18,28.18,0,0,0,4.1-4.48,34.32,34.32,0,0,0,2.88-4.89A44.23,44.23,0,0,1,266.2,188a23.22,23.22,0,0,1,2.89-3.49,22.46,22.46,0,0,0,2.39-2.82,8.7,8.7,0,0,0,1.17-2.49A7.33,7.33,0,0,0,272.86,176.81Z" style="fill:#263238"></path><g style="opacity:0.30000000000000004"><path d="M230.85,208a33.49,33.49,0,0,0,16.5,4,22.39,22.39,0,0,0,15.37-6.62c4.42-4.7,6.3-11.49,11.2-15.7,1.55-1.33,3.55-2.72,3.49-4.76a3.52,3.52,0,0,0-2.93-3.12c-1.52-.29-3.37,1.3-4.65,2.17-4.36,2.94-5.15,7.73-7.66,12.36a23.78,23.78,0,0,1-13.49,11,29,29,0,0,1-17.52-.07"></path></g><g style="opacity:0.30000000000000004"><path d="M289.92,351.93c4.58,1.84,9.7-.21,14.2-2.24,0,0,16.1-6.5,24.25-29,3.77-10.43,7.11-21.11,7.11-32.2A109.66,109.66,0,0,0,330,255.78c-3.38,19.67.33,40.08-7.53,59.48a72.48,72.48,0,0,1-33,36.48"></path></g><path d="M232.71,257.12l18.09,54.13s5-11.65,2.85-21.87Z" style="opacity:0.30000000000000004"></path><g style="opacity:0.30000000000000004"><path d="M309.86,348.9c8.21,4.49,17.3,5.6,26.66,5.38A91.59,91.59,0,0,0,364,348.83c2.57-.89,5.42-2.14,6.3-4.71a2.61,2.61,0,0,0-.73-3.08c-.91-.58-2.11-.22-3.13.17-11.08,4.23-22.12,9.52-34,10a77.24,77.24,0,0,1-22.57-2.33"></path></g><path d="M269.58,172.89a2.52,2.52,0,0,1-.24.51c-.2.38-.46.85-.78,1.43-.69,1.23-1.7,3-3,5.16s-2.95,4.68-5,7.35a50.8,50.8,0,0,1-7.39,8,35,35,0,0,1-9.26,5.71,27.73,27.73,0,0,1-8.64,2.08,21.59,21.59,0,0,1-6-.4,14,14,0,0,1-1.57-.42,2.43,2.43,0,0,1-.54-.19,26.75,26.75,0,0,0,8.06.64,28.09,28.09,0,0,0,8.48-2.15,35.51,35.51,0,0,0,9.11-5.66c5.81-5,9.67-10.93,12.39-15.14,1.35-2.12,2.41-3.87,3.15-5.07l.86-1.37A2.53,2.53,0,0,1,269.58,172.89Z" style="fill:#fafafa"></path><path d="M272.63,213.83a2,2,0,0,1-.39.36l-1.18.95c-1,.83-2.57,2-4.51,3.29s-4.31,2.85-7,4.42-5.74,3.14-9,4.64-6.47,2.75-9.41,3.78-5.64,1.83-7.92,2.42-4.14,1-5.44,1.25l-1.49.27a1.75,1.75,0,0,1-.53.06,2.09,2.09,0,0,1,.51-.16l1.47-.37c1.28-.3,3.12-.77,5.38-1.41s4.93-1.47,7.86-2.51,6.09-2.32,9.35-3.8,6.28-3.07,9-4.59,5.08-3,7-4.3,3.52-2.38,4.59-3.15l1.24-.87A2,2,0,0,1,272.63,213.83Z" style="fill:#fafafa"></path><path d="M274.82,259.72a7.06,7.06,0,0,1-1.15.79c-.76.49-1.88,1.13-3.3,1.89a66.59,66.59,0,0,1-23.91,7.22c-1.6.16-2.9.24-3.79.25a6.91,6.91,0,0,1-1.4,0,7.61,7.61,0,0,1,1.38-.18c.89-.07,2.18-.21,3.77-.42a75.08,75.08,0,0,0,23.78-7.18c1.43-.71,2.58-1.31,3.37-1.74A7,7,0,0,1,274.82,259.72Z" style="fill:#fafafa"></path><path d="M330.47,241.34a2.71,2.71,0,0,1-.51-.27l-1.4-.87-1-.63c-.37-.22-.79-.44-1.23-.69-.9-.47-1.88-1.07-3.05-1.59l-1.81-.86c-.63-.29-1.31-.54-2-.82-1.38-.6-2.91-1.08-4.5-1.61a59.41,59.41,0,0,0-21.64-2.52c-1.68.16-3.27.27-4.75.54-.74.12-1.46.2-2.14.35l-2,.42c-1.25.23-2.35.59-3.33.85-.48.14-.94.25-1.36.39l-1.12.38-1.56.52a3.42,3.42,0,0,1-.56.15,2.17,2.17,0,0,1,.52-.25l1.53-.61,1.12-.43c.41-.15.86-.27,1.35-.43,1-.29,2.07-.67,3.33-.93l2-.46c.69-.15,1.41-.24,2.15-.38,1.49-.28,3.1-.41,4.79-.58a57.25,57.25,0,0,1,21.81,2.53c1.61.55,3.14,1.05,4.52,1.67.7.29,1.38.55,2,.86l1.8.89c1.17.54,2.15,1.17,3,1.67.44.26.86.49,1.22.73l1,.67c.54.39,1,.7,1.35.95A2.29,2.29,0,0,1,330.47,241.34Z" style="fill:#fafafa"></path><path d="M323.93,311.86s-.41-.69-1.16-1.93a33.25,33.25,0,0,0-3.64-4.89,45.11,45.11,0,0,0-16.46-11.31,97,97,0,0,0-19.44-5.34l-6-1.08-1.64-.3a2.49,2.49,0,0,1-.57-.15,3.65,3.65,0,0,1,.59,0l1.65.21c1.44.19,3.52.49,6.07.92a89.73,89.73,0,0,1,19.58,5.22,44,44,0,0,1,16.54,11.54,30.29,30.29,0,0,1,3.54,5c.37.62.59,1.15.76,1.49A2.08,2.08,0,0,1,323.93,311.86Z" style="fill:#fafafa"></path><path d="M269.69,357.56s-.1-.13-.24-.41-.34-.74-.57-1.23c-.49-1.07-1.17-2.63-2-4.58-1.59-3.9-3.62-9.36-5.49-15.5s-3.25-11.81-4.1-15.93c-.43-2.06-.75-3.74-.93-4.9-.09-.53-.16-1-.21-1.34a1.29,1.29,0,0,1,0-.47,1.79,1.79,0,0,1,.14.45l.3,1.32,1.1,4.86c.94,4.09,2.37,9.72,4.23,15.85s3.84,11.6,5.34,15.52l1.81,4.64.48,1.27A2.62,2.62,0,0,1,269.69,357.56Z" style="fill:#fafafa"></path><path d="M223,368.42a7.39,7.39,0,0,1-.85-1.16c-.52-.77-1.23-1.91-2-3.36a63.72,63.72,0,0,1-7.7-24.62c-.16-1.65-.23-3-.24-3.92a7.23,7.23,0,0,1,0-1.45,9.09,9.09,0,0,1,.17,1.44c.06.92.19,2.25.4,3.89a70.94,70.94,0,0,0,7.65,24.48c.77,1.47,1.42,2.64,1.89,3.43A7.35,7.35,0,0,1,223,368.42Z" style="fill:#fafafa"></path><path d="M218.05,327.29c-.09,0-.42-1.53-1.32-3.89a32.65,32.65,0,0,0-1.86-4,32.35,32.35,0,0,0-6.68-8.52,34.61,34.61,0,0,0-3.46-2.76c-2.09-1.44-3.51-2.13-3.47-2.22a4.53,4.53,0,0,1,1,.43,21.61,21.61,0,0,1,2.64,1.48,28.56,28.56,0,0,1,3.59,2.72,30.24,30.24,0,0,1,6.77,8.64,28.69,28.69,0,0,1,1.78,4.13,21.3,21.3,0,0,1,.82,2.92A4.05,4.05,0,0,1,218.05,327.29Z" style="fill:#fafafa"></path><path d="M251.28,284.76a10.06,10.06,0,0,1-1.49-.79c-.93-.55-2.3-1.29-4-2.16S242,280,239.58,279a81.55,81.55,0,0,0-7.87-2.61,79.79,79.79,0,0,0-8.11-1.7c-2.53-.36-4.81-.6-6.74-.7s-3.49-.16-4.57-.15a12.77,12.77,0,0,1-1.69-.06,9.18,9.18,0,0,1,1.68-.14c1.09-.07,2.66-.08,4.6,0a65.58,65.58,0,0,1,6.79.6,67.9,67.9,0,0,1,16.09,4.33,63.23,63.23,0,0,1,6.17,2.9c1.71.92,3.07,1.72,4,2.32A10.14,10.14,0,0,1,251.28,284.76Z" style="fill:#fafafa"></path><path d="M220.83,230a19.5,19.5,0,0,0-3.43.17,18.85,18.85,0,0,0-3.18,1.26,4.69,4.69,0,0,1,3.07-1.77A4.77,4.77,0,0,1,220.83,230Z" style="fill:#fafafa"></path><path d="M185.62,363a5.94,5.94,0,0,1-.8-1.16l-2-3.26c-1.71-2.75-4.11-6.52-6.86-10.63s-5.34-7.76-7.23-10.39l-2.24-3.11a7.32,7.32,0,0,1-.78-1.18,7.25,7.25,0,0,1,.94,1.05c.57.7,1.39,1.74,2.37,3,2,2.58,4.61,6.21,7.37,10.32s5.11,7.93,6.75,10.73c.82,1.4,1.46,2.55,1.89,3.35A8.71,8.71,0,0,1,185.62,363Z" style="fill:#fafafa"></path><path d="M332.55,218.7s-.12-.67-.32-1.86a38.8,38.8,0,0,0-1.16-5,36.6,36.6,0,0,0-22.18-23.92,38.5,38.5,0,0,0-4.9-1.53c-1.18-.29-1.84-.42-1.84-.46a1.53,1.53,0,0,1,.49,0c.32,0,.79.1,1.39.23a32.2,32.2,0,0,1,5,1.38,35.79,35.79,0,0,1,22.42,24.16,32.55,32.55,0,0,1,1,5.08c.08.6.1,1.08.12,1.4A1.53,1.53,0,0,1,332.55,218.7Z" style="fill:#fafafa"></path><path d="M373,252.44a2.08,2.08,0,0,1-.31.43l-1,1.15c-.42.5-.95,1.1-1.59,1.77s-1.35,1.46-2.2,2.26a78.25,78.25,0,0,1-6.16,5.44,79.57,79.57,0,0,1-17.18,10.43,78.34,78.34,0,0,1-7.67,2.94c-1.11.39-2.13.65-3,.91s-1.66.45-2.3.6l-1.47.32a1.87,1.87,0,0,1-.52.08,1.63,1.63,0,0,1,.49-.18l1.45-.42c.63-.17,1.39-.39,2.27-.68s1.9-.57,3-1c2.21-.75,4.78-1.77,7.59-3a96.23,96.23,0,0,0,8.85-4.68,92.59,92.59,0,0,0,8.23-5.68c2.42-1.91,4.52-3.72,6.2-5.33.87-.78,1.59-1.55,2.25-2.2s1.21-1.23,1.65-1.71l1-1.08A2.05,2.05,0,0,1,373,252.44Z" style="fill:#fafafa"></path><path d="M391.44,291.38s0,.09-.09.25l-.32.7c-.29.61-.68,1.53-1.29,2.67a77.69,77.69,0,0,1-5.64,9.31,82.42,82.42,0,0,1-10.5,12.27,81.95,81.95,0,0,1-33.92,19.74,83,83,0,0,1-15.86,3.08,78.41,78.41,0,0,1-10.88.3c-1.29,0-2.28-.15-2.95-.19l-.77-.07a.82.82,0,0,1-.26-.05h.26l.77,0c.68,0,1.67.1,3,.1a87,87,0,0,0,10.84-.47,84.31,84.31,0,0,0,15.75-3.17,85.23,85.23,0,0,0,50-41c.64-1.11,1.05-2,1.38-2.61.14-.28.26-.5.36-.68A1.05,1.05,0,0,1,391.44,291.38Z" style="fill:#fafafa"></path><path d="M408.8,321.91a3.48,3.48,0,0,1-.17.31l-.52.9c-.25.38-.51.89-.9,1.43l-1.35,1.87a55.53,55.53,0,0,1-10.72,10c-2.48,1.87-5.27,3.8-8.25,5.9a104.93,104.93,0,0,0-9.17,7.1c-3.08,2.67-5.85,6-8.91,9.22s-6.55,6.47-11,8.37a39.45,39.45,0,0,1-13.5,3c-4.46.29-8.77.17-12.87.1a133.22,133.22,0,0,1-21.7-1.73,55.25,55.25,0,0,1-14-4.33L293.7,363c-.59-.3-1.06-.62-1.45-.85l-.89-.55a1.88,1.88,0,0,1-.29-.2,1.82,1.82,0,0,1,.32.16l.91.5c.4.21.88.52,1.48.81l2.06,1a57.11,57.11,0,0,0,14,4.16,137.09,137.09,0,0,0,21.65,1.61c4.09.05,8.4.17,12.83-.13a39.33,39.33,0,0,0,13.32-2.93c4.32-1.87,7.77-5,10.81-8.25s5.84-6.54,9-9.23a101.26,101.26,0,0,1,9.25-7.09c3-2.09,5.79-4,8.27-5.84a58,58,0,0,0,10.78-9.84l1.39-1.84c.4-.53.67-1,.93-1.4s.42-.65.57-.86S408.79,321.9,408.8,321.91Z" style="fill:#fafafa"></path><path d="M121.61,396a5.11,5.11,0,0,0,6.76-.44,4.43,4.43,0,0,1,1.09,3.16,14.81,14.81,0,0,0,.19,3.4,2.81,2.81,0,0,0,2.28,2.25,2.66,2.66,0,0,0,2.37-1.5A7.88,7.88,0,0,0,135,400l.69-5.7c.49.81,1.18,1.72,2.12,1.66,1.15-.07,1.66-1.49,1.72-2.65s.07-2.52,1-3.16c.24.87,1.58,1,2.24.35a3.46,3.46,0,0,0,.77-2.53,5.88,5.88,0,0,1,.34-2.68l-9.35.65Z" style="fill:#fafafa"></path><path d="M111.85,351a3.64,3.64,0,0,1,2.53-1.54c1.62-.19,4.22-.54,5.56-.85,2-.47,12.85-5.64,15.12-6.66a28.45,28.45,0,0,1,9.25-1.49c1.49.16,12.23-.62,12.23-.62l17,16.06S166.86,373.83,159,377.7a162.82,162.82,0,0,0-15.77,9.13L137.11,388s-11.6,8.67-14.64,8.09-3.77-1.88-3.77-1.88-3.75,2.16-5.73.24,0-4.81,0-4.81-3-.35-3.39-1.75a6.06,6.06,0,0,1,1.52-5.51c1.76-2,13.83-15.11,16.4-16.87s4.1-5,4.69-6.91-1.17-4.68-4.45-3.16-7,2.36-9.61,1.9C114.27,356.68,108.73,355.54,111.85,351Z" style="fill:#ffbe9d"></path><path d="M142.64,376.65a13.31,13.31,0,0,1-1.35-.2,7.38,7.38,0,0,0-3.46.41l-.22.08-.08-.2a6.19,6.19,0,0,0-3.06-3.5,3.9,3.9,0,0,0-2.6-.12l-.45.15.12-.45a4.71,4.71,0,0,0-.11-2.67,9.13,9.13,0,0,0-1-2,14.13,14.13,0,0,0-.87-1.18,4,4,0,0,1-.35-.41c0-.07.7.38,1.47,1.41a7.89,7.89,0,0,1,1.12,2A5,5,0,0,1,132,373l-.33-.3a4.29,4.29,0,0,1,3,.09,5.13,5.13,0,0,1,2.13,1.71,8.46,8.46,0,0,1,1.15,2.11l-.3-.12a6.87,6.87,0,0,1,3.69-.26A3.36,3.36,0,0,1,142.64,376.65Z" style="fill:#eb996e"></path><path d="M131.39,372.85a34.92,34.92,0,0,1-2.76,2.37c-1.72,1.44-4.06,3.46-6.54,5.81s-4.62,4.59-6.14,6.23a31.43,31.43,0,0,1-2.51,2.63,3.32,3.32,0,0,1,.55-.81c.38-.51,1-1.21,1.69-2.07a85.58,85.58,0,0,1,6.06-6.36c2.49-2.36,4.88-4.35,6.66-5.72.89-.68,1.63-1.22,2.15-1.57A3.18,3.18,0,0,1,131.39,372.85Z" style="fill:#eb996e"></path><path d="M138.19,376.89a3.86,3.86,0,0,1-.78.65l-2.23,1.64c-1.89,1.37-4.5,3.26-7.31,5.45a52.12,52.12,0,0,0-6.81,6,19.65,19.65,0,0,0-2.1,3.1,2.63,2.63,0,0,1,.33-1,11.54,11.54,0,0,1,1.49-2.36,42.64,42.64,0,0,1,6.77-6.16c2.82-2.2,5.47-4.05,7.42-5.34,1-.65,1.77-1.16,2.32-1.5A4.07,4.07,0,0,1,138.19,376.89Z" style="fill:#eb996e"></path><path d="M145.48,377.4a4.16,4.16,0,0,1-.88.77,26,26,0,0,1-2.67,1.75,30.45,30.45,0,0,1-4.31,2,34.9,34.9,0,0,1-5.6,1.46,5.26,5.26,0,0,0-2.54,1.22,2.51,2.51,0,0,0-.8,2.3,3.1,3.1,0,0,0,1.16,2,4.22,4.22,0,0,0,1.9.83,6.41,6.41,0,0,0,3-.32,10,10,0,0,1,1.09-.39,3.14,3.14,0,0,1-1,.58,6,6,0,0,1-3.18.49,4.51,4.51,0,0,1-2.11-.85A3.58,3.58,0,0,1,128.2,387a3,3,0,0,1,.92-2.75,5.76,5.76,0,0,1,2.78-1.35,38.84,38.84,0,0,0,5.56-1.41,31.85,31.85,0,0,0,4.29-1.87C144.11,378.35,145.43,377.32,145.48,377.4Z" style="fill:#eb996e"></path><path d="M131.71,373.57a1.91,1.91,0,0,1-1.14,1.95,2.46,2.46,0,0,1-2.31-.12c-.48-.29-.92-.74-1.48-.72s-1.1.6-1.69.51a1.14,1.14,0,0,1-.83-1.35,2.82,2.82,0,0,1,1.22-1.52,4.31,4.31,0,0,1,3.1-.9C130.46,371.6,131.53,372.68,131.71,373.57Z" style="fill:#fafafa"></path><path d="M166.28,346.71a5.56,5.56,0,0,0-6-2,6.1,6.1,0,0,0-2.39-6.4c-2.06-1.28-5.26-.53-6.15,1.72a4.76,4.76,0,0,0-8.5,3.26s-4.25-3.42-7.27.92a12.2,12.2,0,0,0,6.84,2,6.27,6.27,0,0,0,4.14,5.7c4.15,1.46,6.17-.9,6.17-.9s.8,5.77,4.27,5.3l8.4-3.06.48-.23A5.56,5.56,0,0,0,166.28,346.71Zm-9.88-8.44a.41.41,0,0,1,.41.42.41.41,0,0,1-.41.41.41.41,0,0,1-.42-.41A.42.42,0,0,1,156.4,338.27ZM155,341.11a.41.41,0,0,1-.41-.42.41.41,0,0,1,.41-.41.41.41,0,0,1,.42.41A.42.42,0,0,1,155,341.11Zm.06-1.24a.77.77,0,1,1,.77-.77A.77.77,0,0,1,155,339.87Zm1.58,4.36a.77.77,0,1,1,.76-.76A.76.76,0,0,1,156.6,344.23Zm.59-2.06a1.54,1.54,0,1,1,1.54-1.53A1.53,1.53,0,0,1,157.19,342.17Zm2,6a.77.77,0,1,1,.76-.77A.76.76,0,0,1,159.2,348.13Zm1.35-1.44a.42.42,0,1,1,.42-.42A.42.42,0,0,1,160.55,346.69Zm1.77,1.76a1.09,1.09,0,1,1,1.09-1.09A1.09,1.09,0,0,1,162.32,348.45Zm1.43.67a.42.42,0,1,1,.42-.42A.42.42,0,0,1,163.75,349.12Z" style="fill:#ebebeb"></path><path d="M157.76,372.41a3.16,3.16,0,0,0-2.58-.8,9.67,9.67,0,0,0-2.65.81,3.88,3.88,0,0,0-7.4.08,4.18,4.18,0,0,0-3.15-.57,3.06,3.06,0,0,0-2.24,2.18,2.44,2.44,0,0,0,1.31,2.73,13,13,0,0,0,2,.37c.65.16,1.33.68,1.27,1.35a2.64,2.64,0,0,1-.61,1.14,3,3,0,0,0,.62,3.82l-1.49,1c-.74,1.58.59,2.66,2.3,3a3,3,0,0,0,3.4-3,5.34,5.34,0,0,0,5.68-.87,3.92,3.92,0,0,0,.14-5.44,5.73,5.73,0,0,0,3.45-2A3,3,0,0,0,157.76,372.41Zm-5.33,9.39a.29.29,0,0,1,.3.29.3.3,0,1,1-.59,0A.29.29,0,0,1,152.43,381.8Zm-1.67-10.43a1,1,0,1,1-1,1A1,1,0,0,1,150.76,371.37Zm-2.1-.29a.39.39,0,0,1,.4.39.4.4,0,1,1-.79,0A.39.39,0,0,1,148.66,371.08Zm-2.53,15.45a1.09,1.09,0,1,1,1.08-1.08A1.09,1.09,0,0,1,146.13,386.53Zm2-2.82a.59.59,0,0,1-.59-.59.6.6,0,0,1,.59-.59.59.59,0,0,1,.59.59A.58.58,0,0,1,148.16,383.71Zm.55-10a.68.68,0,0,1,0-1.35.68.68,0,1,1,0,1.35Zm1.74,9.73a1.18,1.18,0,1,1,1.18-1.18A1.18,1.18,0,0,1,150.45,383.48Zm1.83.53a.59.59,0,0,1-.59-.59.6.6,0,0,1,.59-.59.59.59,0,0,1,.59.59A.58.58,0,0,1,152.28,384Zm1.14-.65a.3.3,0,0,1-.3-.29.31.31,0,0,1,.3-.3.3.3,0,0,1,.29.3A.29.29,0,0,1,153.42,383.36Zm1.08-9.57a.72.72,0,1,1,.71-.71A.71.71,0,0,1,154.5,373.79Zm1.06-1.08a.35.35,0,1,1,0-.69.35.35,0,0,1,0,.69Z" style="fill:#fafafa"></path><path d="M148.36,364.28a4,4,0,0,0-.55-2.43,1.4,1.4,0,0,0-2.15-.21,2.89,2.89,0,0,0-4.25-3.59,3,3,0,0,0-5.31,2.54,3.6,3.6,0,0,0-2.62,1.52,3.55,3.55,0,0,0-.48,3s-2.83.67-1.61,2.49,7.33,1.09,7.33,1.09-1.72,1.63,1,2a6,6,0,0,0,4.69-1.69s3.58-.19,4.38-.84S148.36,364.28,148.36,364.28Zm-14.52-1.23a.2.2,0,1,1-.2.2A.2.2,0,0,1,133.84,363.05Zm0,1.53a.4.4,0,1,1,.4-.4A.4.4,0,0,1,133.89,364.58Zm1.2-.54a1,1,0,1,1,1-1A1,1,0,0,1,135.09,364Zm8.14-2.67a.41.41,0,1,1,0-.82.41.41,0,1,1,0,.82Zm-.29-2a1,1,0,1,1,1,1A1,1,0,0,1,142.94,359.38Zm1.62,2.31a.56.56,0,0,1-.57-.57.57.57,0,0,1,.57-.57.58.58,0,0,1,.57.57A.57.57,0,0,1,144.56,361.69Z" style="fill:#fafafa"></path><path d="M191.21,343.54l6.48,23.56s-14.16,11.3-15,12a5.21,5.21,0,0,1-2.9,1.36c-.78-.07-2.07-1-3-1.23s-3.29-.52-3.93-.19a15.65,15.65,0,0,1-5,1.42c-2.2.19-6.72,3.48-9,2.06a4.91,4.91,0,0,1-2.44-3.37s4.48-1.8,5.14-3,4-6.29,4.4-7.45a29.81,29.81,0,0,0,.51-4.84s-6.26.06-7.48.52-2.33,1.34-4.65,2.18-6.78,1.55-7.55,0-1-3.37-.65-3.86c0,0,4.78-5.23,5.81-6s13.42-6.65,16.14-8.07,12.66-8.41,23.1-5.11" style="fill:#ffbe9d"></path><path d="M191.21,343.54l-.24-.05-.69-.15c-.31-.07-.68-.18-1.14-.26l-1.58-.22a23.65,23.65,0,0,0-10.21,1.42,39.59,39.59,0,0,0-6.67,3.1c-2.29,1.41-4.93,2.66-7.69,4s-5.72,2.79-8.78,4.35A19.16,19.16,0,0,0,152,357c-.64.56-1.26,1.21-1.88,1.85-1.25,1.3-2.5,2.65-3.76,4l0,0a2.63,2.63,0,0,0-.06,1.24,7.33,7.33,0,0,0,.31,1.37c.07.22.16.44.25.66s.1.21.15.32.11.15.16.24a2.19,2.19,0,0,0,1.2.5,10.2,10.2,0,0,0,2.91-.09,15.77,15.77,0,0,0,2.92-.72,19,19,0,0,0,2.8-1.27c.46-.24.92-.5,1.41-.73a4.53,4.53,0,0,1,1.6-.43c2.14-.23,4.29-.28,6.48-.32h.27v.27a34.88,34.88,0,0,1-.37,4.24,4,4,0,0,1-.34,1.1c-.16.34-.34.66-.53,1-.36.64-.74,1.27-1.13,1.9l-1.46,2.35-.72,1.17-.35.59a2.7,2.7,0,0,1-.48.59,12.08,12.08,0,0,1-2.37,1.47c-.81.41-1.63.77-2.46,1.11l.16-.26a4.66,4.66,0,0,0,1.72,2.76,2.82,2.82,0,0,0,1.42.71,5,5,0,0,0,1.62-.13,20.43,20.43,0,0,0,3.17-1.16,12.39,12.39,0,0,1,3.26-1.09,13.67,13.67,0,0,0,3.16-.72,14.89,14.89,0,0,0,1.49-.59,3.36,3.36,0,0,1,1.69-.25,9.87,9.87,0,0,1,3.21.57c.49.22.95.47,1.41.68a2,2,0,0,0,1.34.29,6.17,6.17,0,0,0,2.53-1.41L185,377l4.45-3.55,8.09-6.44-.06.19-4.67-17.27c-.53-2-.95-3.6-1.24-4.7-.13-.52-.23-.92-.31-1.22a2.34,2.34,0,0,1-.09-.42,1.69,1.69,0,0,1,.14.4l.36,1.21c.31,1.1.76,2.67,1.34,4.68,1.14,4.09,2.79,10,4.82,17.22l0,.12-.09.08-8.05,6.47-4.43,3.57L183,379.14a6.82,6.82,0,0,1-2.74,1.52,1.72,1.72,0,0,1-.87,0,5.56,5.56,0,0,1-.75-.29c-.48-.22-.94-.47-1.41-.67a9.45,9.45,0,0,0-3-.52,2.84,2.84,0,0,0-1.47.2,16,16,0,0,1-1.54.62,14.34,14.34,0,0,1-3.28.74,12.38,12.38,0,0,0-3.1,1.06,21.29,21.29,0,0,1-3.25,1.2,5.74,5.74,0,0,1-1.81.14,3.46,3.46,0,0,1-1.67-.82,5,5,0,0,1-1.91-3.11l0-.19.19-.07c.81-.34,1.63-.71,2.42-1.11a11.16,11.16,0,0,0,2.25-1.39,1.87,1.87,0,0,0,.38-.46l.35-.6.73-1.17,1.46-2.35c.38-.63.76-1.26,1.12-1.89a5.48,5.48,0,0,0,.81-1.91,35,35,0,0,0,.36-4.17l.26.27c-2.17,0-4.33.08-6.42.31a4.2,4.2,0,0,0-1.45.38c-.46.22-.92.47-1.38.72a21.07,21.07,0,0,1-2.87,1.3,16.92,16.92,0,0,1-3,.73,10.53,10.53,0,0,1-3.07.08,2.53,2.53,0,0,1-1.47-.64,2.79,2.79,0,0,1-.41-.71,6,6,0,0,1-.26-.71,7.1,7.1,0,0,1-.33-1.45,2.77,2.77,0,0,1,.14-1.56h0l0,0c1.28-1.38,2.53-2.73,3.78-4,.64-.64,1.25-1.28,1.93-1.88a18,18,0,0,1,2.32-1.3c3.08-1.55,6-3,8.8-4.31s5.39-2.56,7.7-4a39.66,39.66,0,0,1,6.75-3.08,23.41,23.41,0,0,1,10.32-1.29l1.59.25c.45.1.82.22,1.13.3l.68.2A.62.62,0,0,1,191.21,343.54Z" style="fill:#eb996e"></path><path d="M155.44,361.48c-.15,0-.31-.91-.76-1.94s-1-1.79-.88-1.89.88.55,1.36,1.68A2.83,2.83,0,0,1,155.44,361.48Z" style="fill:#eb996e"></path><path d="M176.73,374.81a4.64,4.64,0,0,1-.8,1.42,10.1,10.1,0,0,1-2.74,2.83,8.3,8.3,0,0,1-3.71,1.36,3.87,3.87,0,0,1-1.63,0,7.78,7.78,0,0,1,1.57-.34,9.83,9.83,0,0,0,3.48-1.43,12.86,12.86,0,0,0,2.74-2.62C176.27,375.24,176.67,374.77,176.73,374.81Z" style="fill:#eb996e"></path><path d="M166.05,359.77a6,6,0,0,1,.34,5.1,14.79,14.79,0,0,1-.12-2.55A16.17,16.17,0,0,1,166.05,359.77Z" style="fill:#eb996e"></path><path d="M164.49,361.13c.07-.12.79.25,1.25,1.09s.41,1.63.27,1.63-.32-.66-.73-1.38S164.4,361.25,164.49,361.13Z" style="fill:#eb996e"></path><path d="M148.1,366.74c0-.07.31-.31.75-.78a3.52,3.52,0,0,0,1-2.2,2.47,2.47,0,0,0-.94-2.1c-.51-.39-.93-.43-.93-.51s.48-.16,1.13.2a2.38,2.38,0,0,1,.9.91,2.68,2.68,0,0,1,.36,1.53,3.41,3.41,0,0,1-1.26,2.44C148.55,366.67,148.12,366.79,148.1,366.74Z" style="fill:#eb996e"></path><circle cx="142.82" cy="397.05" r="1.56" style="fill:#fafafa"></circle><path d="M123.07,375.82a1.47,1.47,0,1,1-2.93,0,1.47,1.47,0,0,1,2.93,0Z" style="fill:#fafafa"></path></g><g id="freepik--Tap--inject-47"><polyline points="136.52 365.35 136.52 328.65 142.65 328.65 142.54 357.2 142.84 364.62" style="fill:#fafafa"></polyline><path d="M142.84,364.62a4.18,4.18,0,0,1-.08-.72c0-.51-.07-1.2-.13-2.06-.08-1.79-.29-4.39-.25-7.63,0-6.52,0-15.49,0-25.56l.26.26h-6.13l.26-.26c0,10.24-.06,19.39-.08,26.05,0,3.26-.06,5.91-.08,7.8,0,.88,0,1.58-.05,2.11a3.24,3.24,0,0,1,0,.74,6,6,0,0,1-.05-.74c0-.53,0-1.23,0-2.11,0-1.89-.05-4.54-.08-7.8,0-6.66,0-15.81-.09-26.05v-.26h6.65v.26c-.07,10.06-.13,19-.18,25.55-.09,3.24.07,5.84.1,7.64,0,.86,0,1.54,0,2.06A4,4,0,0,1,142.84,364.62Z" style="fill:#263238"></path><path d="M138.09,346.58a74.65,74.65,0,0,1,0-12.45,74.65,74.65,0,0,1,0,12.45Z" style="fill:#263238"></path><path d="M140.53,350.2a69.13,69.13,0,0,1,0-12,69.13,69.13,0,0,1,0,12Z" style="fill:#263238"></path><path d="M97,367.46a3.4,3.4,0,0,0-4.71.82l-6.1,7.82a6.16,6.16,0,0,0-.62,6c1.3,2.73,4.36.4,4.36.4L98,372.75a3.36,3.36,0,0,0,.1-4.24,6.6,6.6,0,0,0-1-1Z" style="fill:#e0e0e0"></path><path d="M100.67,365.26c.68-.82-1.85-3.56-2.65-4.19l-4.71-3.75a2.17,2.17,0,0,0-2.66-.22,1.63,1.63,0,0,0-.75,1.6,2,2,0,0,0,.8,1.44l5,3.92c.77.6,3.87,2.23,4.52,1.45Z" style="fill:#ebebeb"></path><path d="M100.67,365.26s-.12.11-.44.3l0,0a1,1,0,0,1-.84.26,5,5,0,0,1-1.2-.26A10.87,10.87,0,0,1,95.27,364L92,361.44l-.91-.71a5.84,5.84,0,0,1-.93-.83,2.08,2.08,0,0,1-.09-2.54,2.33,2.33,0,0,1,1.54-.84,2.5,2.5,0,0,1,1.61.38c.8.62,1.46,1.18,2.15,1.73l1.93,1.57a13.93,13.93,0,0,1,1.64,1.44,9.32,9.32,0,0,1,1.79,2.53,1.36,1.36,0,0,1,.14.83c0,.2-.16.28-.15.26s0-.1,0-.27a1.66,1.66,0,0,0-.23-.75,10.67,10.67,0,0,0-1.89-2.37A12.62,12.62,0,0,0,97,360.5L95,359c-.68-.52-1.42-1.14-2.13-1.67a1.85,1.85,0,0,0-2.42.33,1.67,1.67,0,0,0,.1,2,4.51,4.51,0,0,0,.85.75l.9.73,3.26,2.61a10.87,10.87,0,0,0,2.78,1.58c.8.33,1.56.46,1.82.18h0A2,2,0,0,1,100.67,365.26Z" style="fill:#263238"></path><path d="M98.36,363.82c-.73.79,1.68,3.65,2.46,4.32l4.71,3.94a2.33,2.33,0,0,0,2.74.33,1.57,1.57,0,0,0,.78-1.56,2.18,2.18,0,0,0-.82-1.47l-5-4.13c-.75-.63-3.76-2.41-4.45-1.65Z" style="fill:#ebebeb"></path><path d="M98.36,363.82s.12-.1.45-.27h0a1,1,0,0,1,.85-.22,4.6,4.6,0,0,1,1.18.33,10.66,10.66,0,0,1,2.87,1.67L107,368l.92.75a5.73,5.73,0,0,1,.94.86,2,2,0,0,1,.09,2.54,2.31,2.31,0,0,1-1.61.77,2.71,2.71,0,0,1-1.66-.45c-.81-.65-1.48-1.24-2.17-1.82L101.57,369a13,13,0,0,1-1.6-1.51,9.32,9.32,0,0,1-1.68-2.61,1.39,1.39,0,0,1-.1-.84.39.39,0,0,1,.17-.26s-.06.1-.07.27a1.66,1.66,0,0,0,.19.76,10.5,10.5,0,0,0,1.79,2.46,12.34,12.34,0,0,0,1.61,1.44l2,1.61c.69.57,1.4,1.16,2.15,1.76a2.12,2.12,0,0,0,1.3.36,1.79,1.79,0,0,0,1.21-.58,1.62,1.62,0,0,0-.1-2,5.53,5.53,0,0,0-.86-.79l-.91-.76-3.23-2.75a11.22,11.22,0,0,0-2.71-1.71c-.78-.36-1.52-.53-1.8-.27h0A2.39,2.39,0,0,1,98.36,363.82Z" style="fill:#263238"></path><path d="M98,370.87l5.81-6.18L99,360.9l-5.38,6.9C93.92,370.45,95.43,371.39,98,370.87Z" style="fill:#e0e0e0"></path><path d="M103.34,362.44l3.92-4.32a1.26,1.26,0,0,0,.15-1.4,1.31,1.31,0,0,0-1.93-.68L101,361.16" style="fill:#ebebeb"></path><path d="M101,361.16a8.59,8.59,0,0,1,1.17-1.56c.77-1,1.86-2.24,3.12-3.7l0,0,0,0a1.72,1.72,0,0,1,.83-.24,1.39,1.39,0,0,1,.86.29,2.27,2.27,0,0,1,.59.7,1.37,1.37,0,0,1,.17.88,1.55,1.55,0,0,1-.37.81l-.51.56-1.8,1.91a12.23,12.23,0,0,1-1.78,1.69,12.35,12.35,0,0,1,1.49-1.9l1.72-2c.16-.19.33-.37.49-.57a1,1,0,0,0,.25-.57,1,1,0,0,0-.12-.62,2.07,2.07,0,0,0-.46-.55,1,1,0,0,0-1.1,0l.07-.06c-1.27,1.45-2.42,2.71-3.26,3.6A8.66,8.66,0,0,1,101,361.16Z" style="fill:#263238"></path><path d="M99.19,360.93a2.78,2.78,0,0,0,.51,3.83,2.47,2.47,0,1,0,3.29-3.54C101.79,360.08,100.09,360,99.19,360.93Z" style="fill:#e0e0e0"></path><path d="M99.6,360.55a2.53,2.53,0,0,0-.64,1.12,3,3,0,0,0,1,2.75,2.93,2.93,0,0,0,1.48.84,2.75,2.75,0,0,0,1.45-.1c.79-.31,1-.85,1.1-.8s0,.63-1,1.1a2.93,2.93,0,0,1-1.71.23,3.22,3.22,0,0,1-1.77-.95,3.13,3.13,0,0,1-.91-3.14,1.74,1.74,0,0,1,.61-.89C99.43,360.55,99.59,360.52,99.6,360.55Z" style="fill:#263238"></path><path d="M93.68,367.41c.08,0,0,.42,0,1a2.72,2.72,0,0,0,3.54,2.46c.67-.17,1-.45,1.08-.39s-.23.42-1,.71a3.13,3.13,0,0,1-2.92-.36,2.86,2.86,0,0,1-1.11-2.39C93.37,367.78,93.63,367.39,93.68,367.41Z" style="fill:#263238"></path><path d="M99.17,365.05a1.58,1.58,0,0,0-2.27.21l-3.56,4.16a2,2,0,0,0-.4,2.34,1.24,1.24,0,0,0,1.31.63,2.1,2.1,0,0,0,1.31-.74l3.72-4.4a1.59,1.59,0,0,0-.11-2.2Z" style="fill:#ebebeb"></path><path d="M99.17,365.05s.33.14.53.66a1.62,1.62,0,0,1,0,1,3.28,3.28,0,0,1-.73,1.15c-.66.8-1.4,1.7-2.2,2.69l-.65.77a6.14,6.14,0,0,1-.75.82,2.32,2.32,0,0,1-1.21.5,1.56,1.56,0,0,1-1.27-.43,2,2,0,0,1-.27-2.2,3.57,3.57,0,0,1,.65-.91l.66-.76,2.31-2.62.48-.53a1.87,1.87,0,0,1,.55-.43,1.76,1.76,0,0,1,1.11-.16,1.38,1.38,0,0,1,.61.29c.11.1.15.16.14.17a2.62,2.62,0,0,0-.79-.27,1.45,1.45,0,0,0-.93.2,3.59,3.59,0,0,0-.87.93l-2.23,2.68-.65.78a2.69,2.69,0,0,0-.55.79,1.56,1.56,0,0,0,.2,1.72,1.33,1.33,0,0,0,1.72-.09,7.15,7.15,0,0,0,.69-.74l.66-.77,2.29-2.63a3,3,0,0,0,.74-1,1.51,1.51,0,0,0,0-.88A3.65,3.65,0,0,0,99.17,365.05Z" style="fill:#263238"></path><path d="M98.76,370.17c-.07-.12-.11-.22-.09-.23a.56.56,0,0,1,.16.19c.07.11.11.21.09.22S98.83,370.28,98.76,370.17Z" style="fill:#263238"></path><path d="M76.45,324.18c0-.58-1-9.85,6.77-10.14s53.33-3.3,56.93-2.71,5.87,1.89,5.87,6.22v1.93a12.37,12.37,0,0,1-2.51,9.17h-7.44s-3.43-4.72-2.66-8.89l-45,2.12a1.77,1.77,0,0,0-1.86,1.5c-.1.56,1.06,62.63,1.06,62.63h0a8.58,8.58,0,0,1-11,0l-.2-.17Z" style="fill:#e0e0e0"></path><path d="M76.45,324.18s0,.38,0,1.12,0,1.84,0,3.26c0,2.88,0,7.08,0,12.44,0,10.76,0,26.17.06,44.83l-.08-.16a8.43,8.43,0,0,0,7.72,1.84,9.28,9.28,0,0,0,2-.8,8.7,8.7,0,0,0,.9-.59l.21-.17.11-.08,0,0h0s-.15.33-.08.16v-.62c0-1.48-.06-3-.09-4.49q-.17-9.06-.36-18.84c-.12-6.51-.24-13.23-.36-20.12q-.09-5.18-.18-10.47c0-1.76-.05-3.54-.07-5.32,0-.91,0-1.76,0-2.73a2,2,0,0,1,.7-1.33,2.13,2.13,0,0,1,1.44-.46h0l7.47-.35,37.51-1.76h.31l-.05.31a9.29,9.29,0,0,0,.51,4.58,17.9,17.9,0,0,0,2.1,4.11l-.2-.1h7.44l-.18.09a12.13,12.13,0,0,0,2.46-9v0a14.35,14.35,0,0,0-.35-4.43,4.56,4.56,0,0,0-2.91-2.88,11.52,11.52,0,0,0-2.07-.56,13.57,13.57,0,0,0-2.12-.13c-1.42,0-2.84,0-4.24.08-5.59.19-10.9.46-15.9.72l-26,1.42c-3.61.22-6.86.33-9.66.53a6.07,6.07,0,0,0-3.5,1.43,7.08,7.08,0,0,0-1.8,2.64,12.93,12.93,0,0,0-.78,4.35c0,.5,0,.89,0,1.14a3.81,3.81,0,0,1,0,.39,13.85,13.85,0,0,1-.08-1.53,12.49,12.49,0,0,1,.73-4.4,7.17,7.17,0,0,1,1.8-2.72A6.32,6.32,0,0,1,82.51,314c2.82-.22,6-.35,9.67-.58l26-1.54c5-.27,10.32-.56,15.92-.76,1.4,0,2.82-.1,4.26-.09a13.48,13.48,0,0,1,2.19.13,13.64,13.64,0,0,1,2.15.57,5.57,5.57,0,0,1,1.95,1.2,4.77,4.77,0,0,1,1.23,2,14.7,14.7,0,0,1,.39,4.57v0a12.55,12.55,0,0,1-2.55,9.36l-.07.09h-7.69l-.07-.11a18.05,18.05,0,0,1-2.17-4.24,9.85,9.85,0,0,1-.54-4.83l.26.3-37.5,1.77-7.48.35h0a1.63,1.63,0,0,0-1.07.34,1.48,1.48,0,0,0-.51,1c0,.88,0,1.76,0,2.64,0,1.78.05,3.56.07,5.32.06,3.53.11,7,.17,10.47q.18,10.35.34,20.12t.33,18.85c0,1.51.06,3,.08,4.48V386c.07-.15-.09.23-.08.2h0l0,0-.11.09-.22.17a8.81,8.81,0,0,1-3,1.46A8.88,8.88,0,0,1,76.27,386l-.08-.06v-.1c0-18.66.1-34.07.13-44.83,0-5.36.05-9.56.06-12.44,0-1.42,0-2.51,0-3.26S76.45,324.18,76.45,324.18Z" style="fill:#263238"></path><path d="M62.64,370.68a4.13,4.13,0,0,1,5.56-1.79l10.49,5.26a7.45,7.45,0,0,1,3.63,6.36c0,3.8-4.39,2.92-4.39,2.92l-13.59-6.29A4.16,4.16,0,0,1,62,372.48a8.7,8.7,0,0,1,.59-1.71Z" style="fill:#e0e0e0"></path><path d="M57.45,370.38c-1.19-.52.15-5,.71-6.19l3.3-6.93a2.84,2.84,0,0,1,2.85-1.8A1.89,1.89,0,0,1,66,356.81a2.77,2.77,0,0,1-.17,2.09l-3.5,7.26c-.54,1.11-3.07,4.72-4.2,4.22Z" style="fill:#ebebeb"></path><path d="M57.45,370.38a2.59,2.59,0,0,1,.64-.06h0c.46.16,1.17-.4,1.88-1.19a15.23,15.23,0,0,0,2.23-3.29l2.25-4.78c.39-.86.9-1.79,1.24-2.68a2.35,2.35,0,0,0,0-1.39,1.73,1.73,0,0,0-.83-1.08,2.12,2.12,0,0,0-1.64-.07,2.66,2.66,0,0,0-1.3,1c-.54,1-1,2.11-1.52,3.09s-1,1.94-1.38,2.84a22.57,22.57,0,0,0-1.13,2.47,14.64,14.64,0,0,0-.86,3.83,1.84,1.84,0,0,0,.15,1c.09.22.23.26.22.29a.48.48,0,0,1-.31-.23,1.87,1.87,0,0,1-.26-1.07,12.74,12.74,0,0,1,.72-3.94,20.63,20.63,0,0,1,1.08-2.55c.42-.9.87-1.85,1.33-2.85s.92-2,1.54-3.17a3.19,3.19,0,0,1,1.55-1.22,2.39,2.39,0,0,1,3.11,3.18c-.41,1-.88,1.86-1.29,2.75L62.58,366a14.6,14.6,0,0,1-2.38,3.31,6.36,6.36,0,0,1-1.13.93,1.14,1.14,0,0,1-1,.18h0A2,2,0,0,1,57.45,370.38Z" style="fill:#263238"></path><path d="M59.22,367.44c1.21.46.08,5-.42,6.22l-3,7.07a2.84,2.84,0,0,1-2.77,1.93,1.86,1.86,0,0,1-1.7-1.27,2.75,2.75,0,0,1,.07-2.09l3.15-7.42c.48-1.14,2.85-4.85,4-4.41Z" style="fill:#ebebeb"></path><path d="M59.22,367.44a2.63,2.63,0,0,1-.64.09h0c-.46-.13-1.15.45-1.82,1.28a15,15,0,0,0-2.07,3.38c-.61,1.48-1.29,3.12-2,4.88-.35.88-.81,1.84-1.12,2.74a2.47,2.47,0,0,0,0,1.4,1.74,1.74,0,0,0,.87,1,2.17,2.17,0,0,0,1.64,0,2.71,2.71,0,0,0,1.26-1.08c.49-1,.93-2.15,1.37-3.15l1.25-2.9a21.61,21.61,0,0,0,1-2.53,14.63,14.63,0,0,0,.69-3.86,2,2,0,0,0-.2-1c-.1-.2-.24-.24-.23-.27s.16,0,.32.21a2,2,0,0,1,.31,1.06,13,13,0,0,1-.53,4,20.47,20.47,0,0,1-1,2.6l-1.19,2.91c-.45,1-.82,2.07-1.39,3.24a3.19,3.19,0,0,1-1.49,1.29,2.63,2.63,0,0,1-2.06,0,2.59,2.59,0,0,1-1.19-3c.36-1.05.79-1.9,1.16-2.81.76-1.75,1.47-3.38,2.1-4.85a14.47,14.47,0,0,1,2.23-3.41,5.63,5.63,0,0,1,1.09-1,1.11,1.11,0,0,1,1-.23h0A2.09,2.09,0,0,1,59.22,367.44Z" style="fill:#263238"></path><path d="M63.32,375.07l-9.6-3.52,3.25-7,9.48,4.58C67.49,372.27,66.35,374.19,63.32,375.07Z" style="fill:#e0e0e0"></path><path d="M53,368.8l-6.67-2.51a1.52,1.52,0,0,1-.94-1.45c.06-1.1.58-1.92,1.79-1.89L54.92,366" style="fill:#ebebeb"></path><path d="M54.92,366a11.46,11.46,0,0,1-2.28-.72c-1.4-.51-3.35-1.24-5.55-2.1l.08,0a1.32,1.32,0,0,0-1.27.65,2.27,2.27,0,0,0-.24.89,1.22,1.22,0,0,0,.17.8,1.39,1.39,0,0,0,.61.52l.87.33,3,1.18A16.12,16.12,0,0,1,53,368.8a16.89,16.89,0,0,1-2.84-.87l-3-1.08-.87-.32a1.8,1.8,0,0,1-.86-.71,1.69,1.69,0,0,1-.26-1.12,2.76,2.76,0,0,1,.31-1.09,1.82,1.82,0,0,1,1.74-.92h.08c2.2.88,4.12,1.68,5.49,2.27A12.52,12.52,0,0,1,54.92,366Z" style="fill:#263238"></path><path d="M56.79,364.71c1.52.56,2.17,2.6,1.45,4.55s-2.54,3.08-4.06,2.52-2.16-2.59-1.44-4.55S55.28,364.15,56.79,364.71Z" style="fill:#e0e0e0"></path><path d="M56.14,364.52s.17-.08.48,0a2.06,2.06,0,0,1,1.15.67A3.26,3.26,0,0,1,58.6,367a5,5,0,0,1-.29,2.38,4,4,0,0,1-1.43,1.93,3.46,3.46,0,0,1-1.86.65c-1.18,0-1.7-.63-1.64-.64a3.83,3.83,0,0,0,1.61.27,3.54,3.54,0,0,0,2.84-2.39,3.89,3.89,0,0,0-.34-3.75A2.79,2.79,0,0,0,56.14,364.52Z" style="fill:#263238"></path><path d="M66.19,368.74s.52.27.91,1.08a3.82,3.82,0,0,1-.12,3.4,3.77,3.77,0,0,1-2.84,1.86c-.9.09-1.42-.17-1.4-.22s.54,0,1.34-.14A3.57,3.57,0,0,0,66.76,370C66.5,369.19,66.13,368.8,66.19,368.74Z" style="fill:#263238"></path><path d="M59,369.28a2,2,0,0,1,2.6-1.08l6,2.59a2.43,2.43,0,0,1,1.63,2.38,1.62,1.62,0,0,1-1.1,1.45,2.32,2.32,0,0,1-1.79-.08L60,371.79a2,2,0,0,1-1-2.51Z" style="fill:#ebebeb"></path><path d="M59,369.28a4,4,0,0,0,0,1,2,2,0,0,0,.55,1,4.43,4.43,0,0,0,1.38.7l3.87,1.63,1.12.47a5.18,5.18,0,0,0,1.13.41,1.66,1.66,0,0,0,1.89-1,2,2,0,0,0-.72-2.1,4,4,0,0,0-1.05-.56L66,370.37l-3.85-1.71a3.07,3.07,0,0,0-1.45-.47,1.82,1.82,0,0,0-1.07.35c-.52.38-.63.77-.68.74s0-.1.07-.27a1.85,1.85,0,0,1,.49-.63,2,2,0,0,1,1.18-.48,2.12,2.12,0,0,1,.81.1l.8.32,3.88,1.61,1.12.47a4.48,4.48,0,0,1,1.18.62,2.5,2.5,0,0,1,.89,2.66,2.14,2.14,0,0,1-2.46,1.3,5.24,5.24,0,0,1-1.25-.45L64.57,374l-3.83-1.73L60,372a2.1,2.1,0,0,1-1.2-1.63,1.81,1.81,0,0,1,.08-.8C58.9,369.35,59,369.27,59,369.28Z" style="fill:#263238"></path><path d="M62.11,374.73c0,.14,0,.26,0,.26s0-.12,0-.26,0-.26,0-.26S62.11,374.59,62.11,374.73Z" style="fill:#263238"></path><path d="M75.62,372.92a1.85,1.85,0,0,1,.79-.06,6.39,6.39,0,0,1,2.13.47,6.79,6.79,0,0,1,2.64,1.88,7.14,7.14,0,0,1,1.65,3.61,5.4,5.4,0,0,1-.76,3.9,3.1,3.1,0,0,1-1.41,1.12,3.15,3.15,0,0,1-1.55.17,6.19,6.19,0,0,1-2.06-.69c-.46-.23-.69-.39-.67-.42s.28.06.75.24a7.38,7.38,0,0,0,2,.5,2.63,2.63,0,0,0,2.52-1.19,5,5,0,0,0,.64-3.56,6.82,6.82,0,0,0-3.92-5.22A11.41,11.41,0,0,0,75.62,372.92Z" style="fill:#263238"></path></g></svg>