<svg xmlns="http://www.w3.org/2000/svg" viewBox="0 0 500 500"><g id="freepik--Floor--inject-244"><ellipse id="freepik--floor--inject-244" cx="244.45" cy="358.5" rx="215.73" ry="124.14" style="fill:#f5f5f5"></ellipse></g><g id="freepik--Shadows--inject-244"><ellipse id="freepik--Shadow--inject-244" cx="177.06" cy="385.56" rx="61.42" ry="35.46" style="fill:#e0e0e0"></ellipse><path id="freepik--shadow--inject-244" d="M260.86,464l130.75-75.47a1.24,1.24,0,0,0,0-2.34l-69-39.81a4.45,4.45,0,0,0-4.05,0L187.84,421.87a1.23,1.23,0,0,0,0,2.34l69,39.82A4.53,4.53,0,0,0,260.86,464Z" style="fill:#e0e0e0"></path></g><g id="freepik--Plants--inject-244"><g id="freepik--plants--inject-244"><path d="M347.58,364.52c-1.19-8.16,2.23-25.92,9.15-37.75s16.08-21.34,26-19.49c9.24,1.72,9.35,13.87-.21,23.09s-26.46,26-29.22,39.88l-1.6,12.26Z" style="fill:#BA68C8"></path><path d="M347.58,364.52c-1.19-8.16,2.23-25.92,9.15-37.75s16.08-21.34,26-19.49c9.24,1.72,9.35,13.87-.21,23.09s-26.46,26-29.22,39.88l-1.6,12.26Z" style="opacity:0.15"></path><path d="M348.61,375.77a.61.61,0,0,0,.47-.56c1.39-28.64,20.6-54.57,33.34-61.54a.6.6,0,0,0,.24-.82.58.58,0,0,0-.81-.24c-13,7.1-32.57,33.46-34,62.54a.6.6,0,0,0,.57.63Z" style="fill:#fff"></path><path d="M348.42,399.85c.64-4.78,5.13-13.17,13.28-20.74,9-8.38,21.22-13.42,23.35-19.23,2.57-7-3.77-12.28-13.88-9.5s-26.14,19.47-25.94,41Z" style="fill:#BA68C8"></path><path d="M348.42,399.85c.64-4.78,5.13-13.17,13.28-20.74,9-8.38,21.22-13.42,23.35-19.23,2.57-7-3.77-12.28-13.88-9.5s-26.14,19.47-25.94,41Z" style="opacity:0.30000000000000004"></path><path d="M345.73,395.33a.62.62,0,0,0,.45-.47c5.05-25.11,22-36.14,30.29-38.47a.6.6,0,1,0-.33-1.16c-9.14,2.58-26,13.77-31.14,39.39a.61.61,0,0,0,.47.71A.76.76,0,0,0,345.73,395.33Z" style="fill:#fff"></path></g><g id="freepik--plants--inject-244"><path d="M146.4,353.59s1.6-20.48-5.36-38-18.77-29.84-31.35-33.33-25.18,6.28-13.07,17,34.8,23.67,40.13,56Z" style="fill:#BA68C8"></path><path d="M146.4,353.59s1.6-20.48-5.36-38-18.77-29.84-31.35-33.33-25.18,6.28-13.07,17,34.8,23.67,40.13,56Z" style="opacity:0.15"></path><path d="M143.66,347.66h.14a.7.7,0,0,0,.55-.82c-7.06-35.82-30-54.66-41.21-59.62a.71.71,0,0,0-.92.36.68.68,0,0,0,.35.91C113.51,293.34,136,311.84,143,347.1A.7.7,0,0,0,143.66,347.66Z" style="fill:#fff"></path><path d="M92.4,329.45c.42,2.39,2.49,4.1,4.46,5.52s4.1,3,4.78,5.29c1.35,4.71-4,9.52-2.44,14.16a7.6,7.6,0,0,0,4.31,4.16,50.1,50.1,0,0,0,4.83,1.68,20.2,20.2,0,0,0,2.39.4c2.35.23,4.84.74,6.63,2.42,2.81,2.65,2.78,7,4,10.7a16,16,0,0,0,9.29,9.65c3.58,1.41,9.34,2,10.71.56,1-1.06-.2-5.36.12-6.82a61,61,0,0,0,1.34-11.35,21.37,21.37,0,0,1,.53-5.17c.49-1.89,1-3.79,1.42-5.68.5-2.06,1.38-3.54,1.15-5.79A21.72,21.72,0,0,0,144,343q-1.24-2.92-2.53-5.84a30.48,30.48,0,0,0-3.62-6.55,16,16,0,0,0-11.17-6c-3.59-.28-7.44.82-11-.23s-6.57-2.78-10.16-3.42c-3.75-.66-7.9,0-10.8,2.61A6.73,6.73,0,0,0,92.4,329.45Z" style="fill:#BA68C8"></path><path d="M92.4,329.45c.42,2.39,2.49,4.1,4.46,5.52s4.1,3,4.78,5.29c1.35,4.71-4,9.52-2.44,14.16a7.6,7.6,0,0,0,4.31,4.16,50.1,50.1,0,0,0,4.83,1.68,20.2,20.2,0,0,0,2.39.4c2.35.23,4.84.74,6.63,2.42,2.81,2.65,2.78,7,4,10.7a16,16,0,0,0,9.29,9.65c3.58,1.41,9.34,2,10.71.56,1-1.06-.2-5.36.12-6.82a61,61,0,0,0,1.34-11.35,21.37,21.37,0,0,1,.53-5.17c.49-1.89,1-3.79,1.42-5.68.5-2.06,1.38-3.54,1.15-5.79A21.72,21.72,0,0,0,144,343q-1.24-2.92-2.53-5.84a30.48,30.48,0,0,0-3.62-6.55,16,16,0,0,0-11.17-6c-3.59-.28-7.44.82-11-.23s-6.57-2.78-10.16-3.42c-3.75-.66-7.9,0-10.8,2.61A6.73,6.73,0,0,0,92.4,329.45Z" style="opacity:0.30000000000000004"></path><path d="M132.65,345.54a.52.52,0,0,0-.18-.21c-10.79-13.22-26.64-18.74-31.92-19.53a.55.55,0,1,0-.16,1.08c5,.75,19.69,5.84,30.21,17.9a30,30,0,0,0-23.77,3.8.53.53,0,0,0-.11.76.52.52,0,0,0,.45.22.51.51,0,0,0,.31-.11,29.12,29.12,0,0,1,24.36-3.2A45.79,45.79,0,0,1,142,373.74a.54.54,0,0,0,.52.52h0a.55.55,0,0,0,.53-.56A46.72,46.72,0,0,0,132.65,345.54Z" style="fill:#fff"></path></g></g><g id="freepik--Character--inject-244"><g id="freepik--character-legs--inject-244"><path d="M144.45,376.66c4.16,2,8.67,1.71,13.46-.48l1.53-26.57-16.88-1.85Z" style="fill:#ffa8a7"></path><path d="M177.05,360.41c2.14,3.93,11.76,4.82,14.5-.33l1.17-26-17.69.38Z" style="fill:#ffa8a7"></path><path d="M175.16,400.65c.46.41.43,3.3,0,4.1s-3.46,3.57-9,4.16c-5.26.56-10,0-13.17-1.84s-4.74-4-5.14-7-.16-5.91-1.68-8.17c-1.4-2.09-3.59-4.42-4.09-5.56-1.09-2.48-.26-6.12-.26-6.12Z" style="fill:#263238"></path><path d="M159.75,374.94a14.13,14.13,0,0,0,.77,3.32,30.29,30.29,0,0,0,3.46,6.5,28.06,28.06,0,0,0,2.31,3c1.67,1.84,3.7,3.33,5.46,5.09a10.81,10.81,0,0,1,3.48,6.36c.38,4.13-4.06,5.69-7.5,6.43a25.43,25.43,0,0,1-11.25-.16,10.33,10.33,0,0,1-7.86-8c-.23-1.14-.21-2.32-.38-3.47a16.37,16.37,0,0,0-3.48-7.12,22.49,22.49,0,0,1-2.61-3.85c-1.17-2.52-.4-5.43.19-8,.52-2.22.92-4.85,1.7-4.67l.11,1.71c.27.47.79.45,1,1a10.55,10.55,0,0,0,.68,1.68,4.63,4.63,0,0,0,1.91,2c0-1.56,0-3.13,0-4.69a2.21,2.21,0,0,1,.31-1.39,2.24,2.24,0,0,1,1.3-.62,29.43,29.43,0,0,1,8.83-1.05,1.61,1.61,0,0,1,1.2.48,1.71,1.71,0,0,1,.24,1A42.57,42.57,0,0,0,159.75,374.94Z" style="fill:#455a64"></path><path d="M164.57,385.6c-1.58-1.1-5-1-6.91-.72a11.47,11.47,0,0,0-5.3,2.07,1.21,1.21,0,0,1-1.58-.06h0a1.16,1.16,0,0,1,.05-1.77,11.73,11.73,0,0,1,6-2.45c4.63-.49,6,.26,6,.26S165,384.22,164.57,385.6Z" style="fill:#f5f5f5"></path><path d="M168.26,389.71c-2-1.07-5.76-.77-7.64-.5a10.77,10.77,0,0,0-5.15,2.17,1.23,1.23,0,0,1-1.58-.07h0a1.15,1.15,0,0,1,.05-1.76,12.12,12.12,0,0,1,6.08-2.64c4.63-.49,5.88.42,5.88.42A3.84,3.84,0,0,1,168.26,389.71Z" style="fill:#f5f5f5"></path><path d="M154.78,378.29a11.65,11.65,0,0,1,5.85.28c.84.43,1.42,1.71.91,2.05a10.85,10.85,0,0,0-5.2-.52,15.15,15.15,0,0,0-5,1.56c-.4.19-.86.45-1.26.69a1.1,1.1,0,0,1-1.55-.42h0a1,1,0,0,1,.36-1.34A14.92,14.92,0,0,1,154.78,378.29Z" style="fill:#f5f5f5"></path><path d="M221.11,376.5a5,5,0,0,1-.13,3.69c-.49,1.09-6,4.38-13.65,4a31.61,31.61,0,0,1-15.83-5.15c-2.93-1.85-5.95-2.15-9.72-2.28s-8-1.92-8.87-3.66,0-4.79,0-4.79Z" style="fill:#263238"></path><path d="M190.09,353.8l2-.76a1.63,1.63,0,0,1,1.12-.15c.49.17.69.74.83,1.24a17.84,17.84,0,0,0,.9,3.28,8.25,8.25,0,0,0,2.18,2.19,35,35,0,0,0,6.16,3.79c2.51,1.28,5,2.26,7.55,3.36s6.12,1.76,8.19,3.09c3,2,3.52,7,.16,9.05-2.89,1.78-10.55,3.81-18.68,1.69-4.43-1.15-9.42-5.75-15.21-6.08-3.68-.2-9.92-1.1-12.34-3.84-.9-1.22.18-5.17,1.07-8.58,1-3.71,1.24-9.51,2.47-9.21.11,1.23,1.19,1.92,1.86,2.94a21.54,21.54,0,0,1,1.38,2.91c.45,1,.31,1.95,1.24,2.5a2.44,2.44,0,0,0,3-.24c1.06-1.14.37-3.09,1.13-4.44a4.74,4.74,0,0,1,2.56-1.76Z" style="fill:#455a64"></path><path d="M199.76,361.46A3.41,3.41,0,0,0,197,359.7c-1.68-.27-4.61,1-6.41,2.58a1.37,1.37,0,0,0,.25,2.26h0a1.37,1.37,0,0,0,1.56-.21A10.48,10.48,0,0,1,199.76,361.46Z" style="fill:#f5f5f5"></path><path d="M205,364.25c0-.45-1.09-1.7-3.25-1.59,0,0-4.37.22-7,2.8a1.35,1.35,0,0,0,.24,2.19h0a1.31,1.31,0,0,0,1.5-.21A10.53,10.53,0,0,1,205,364.25Z" style="fill:#f5f5f5"></path><path d="M210.79,366.75a4.4,4.4,0,0,0-3.38-1.43,11.74,11.74,0,0,0-6.71,2.82,1.34,1.34,0,0,0,.23,2.18h0a1.32,1.32,0,0,0,1.51-.2A10,10,0,0,1,210.79,366.75Z" style="fill:#f5f5f5"></path><path d="M136,179.81c-3,28.85,4.34,100.37,4.34,100.37-.56,3.58-2.19,8.65-2.14,21,.07,18.85,4.4,59.21,4.4,59.21s8.41,2.7,16.88-.14c0,0,5.36-51.75,7.7-69,1.63-12,2.31-24.82,2.31-24.82l1.12,11.67a111.62,111.62,0,0,0-.59,23.37c.72,8.62,5.5,43.93,5.5,43.93a34.52,34.52,0,0,0,17.7.46s4.17-60.7,4.89-68.58c.81-9,1.12-96,1.12-96Z" style="fill:#455a64"></path><path d="M169.45,266.49l3.77-51.13a26.77,26.77,0,0,0,17.67-11.58s-1.74,9.2-14.12,14.75L171.26,266l-.69,12.14Z" style="fill:#37474f"></path></g><g id="freepik--character-chest--inject-244"><path d="M224.73,201v-.15a28.56,28.56,0,0,0-.42-6.91c-.38-1.67-2.42-3.17-3.57-4.39-5.62-5.95-14.06-13-20.39-19.42-6.11-6.15-5.32-14.74-5.92-25.48-1.08-19.12-1.86-27.84-1.86-27.84L190,98c10.14,1,14.87,6.36,15.81,9.72,3.42,12.22,8.42,47.55,8.42,47.55,2.36,3.53,2.82,3.76,8.16,11.95,2.84,4.36,5.9,8.56,9,12.75.69.94,1.42,1.85,2.07,2.82s1,2.08,1.68,3.08a18.4,18.4,0,0,0,5.23,5.46c1.71,1.17,3.64,2.06,5.09,3.54a43.63,43.63,0,0,1,3,3.73,13.3,13.3,0,0,0,3.54,2.7,4.23,4.23,0,0,1-4.31,1.66c-1.62-.25-2.92-1.91-4.31-2.77.78,2.5,1.16,9,.45,10.21-1.07,1.82-4.53,3.93-7.51,5.13a8,8,0,0,1-6.1-.19c-2.52-1.09-3.43-3.88-4.15-6.54A27.53,27.53,0,0,1,224.73,201Z" style="fill:#f28f8f"></path><path d="M190,97.3c6.41,1.4,10.26,2,14.56,6.69s5.82,21.05,6.8,27.85,2,13.53,2,13.53-6.9,7-22.76,3.49Z" style="fill:#455a64"></path><path d="M219.64,187.86a3.42,3.42,0,0,1,2.88-1.83,6.43,6.43,0,0,1,3.43.87,2,2,0,0,1,3.36.41,2.61,2.61,0,0,1,4.92,1.66,1.51,1.51,0,0,1,1.51,2.15,3,3,0,0,1,1.74,5.5,4.21,4.21,0,0,1-4.32-.4,19.64,19.64,0,0,1-3.31-3.14,7.16,7.16,0,0,0-3.82-2.36c-1.7-.27-3.39.51-5.08.23C219.6,190.73,219.11,189,219.64,187.86Z" style="fill:#fafafa"></path><path d="M239.44,196.69c-3.46-5.94-10-11.06-16.12-7.77-.3.16-2.37,1.21-3.09,1.6-3.34,1.79-5.25,7.86-1.42,14.43,3.33,5.7,9.71,9.77,15.14,7a9.93,9.93,0,0,0,1.19-.73,8.2,8.2,0,0,0,1.84-.68C242.41,207.73,242.44,201.83,239.44,196.69Z" style="fill:#BA68C8"></path><path d="M223.32,188.92c-3.34,1.79-5.31,8.05-1.47,14.63,3.32,5.69,9.7,9.77,15.13,7s5.46-8.69,2.46-13.83C236,190.75,229.45,185.63,223.32,188.92Z" style="fill:#BA68C8"></path><path d="M223.32,188.92c-3.34,1.79-5.31,8.05-1.47,14.63,3.32,5.69,9.7,9.77,15.13,7s5.46-8.69,2.46-13.83C236,190.75,229.45,185.63,223.32,188.92Z" style="fill:#fff;opacity:0.5"></path><path d="M212.51,202.86a11.64,11.64,0,0,1,.23-8.32,6,6,0,0,1,1.86-2.35,3.74,3.74,0,0,1,2.86-.71,2.72,2.72,0,0,1,2.14,1.92,2.81,2.81,0,0,1,2.62-.64c.74.19,2.1,1,1.34,2a3.16,3.16,0,0,1,5.4,3.15,2.32,2.32,0,1,1,1.81,4.26,2.56,2.56,0,0,1,1.8.27,1.93,1.93,0,0,1,1.15,1.25,2.14,2.14,0,0,1-.14,1.25,5.06,5.06,0,0,1-.65,1.1,1.81,1.81,0,0,1,1.58-.8,1.79,1.79,0,0,1,1.49,1,1.63,1.63,0,0,1,1.05-1.63,2.16,2.16,0,0,1,2.07.38,2.57,2.57,0,0,1,.83,1.94,5,5,0,0,1-2.69,4.23,11.88,11.88,0,0,1-5.06,1.28A25.41,25.41,0,0,1,220.58,211,13.9,13.9,0,0,1,212.51,202.86Z" style="fill:#fafafa"></path><path d="M146.42,96.41s-1.86,1.94-4.74,8.55a69.09,69.09,0,0,0-6.22,27.68c-.15,15.38-.22,19.36-.22,27.69v30.11c9.6,7.58,50.85,12.91,65.43-1.59,0,0-.86-6.71-1.85-28.31,2-12.19,3.77-26.21,4.25-34.72.84-14.82-1-24-9.59-27.75A101.65,101.65,0,0,0,183.19,95s-5.52-1.79-15.56-1.34A156,156,0,0,0,146.42,96.41Z" style="fill:#BA68C8"></path><path d="M176.83,44s-3.87-1.9-7.72,1.74c-3.36,3.18-3.11,11.06-3,19.26a60.51,60.51,0,0,0,1.84,15.32,6.06,6.06,0,0,0,2.79,3.55l1.94-9.25,1.18-6.48s4.47-.28,7-9.15c1.67-5.88,1.31-8.5,1.31-8.5Z" style="fill:#455a64"></path><path d="M180.42,55.8a17.65,17.65,0,1,0,21.19-13.19A17.64,17.64,0,0,0,180.42,55.8Z" style="fill:#455a64"></path><path d="M174.32,67.12c-2.1-.14-2.3-2.79-3.28-4.45s-4.79-4.5-7.94-.54-1.64,9.78.86,12.35a5.28,5.28,0,0,0,6.24,1.16l-2.69,19.79h0c5.27,10.7,25.39,13.12,20,1.78l.82-4.09a27.68,27.68,0,0,0,7.9,2c4.38.34,7.82-2.38,10.16-6.66,3.77-6.86,5.88-18,6.43-32.93-3.87-4.78-19.26-9-30.66-5.06-1.5,8.5-4.16,13.72-5.06,14.81S175.13,67.18,174.32,67.12Z" style="fill:#ffa8a7"></path><path d="M218.67,45a.78.78,0,0,0-.51-.61,1,1,0,0,0-.63.11,27.92,27.92,0,0,1-4.36,1.64A13.94,13.94,0,0,0,214.45,41c.06-1.09.33-3.56-.9-4.13-.73-.33-1.55.15-2.24.55C205,41,198.8,37.22,192.53,36c-5.24-1.07-12-.43-15.55,4.07-1.62,2.06-2.39,4.45-.64,6.55a15.08,15.08,0,0,0,5.78,3.87c9.93,4.25,23,11.09,33,3.24a9.29,9.29,0,0,0,3.22-4.28,7.82,7.82,0,0,0,.36-4.35S218.67,45,218.67,45Z" style="fill:#263238"></path><path d="M188.29,93.12s-7.76-2.65-11.79-6.51a12.47,12.47,0,0,1-3.35-5.9,10.61,10.61,0,0,0,1.35,5.92c3.43,5.75,13.23,9.08,13.23,9.08Z" style="fill:#f28f8f"></path><path d="M191.65,68.82a1.94,1.94,0,1,1-3.78-.89,1.94,1.94,0,1,1,3.78.89Z" style="fill:#263238"></path><path d="M191.3,61.21l-4.56,1.29a2.49,2.49,0,0,1,1.69-3A2.32,2.32,0,0,1,191.3,61.21Z" style="fill:#263238"></path><path d="M209.8,67.18l-3-3.7a2.29,2.29,0,0,1,3.32.25A2.51,2.51,0,0,1,209.8,67.18Z" style="fill:#263238"></path><path d="M207.49,71.94a1.94,1.94,0,1,1-1.43-2.41A2,2,0,0,1,207.49,71.94Z" style="fill:#263238"></path><polygon points="198.04 66.73 196.52 78.2 202.83 78.12 198.04 66.73" style="fill:#f28f8f"></polygon><path d="M188.8,80.71l7.76,2.88a4.07,4.07,0,0,1-5.26,2.58A4.32,4.32,0,0,1,188.8,80.71Z" style="fill:#b16668"></path><path d="M189.58,82.15a4.89,4.89,0,0,0-1-.13,4.27,4.27,0,0,0,2.71,4.15,4,4,0,0,0,1.31.23A3.79,3.79,0,0,0,189.58,82.15Z" style="fill:#f28f8f"></path><path d="M241.27,199.19c-.82-1.31-3.83-3.49-5.25-4.62s-2.07.94-1.75,2.43c.24,1.12,1.93,2.48,3.49,3.79l.56,4-4.06,3.82s-5.58.06-6.3-.46c-1.23-.88-2-1.85-1-3s1.92-1.57,4.66-1.44a14.41,14.41,0,0,0,4-.21c1.45-.53,1.9-1.38,1.14-2.32-1.26-1.59-3.86-1.22-6.83-2-3.72-1-4.85-2.26-8.07-3.36a52.18,52.18,0,0,1-8.13-3.09c-2.92-1.52-42.39-23.53-42.39-23.53L159.27,127.9s-2.42-26.8-8.48-32.31c-14.1,2.41-15.92,12.39-15.55,24s10.16,43.79,14.53,53.69c4.22,9.57,5.54,10.4,11.83,13.38,9.39,4.45,35.43,14,41.49,17.13a68.25,68.25,0,0,1,9.22,5.25c2.88,2.14,8.63,6.31,10.15,6.72,3.74,1,11.2-1.24,13.55-2.07s6.47-6.69,6.77-7.8S242.09,200.5,241.27,199.19Z" style="fill:#ffa8a7"></path><path d="M154.62,95c-4,.2-10,.65-14.65,5s-5.35,12.38-4.67,20.65c.51,6.35,5.13,32,5.13,32s13.44,2.93,24.49-6.9c-.17-.43-5.36-28.29-5.36-28.29S159.08,98.07,154.62,95Z" style="fill:#455a64"></path></g></g><g id="freepik--Sink--inject-244"><g id="freepik--sink--inject-244"><polygon points="342.56 403.82 342.56 405.38 345.27 406.95 345.27 405.38 342.56 403.82" style="fill:#37474f"></polygon><polygon points="347.99 403.82 347.99 405.38 345.27 406.95 345.27 405.38 347.99 403.82" style="fill:#455a64"></polygon><polygon points="347.99 375.62 347.99 403.82 345.27 405.38 345.27 377.19 347.99 375.62" style="fill:#37474f"></polygon><polygon points="345.27 405.38 342.56 403.82 342.56 375.62 345.27 377.19 345.27 405.38" style="fill:#263238"></polygon><polygon points="269.3 446.12 269.3 447.68 272.01 449.25 272.01 447.68 269.3 446.12" style="fill:#37474f"></polygon><polygon points="274.73 446.12 274.73 447.68 272.01 449.25 272.01 447.68 274.73 446.12" style="fill:#455a64"></polygon><polygon points="274.73 417.92 274.73 446.12 272.01 447.68 272.01 419.48 274.73 417.92" style="fill:#37474f"></polygon><polygon points="272.01 447.68 269.3 446.12 269.3 417.92 272.01 419.48 272.01 447.68" style="fill:#263238"></polygon><polygon points="212.32 413.22 212.32 414.78 215.03 416.35 215.03 414.78 212.32 413.22" style="fill:#37474f"></polygon><polygon points="217.75 413.22 217.75 414.78 215.03 416.35 215.03 414.78 217.75 413.22" style="fill:#455a64"></polygon><polygon points="217.75 385.02 217.75 413.22 215.03 414.78 215.03 386.59 217.75 385.02" style="fill:#455a64"></polygon><polygon points="215.03 414.78 212.32 413.22 212.32 385.02 215.03 386.59 215.03 414.78" style="fill:#263238"></polygon><polygon points="258.45 311.39 353.41 256.56 353.41 375.62 258.45 430.45 258.45 311.39" style="fill:#455a64"></polygon><polygon points="258.45 311.39 204.18 280.06 204.18 399.12 258.45 430.45 258.45 311.39" style="fill:#37474f"></polygon><polygon points="253.02 323.9 369.69 256.56 299.14 215.83 182.47 283.17 253.02 323.9" style="fill:#BA68C8"></polygon><polygon points="253.02 323.9 369.69 256.56 299.14 215.83 182.47 283.17 253.02 323.9" style="fill:#fff;opacity:0.6000000000000001"></polygon><path d="M291.76,287.29c-2.58,1.49-2.58,3.91,0,5.4a10.38,10.38,0,0,0,9.34,0c2.58-1.49,2.58-3.91,0-5.4A10.32,10.32,0,0,0,291.76,287.29Z" style="opacity:0.1"></path><polygon points="182.47 283.17 182.47 286.3 253.02 327.03 253.02 323.9 182.47 283.17" style="fill:#BA68C8"></polygon><polygon points="182.47 283.17 182.47 286.3 253.02 327.03 253.02 323.9 182.47 283.17" style="fill:#fff;opacity:0.5"></polygon><polygon points="182.47 283.17 182.47 286.3 253.02 327.03 253.02 323.9 182.47 283.17" style="opacity:0.15"></polygon><polygon points="253.02 327.03 369.69 259.7 369.69 256.56 253.02 323.9 253.02 327.03" style="fill:#BA68C8"></polygon><polygon points="253.02 327.03 369.69 259.7 369.69 256.56 253.02 323.9 253.02 327.03" style="fill:#fff;opacity:0.5"></polygon><polygon points="253.02 327.03 369.69 259.7 369.69 256.56 253.02 323.9 253.02 327.03" style="opacity:0.05"></polygon><ellipse cx="261.16" cy="272.72" rx="28.04" ry="16.19" style="opacity:0.1"></ellipse><path d="M279.75,275.38c2-2,7.58-7.56,19.37-16.16H271a36,36,0,0,0-19.74,0H223.2c11.79,8.6,17.39,14.2,19.36,16.16l.16.16.33.32h0c3.69,3.46,10.42,5.77,18.11,5.77s14.41-2.31,18.11-5.77h0c.09-.09.2-.19.32-.32Z" style="fill:#e0e0e0"></path><ellipse cx="261.16" cy="242.76" rx="47.91" ry="26.98" style="fill:#fafafa"></ellipse><ellipse cx="261.16" cy="241.89" rx="44" ry="23.96" style="fill:#ebebeb"></ellipse><path d="M261.16,265.85a75.81,75.81,0,0,0,18.2-2.15c-3.67-3.51-10.45-5.86-18.2-5.86s-14.53,2.35-18.21,5.86A75.83,75.83,0,0,0,261.16,265.85Z" style="fill:#e0e0e0"></path><polygon points="293.72 250.3 274.73 239.33 280.15 236.2 299.14 247.16 293.72 250.3" style="fill:#BA68C8"></polygon><polygon points="293.72 250.3 274.73 239.33 280.15 236.2 299.14 247.16 293.72 250.3" style="fill:#fff;opacity:0.8"></polygon><polygon points="293.72 250.3 274.73 239.33 280.15 236.2 299.14 247.16 293.72 250.3" style="opacity:0.05"></polygon><polygon points="293.72 250.3 299.14 247.16 295.72 245.19 290.3 248.32 293.72 250.3" style="opacity:0.05"></polygon><polygon points="274.73 239.33 266.58 240.9 272.01 237.77 280.15 236.2 274.73 239.33" style="fill:#BA68C8"></polygon><polygon points="274.73 239.33 266.58 240.9 272.01 237.77 280.15 236.2 274.73 239.33" style="fill:#fff;opacity:0.7000000000000001"></polygon><polygon points="274.73 239.33 266.58 240.9 272.01 237.77 280.15 236.2 274.73 239.33" style="opacity:0.05"></polygon><polygon points="266.58 244.03 274.73 242.47 293.72 253.43 293.72 250.3 274.73 239.33 266.58 240.9 266.58 244.03" style="fill:#BA68C8"></polygon><polygon points="266.58 244.03 274.73 242.47 293.72 253.43 293.72 250.3 274.73 239.33 266.58 240.9 266.58 244.03" style="fill:#fff;opacity:0.7000000000000001"></polygon><polygon points="266.58 244.03 274.73 242.47 293.72 253.43 293.72 250.3 274.73 239.33 266.58 240.9 266.58 244.03" style="opacity:0.1"></polygon><polygon points="290.3 251.46 293.72 253.43 293.72 250.3 290.3 248.32 290.3 251.46" style="opacity:0.1"></polygon><path d="M300.87,289.55V237.46H292v52.09h0a2.2,2.2,0,0,0,1.3,1.81,6.93,6.93,0,0,0,6.27,0A2.22,2.22,0,0,0,300.87,289.55Z" style="fill:#BA68C8"></path><path d="M300.87,289.55V237.46H292v52.09h0a2.2,2.2,0,0,0,1.3,1.81,6.93,6.93,0,0,0,6.27,0A2.22,2.22,0,0,0,300.87,289.55Z" style="fill:#fff;opacity:0.8"></path><path d="M300.87,289.55V237.46H292v52.09h0a2.2,2.2,0,0,0,1.3,1.81,6.93,6.93,0,0,0,6.27,0A2.22,2.22,0,0,0,300.87,289.55Z" style="opacity:0.03"></path><path d="M297.76,292a5.69,5.69,0,0,0,1.81-.62,2.22,2.22,0,0,0,1.3-1.81V237.46h-3.11Z" style="fill:#BA68C8"></path><path d="M297.76,292a5.69,5.69,0,0,0,1.81-.62,2.22,2.22,0,0,0,1.3-1.81V237.46h-3.11Z" style="fill:#fff;opacity:0.8"></path><path d="M297.76,292a5.69,5.69,0,0,0,1.81-.62,2.22,2.22,0,0,0,1.3-1.81V237.46h-3.11Z" style="opacity:0.1"></path><path d="M293.3,239.27a6.93,6.93,0,0,0,6.27,0c1.73-1,1.73-2.62,0-3.62a6.93,6.93,0,0,0-6.27,0C291.56,236.65,291.56,238.27,293.3,239.27Z" style="fill:#BA68C8"></path><path d="M293.3,239.27a6.93,6.93,0,0,0,6.27,0c1.73-1,1.73-2.62,0-3.62a6.93,6.93,0,0,0-6.27,0C291.56,236.65,291.56,238.27,293.3,239.27Z" style="fill:#fff;opacity:0.8"></path></g></g><g id="freepik--Virus--inject-244"><g id="freepik--virus--inject-244"><circle cx="336.59" cy="81.57" r="18.46" transform="translate(-9.62 90.89) rotate(-15.16)" style="fill:#BA68C8"></circle><path d="M348.7,67.93a8.74,8.74,0,0,1-3.44-2.41c.66.3,1.77-.29,3.2-2.12,1.16-1.49,2.23-3,3-4l.32-.46.89.63-.31.46c-.74,1.07-1.76,2.59-2.76,4.19C348.37,66.16,348.19,67.41,348.7,67.93Z" style="fill:#BA68C8"></path><path d="M352.27,60.11a4.83,4.83,0,0,1-.47-.28,5.41,5.41,0,0,1-.43-.35c.15-.2.28-.39.4-.57l.89.63Z" style="opacity:0.2"></path><path d="M354.11,59.78a.79.79,0,0,0,.12-.3.15.15,0,0,0,0-.07v0a.4.4,0,0,0,0-.11s0,0,0-.05,0-.06,0-.09h0a3.11,3.11,0,0,0-2.59-1.81h-.14l-.11,0h0l-.06,0a.8.8,0,0,0-.23.22.67.67,0,0,0-.12.29c-.11.42.32,1.1,1.06,1.62s1.53.69,1.89.44A.66.66,0,0,0,354.11,59.78Z" style="fill:#BA68C8"></path><path d="M353.65,59.14c-.17.24-.72.15-1.23-.2s-.79-.85-.62-1.09.36-.17.66-.08c-.35,0-.49.27-.27.61a2.24,2.24,0,0,0,1,.7c.25.06.43,0,.47-.17A.3.3,0,0,1,353.65,59.14Z" style="opacity:0.30000000000000004"></path><path d="M342.14,64.11a9.78,9.78,0,0,1-4.12-.8c.72,0,1.32-.1,1.83-2.1.42-1.63.49-1.73.72-2.87,0-.18.07-.34.1-.49l1.07.21q0,.22-.09.48c-.22,1.15-.22,1.26-.44,2.93C340.94,63.52,341.46,63.86,342.14,64.11Z" style="fill:#BA68C8"></path><path d="M341.61,58.74a3.48,3.48,0,0,1-.54-.07,4.26,4.26,0,0,1-.54-.14c.05-.24.1-.47.14-.68l1.07.21C341.7,58.27,341.66,58.49,341.61,58.74Z" style="opacity:0.2"></path><path d="M343.53,57.57a.81.81,0,0,0,0-.38.24.24,0,0,0,0-.08s0,0,0,0l-.06-.12a.21.21,0,0,0,0-.06l-.06-.08h0a3.16,3.16,0,0,0-1.74-.86,3.11,3.11,0,0,0-1.93.15h0l-.09,0-.05,0-.1.09,0,0-.05.06a.86.86,0,0,0-.16.35,1.14,1.14,0,0,0,0,.37c.09.51.89,1,1.94,1.24s2,0,2.26-.43A.79.79,0,0,0,343.53,57.57Z" style="fill:#BA68C8"></path><path d="M342.73,57.1c-.07.34-.71.51-1.43.37s-1.26-.53-1.19-.88.3-.36.66-.4c-.38.15-.39.53,0,.78a2.51,2.51,0,0,0,1.46.27c.3-.06.49-.18.43-.42A.37.37,0,0,1,342.73,57.1Z" style="opacity:0.30000000000000004"></path><path d="M334.26,63.44a9,9,0,0,1-3.45.8c.57-.22.87-1.08.61-2.65a13.13,13.13,0,0,0-.21-1.44q0-.19-.09-.36l.9-.21c0,.11.05.23.09.37a9.08,9.08,0,0,0,.45,1.38C333,62.85,333.66,63.49,334.26,63.44Z" style="fill:#BA68C8"></path><path d="M332.15,60.14a2.53,2.53,0,0,1-.44.14,2.57,2.57,0,0,1-.46.07c0-.2-.09-.39-.13-.56l.9-.21C332.06,59.75,332.1,59.94,332.15,60.14Z" style="opacity:0.2"></path><path d="M333,58.81a.83.83,0,0,0-.12-.25l0,0,0,0-.07-.06,0,0-.06,0h0A2.65,2.65,0,0,0,330,59h0a.21.21,0,0,0,0,.06l0,0,0,.09v0l0,.06a.62.62,0,0,0,0,.27.66.66,0,0,0,.11.24c.2.3.87.42,1.62.24s1.29-.57,1.34-.93A.57.57,0,0,0,333,58.81Z" style="fill:#BA68C8"></path><path d="M332.33,58.73c.05.25-.31.54-.83.66s-1,0-1-.23.09-.32.31-.45c-.2.21-.1.46.23.51a1.81,1.81,0,0,0,1-.25c.18-.13.26-.26.16-.4A.36.36,0,0,1,332.33,58.73Z" style="opacity:0.30000000000000004"></path><path d="M327.44,65.71A8.77,8.77,0,0,1,323.93,68c.52-.5.39-1.74-.77-3.71-.94-1.61-1.9-3.14-2.6-4.22-.11-.16-.21-.31-.3-.46l.91-.6.31.46c.71,1.07,1.73,2.55,2.84,4C325.68,65.38,326.77,66,327.44,65.71Z" style="fill:#BA68C8"></path><path d="M321.55,59.61a3.74,3.74,0,0,1-.43.33,2.9,2.9,0,0,1-.48.27l-.38-.58.91-.6C321.29,59.21,321.42,59.4,321.55,59.61Z" style="opacity:0.2"></path><path d="M322.18,57.31a.93.93,0,0,0-.29-.27l-.08,0,0,0-.13,0h-.07l-.11,0h0a3.28,3.28,0,0,0-1.94.63,3.35,3.35,0,0,0-1.35,1.53h0l0,.1s0,0,0,.07a.71.71,0,0,0,0,.14v0a.25.25,0,0,1,0,.08,1.09,1.09,0,0,0,.14.38,1.19,1.19,0,0,0,.28.27c.44.32,1.43.13,2.37-.49s1.51-1.46,1.39-2A1.07,1.07,0,0,0,322.18,57.31Z" style="fill:#BA68C8"></path><path d="M321.23,57.55c.2.31-.16.9-.81,1.33s-1.34.52-1.54.22,0-.5.2-.8c-.17.4.1.69.58.59A2.64,2.64,0,0,0,321,58c.18-.26.23-.49,0-.62A.44.44,0,0,1,321.23,57.55Z" style="opacity:0.30000000000000004"></path><path d="M321.65,71a15,15,0,0,1-1.94,3.5c.27-.63,0-1.38-1-2.06-.8-.55-1.6-1-2.19-1.37l-.25-.14.51-.91a2.8,2.8,0,0,0,.25.14c.59.32,1.43.74,2.32,1.13C320.49,71.72,321.26,71.52,321.65,71Z" style="fill:#BA68C8"></path><path d="M317.21,70.2c-.07.15-.14.31-.23.47a3.7,3.7,0,0,1-.28.44l-.39-.22.51-.91Z" style="opacity:0.2"></path><path d="M316.79,68.59a.92.92,0,0,0-.27-.08h-.09l-.1,0h-.05l-.07,0h0a2.37,2.37,0,0,0-1,1,2.31,2.31,0,0,0-.34,1.42h0s0,0,0,.08,0,0,0,0a.36.36,0,0,0,0,.09v0l0,0a.55.55,0,0,0,.21.19.7.7,0,0,0,.27.08c.38.06.95-.39,1.34-1.1s.46-1.42.21-1.71A.55.55,0,0,0,316.79,68.59Z" style="fill:#BA68C8"></path><path d="M316.27,69.06c.23.13.2.62-.07,1.11s-.67.78-.9.65-.19-.3-.14-.57c0,.31.29.4.57.18a2,2,0,0,0,.53-1c0-.23,0-.39-.2-.4A.3.3,0,0,1,316.27,69.06Z" style="opacity:0.30000000000000004"></path><path d="M318.65,77.88a8.93,8.93,0,0,1-.36,4.18c-.07-.72-1.12-1.39-3.37-1.7-1.84-.26-3.62-.45-4.89-.57l-.55-.05.1-1.08.54,0c1.28.1,3.06.22,4.92.28C317.31,79.05,318.45,78.58,318.65,77.88Z" style="fill:#BA68C8"></path><path d="M310.26,78.71a3.37,3.37,0,0,1,0,.55,4.51,4.51,0,0,1-.09.55l-.69-.07.1-1.08Z" style="opacity:0.2"></path><path d="M308.75,76.57a1.21,1.21,0,0,0-.43.06l-.09,0h0l-.13.09-.06,0-.08.08h0a3.67,3.67,0,0,0-.76,2.09,3.55,3.55,0,0,0,.4,2.2h0a.36.36,0,0,0,.07.1l.05.06.11.1,0,0,.08,0a.94.94,0,0,0,.41.13,1,1,0,0,0,.42-.05c.58-.16,1.09-1.14,1.19-2.37s-.23-2.28-.76-2.53A1.16,1.16,0,0,0,308.75,76.57Z" style="fill:#BA68C8"></path><path d="M308.31,77.55c.4,0,.67.75.6,1.6s-.46,1.5-.87,1.46c-.24,0-.44-.3-.54-.71.23.42.66.39.9-.1a2.94,2.94,0,0,0,.13-1.71c-.11-.33-.27-.53-.53-.43A.42.42,0,0,1,308.31,77.55Z" style="opacity:0.30000000000000004"></path><path d="M318.71,85.4a13.91,13.91,0,0,1,1.44,4.17c-.33-.68-1.26-1-2.81-.59-1.26.32-2.46.7-3.32,1l-.36.12L313.29,89l.36-.12c.85-.31,2-.75,3.22-1.28C318.33,87,318.87,86.14,318.71,85.4Z" style="fill:#BA68C8"></path><path d="M313.78,88.83c.08.17.15.34.22.53a4.33,4.33,0,0,1,.16.56l-.5.17L313.29,89Z" style="opacity:0.2"></path><path d="M312.07,88a.88.88,0,0,0-.28.17l0,0,0,0a.36.36,0,0,0-.07.1s0,0,0,0l0,.08h0a3.06,3.06,0,0,0,1,3h0l.07,0,.06,0,.1,0h.1a.72.72,0,0,0,.32,0,.63.63,0,0,0,.26-.16c.34-.27.39-1.08.09-1.93S312.81,88,312.38,88A.8.8,0,0,0,312.07,88Z" style="fill:#BA68C8"></path><path d="M312.06,88.81c.28-.1.67.3.88.89s.14,1.14-.14,1.24-.39-.07-.58-.32c.28.22.56.07.57-.33a2.15,2.15,0,0,0-.42-1.19c-.17-.19-.33-.27-.48-.13A.29.29,0,0,1,312.06,88.81Z" style="opacity:0.30000000000000004"></path><path d="M322.17,92.85a28.44,28.44,0,0,1,2.2,2.35c-.32-.3-.87-.59-1.26-.38a5,5,0,0,0-.83.58l-.08.07-.46-.5.08-.07a3.37,3.37,0,0,0,.59-.8A1.11,1.11,0,0,0,322.17,92.85Z" style="fill:#BA68C8"></path><path d="M321.92,94.8l.25.24.22.26-.19.17-.46-.5Z" style="opacity:0.2"></path><path d="M320.44,94.68a.52.52,0,0,0-.14.2.14.14,0,0,0,0,.06v0a.19.19,0,0,0,0,.08s0,0,0,0a.13.13,0,0,0,0,.06h0a2,2,0,0,0,.59,1.11,2.07,2.07,0,0,0,1.07.67h.22l.05,0a.53.53,0,0,0,.22-.12.63.63,0,0,0,.13-.2c.15-.3-.07-.89-.54-1.39s-1.05-.77-1.36-.64A.47.47,0,0,0,320.44,94.68Z" style="fill:#BA68C8"></path><path d="M320.68,95.24c.17-.16.57,0,.9.35s.46.76.29.92-.3.07-.51-.05c.26.07.41-.12.3-.41a1.75,1.75,0,0,0-.67-.7c-.18-.08-.32-.09-.38.06A.22.22,0,0,1,320.68,95.24Z" style="opacity:0.30000000000000004"></path><path d="M327.86,97.7a10.1,10.1,0,0,1,3.9,1.57c-.71-.16-1.32-.17-2.17,1.65-.7,1.49-.8,1.56-1.22,2.62-.07.15-.13.3-.19.44l-1-.4q.09-.21.18-.45c.41-1.06.43-1.17.95-2.72C328.93,98.5,328.48,98.08,327.86,97.7Z" style="fill:#BA68C8"></path><path d="M327.42,102.94a4,4,0,0,1,.53.16,3.19,3.19,0,0,1,.49.24l-.26.64-1-.4C327.25,103.38,327.34,103.16,327.42,102.94Z" style="opacity:0.2"></path><path d="M325.32,103.72a1,1,0,0,0-.07.37s0,.06,0,.08,0,0,0,0a.79.79,0,0,0,0,.13l0,.06,0,.09h0a3,3,0,0,0,1.54,1.17,3.14,3.14,0,0,0,1.93.23h0l.1,0,.06,0,.11-.06,0,0s.05,0,.06,0a.87.87,0,0,0,.28-.68c0-.52-.67-1.19-1.67-1.59s-1.95-.38-2.3,0A.92.92,0,0,0,325.32,103.72Z" style="fill:#BA68C8"></path><path d="M326,104.33c.14-.33.8-.37,1.48-.09s1.14.76,1,1.08-.37.3-.74.27c.41-.07.49-.44.15-.77a2.62,2.62,0,0,0-1.39-.54c-.3,0-.51.09-.49.33A.39.39,0,0,1,326,104.33Z" style="opacity:0.30000000000000004"></path><path d="M335.53,99.77a9.11,9.11,0,0,1,3.54-.13c-.6.11-1.05.89-1.09,2.45a9.3,9.3,0,0,0-.07,1.43c0,.13,0,.25,0,.37l-.92,0c0-.11,0-.24,0-.37a9.55,9.55,0,0,0-.18-1.42C336.65,100.58,336.14,99.84,335.53,99.77Z" style="fill:#BA68C8"></path><path d="M337,103.34a3.24,3.24,0,0,1,.46,0,2.3,2.3,0,0,1,.46,0c0,.2,0,.4,0,.58l-.92,0C337,103.74,337,103.55,337,103.34Z" style="opacity:0.2"></path><path d="M335.91,104.5a.59.59,0,0,0,.07.26s0,0,0,0v0l.06.07,0,0,.06,0h0a2.31,2.31,0,0,0,1.35.31,2.19,2.19,0,0,0,1.31-.42h0l.06,0,0,0a.35.35,0,0,0,.05-.08v0l0-.06a.75.75,0,0,0,.05-.26.77.77,0,0,0-.07-.26c-.14-.34-.78-.57-1.54-.54s-1.38.31-1.5.66A.57.57,0,0,0,335.91,104.5Z" style="fill:#BA68C8"></path><path d="M336.54,104.69c0-.25.41-.46.93-.48s1,.16,1,.41-.15.3-.4.39c.25-.17.19-.43-.13-.54a1.78,1.78,0,0,0-1.06,0c-.19.09-.3.2-.22.35A.23.23,0,0,1,336.54,104.69Z" style="opacity:0.30000000000000004"></path><path d="M342.79,98.8A9,9,0,0,1,346.56,97c-.59.43-.61,1.67.28,3.75.72,1.71,1.47,3.32,2,4.48q.13.25.24.48l-1,.49c-.07-.15-.15-.32-.24-.49-.57-1.15-1.39-2.73-2.3-4.34C344.48,99.34,343.49,98.6,342.79,98.8Z" style="fill:#BA68C8"></path><path d="M347.82,105.53a5.5,5.5,0,0,1,.48-.28,3.59,3.59,0,0,1,.51-.2c.1.22.21.42.3.61l-1,.49C348,106,347.93,105.75,347.82,105.53Z" style="opacity:0.2"></path><path d="M346.92,107.73a1,1,0,0,0,.25.31l.07,0,0,0,.12.06.07,0,.11,0h0a3.89,3.89,0,0,0,3.53-1.74h0a.69.69,0,0,0,0-.1.19.19,0,0,0,0-.07.35.35,0,0,0,0-.14v0a.14.14,0,0,0,0-.09.92.92,0,0,0-.09-.39.89.89,0,0,0-.24-.3c-.4-.38-1.4-.31-2.41.18s-1.68,1.26-1.62,1.8A.88.88,0,0,0,346.92,107.73Z" style="fill:#BA68C8"></path><path d="M347.89,107.61c-.16-.33.27-.88,1-1.22s1.39-.35,1.55,0,0,.5-.3.76c.23-.37,0-.69-.5-.65a2.69,2.69,0,0,0-1.4.7c-.21.25-.29.46-.09.62A.37.37,0,0,1,347.89,107.61Z" style="opacity:0.30000000000000004"></path><path d="M350,94.12a15.21,15.21,0,0,1,2.37-3.22c-.35.59-.21,1.37.67,2.16.72.64,1.44,1.22,2,1.62l.22.17-.61.84-.23-.17c-.54-.39-1.31-.91-2.14-1.4C351.27,93.52,350.49,93.62,350,94.12Z" style="fill:#BA68C8"></path><path d="M354.3,95.42a3.49,3.49,0,0,1,.28-.43,4.91,4.91,0,0,1,.33-.41l.36.27-.61.84Z" style="opacity:0.2"></path><path d="M354.5,97.07a.66.66,0,0,0,.26.11h.09a.17.17,0,0,0,.1,0H355l.08,0h0a2.41,2.41,0,0,0,1.14-.91,2.27,2.27,0,0,0,.52-1.36h0v-.08s0,0,0,0l0-.09v0l0-.05a.64.64,0,0,0-.44-.33c-.37-.11-1,.27-1.47.91s-.64,1.35-.43,1.68A.6.6,0,0,0,354.5,97.07Z" style="fill:#BA68C8"></path><path d="M355.08,96.67c-.21-.15-.12-.64.21-1.09s.77-.68,1-.53.15.32.06.59c0-.32-.23-.44-.53-.26a1.94,1.94,0,0,0-.66.92c-.05.22,0,.38.15.42A.3.3,0,0,1,355.08,96.67Z" style="opacity:0.30000000000000004"></path><path d="M353.6,88.38a7.08,7.08,0,0,1,1.15-4c0,.73,1.16,1.66,3.89,2.56.65.22,2.08.84,3.64,1.29l.66.19-.29,1.05-.67-.18c-1.57-.44-3.26-.9-3.72-1C355.46,87.57,354,87.74,353.6,88.38Z" style="fill:#BA68C8"></path><path d="M362,89.25a3.7,3.7,0,0,1,.3-1.06l.66.19-.29,1.05Z" style="opacity:0.2"></path><path d="M363.07,91.63a.9.9,0,0,0,.43,0l.1,0h0l.14-.06.06,0,.11-.07h0a3.63,3.63,0,0,0,1.15-1.91,3.59,3.59,0,0,0,0-2.23h0a1.17,1.17,0,0,0-.05-.11.25.25,0,0,0,0-.07l-.09-.12,0,0-.07-.06a1.09,1.09,0,0,0-.38-.21,1.06,1.06,0,0,0-.43,0c-.59,0-1.28.92-1.61,2.1s-.21,2.28.27,2.63A1,1,0,0,0,363.07,91.63Z" style="fill:#BA68C8"></path><path d="M363.68,90.76c-.38-.11-.51-.86-.28-1.68s.73-1.39,1.12-1.28.39.38.4.81c-.14-.46-.57-.51-.9-.08a2.94,2.94,0,0,0-.45,1.66c0,.34.16.57.44.52A.45.45,0,0,1,363.68,90.76Z" style="opacity:0.30000000000000004"></path><path d="M354.88,81.17a10.67,10.67,0,0,1-.63-4.37c.22.73,1.31,1.18,3.38,1,1.69-.14,1.52-.15,2.68-.31l.49-.06.16,1.13-.49.07c-1.16.18-1,.27-2.64.61C355.8,79.67,354.89,80.41,354.88,81.17Z" style="fill:#BA68C8"></path><path d="M360.44,78.65c0-.18-.08-.37-.11-.57s0-.39-.05-.57l.52-.07.16,1.13Z" style="opacity:0.2"></path><path d="M362,79.76a.57.57,0,0,0,.29-.11l.06,0,0,0,.07-.08,0,0a.35.35,0,0,1,0-.08h0a3.11,3.11,0,0,0-.45-3.12h0l-.07-.06,0,0-.1-.06h0l-.07,0a.68.68,0,0,0-.32,0,.77.77,0,0,0-.29.1c-.38.21-.58,1-.45,1.89s.54,1.59,1,1.68A.64.64,0,0,0,362,79.76Z" style="fill:#BA68C8"></path><path d="M362.13,79c-.29.05-.6-.42-.69-1s.07-1.15.37-1.19.37.14.5.42c-.23-.26-.53-.16-.62.22a2.25,2.25,0,0,0,.19,1.25c.13.21.28.33.45.22A.33.33,0,0,1,362.13,79Z" style="opacity:0.30000000000000004"></path><path d="M353,73.12a28.11,28.11,0,0,1-1.72-2.73c.26.36.75.75,1.18.61a4.52,4.52,0,0,0,.92-.41l.09,0,.36.57-.09.06a3.05,3.05,0,0,0-.73.67A1.13,1.13,0,0,0,353,73.12Z" style="fill:#BA68C8"></path><path d="M353.58,71.25a2.75,2.75,0,0,1-.19-.28,3.18,3.18,0,0,1-.17-.3l.21-.13.36.57Z" style="opacity:0.2"></path><path d="M355,71.64a.46.46,0,0,0,.17-.17l0,0v0l0-.08a.06.06,0,0,0,0,0,.15.15,0,0,0,0-.07h0A2.41,2.41,0,0,0,354,69.15h0l-.06,0h-.21a.49.49,0,0,0-.23.08.55.55,0,0,0-.17.17c-.21.27-.1.88.27,1.47s.88,1,1.21.89A.65.65,0,0,0,355,71.64Z" style="fill:#BA68C8"></path><path d="M354.88,71.05c-.19.12-.56-.11-.81-.51s-.31-.84-.11-1,.3,0,.49.14c-.25-.12-.43,0-.38.35a1.6,1.6,0,0,0,.53.81c.16.12.3.15.38,0A.21.21,0,0,1,354.88,71.05Z" style="opacity:0.30000000000000004"></path><path d="M347.27,96.62c-4.54,3-18.46,4-25.12-7.61s3.2-22.3,7.35-24.48a18.46,18.46,0,1,0,17.77,32.09Z" style="opacity:0.1"></path><path d="M325.53,81.57a2.28,2.28,0,0,1-1.45,2.8c-1,.17-2.05-.8-2.29-2.17a2.28,2.28,0,0,1,1.45-2.8C324.27,79.23,325.3,80.2,325.53,81.57Z" style="fill:#BA68C8"></path><path d="M325.53,81.57a2.28,2.28,0,0,1-1.45,2.8c-1,.17-2.05-.8-2.29-2.17a2.28,2.28,0,0,1,1.45-2.8C324.27,79.23,325.3,80.2,325.53,81.57Z" style="opacity:0.15"></path><path d="M322.76,80.32c.37-.54,1.42-.14,1.72,1.11a2.19,2.19,0,0,1-.59,2.3.79.79,0,0,1-1.06-.37c.34.27.79.17,1.05-.38a2.46,2.46,0,0,0-.18-2.26C323.42,80.31,323,80.17,322.76,80.32Z" style="opacity:0.15"></path><path d="M347.44,85.27c.16-1.38,1.14-2.4,2.18-2.28s1.75,1.34,1.59,2.72S350.07,88.11,349,88,347.28,86.65,347.44,85.27Z" style="fill:#BA68C8"></path><path d="M347.44,85.27c.16-1.38,1.14-2.4,2.18-2.28s1.75,1.34,1.59,2.72S350.07,88.11,349,88,347.28,86.65,347.44,85.27Z" style="opacity:0.15"></path><path d="M349.75,87.24c-.51.41-1.4-.26-1.34-1.54.06-1,.62-1.93,1.21-2a.79.79,0,0,1,.91.65c-.25-.35-.7-.38-1.11.08A2.45,2.45,0,0,0,349,86.6C349.11,87.07,349.44,87.31,349.75,87.24Z" style="opacity:0.15"></path><path d="M335.77,75.81a1.91,1.91,0,0,1-2.48-.93c-.25-.84.46-1.79,1.58-2.12a1.91,1.91,0,0,1,2.48.92C337.6,74.52,336.89,75.48,335.77,75.81Z" style="fill:#BA68C8"></path><path d="M335.77,75.81a1.91,1.91,0,0,1-2.48-.93c-.25-.84.46-1.79,1.58-2.12a1.91,1.91,0,0,1,2.48.92C337.6,74.52,336.89,75.48,335.77,75.81Z" style="opacity:0.15"></path><path d="M336.53,73.37c.49.26.27,1.17-.75,1.55a1.81,1.81,0,0,1-2-.26.66.66,0,0,1,.2-.92c-.19.31-.07.67.42.83a2.06,2.06,0,0,0,1.87-.37C336.61,73.92,336.68,73.59,336.53,73.37Z" style="opacity:0.15"></path><path d="M334.12,86.15c1.24.63,1.87,1.89,1.39,2.82s-1.85,1.19-3.1.56-1.86-1.89-1.39-2.82S332.88,85.53,334.12,86.15Z" style="fill:#BA68C8"></path><path d="M334.12,86.15c1.24.63,1.87,1.89,1.39,2.82s-1.85,1.19-3.1.56-1.86-1.89-1.39-2.82S332.88,85.53,334.12,86.15Z" style="opacity:0.15"></path><path d="M331.47,87.65c-.21-.63.73-1.24,1.91-.73.94.39,1.6,1.24,1.51,1.83a.78.78,0,0,1-.92.63c.41-.11.6-.52.3-1.06a2.44,2.44,0,0,0-1.92-1.2C331.85,87.1,331.52,87.33,331.47,87.65Z" style="opacity:0.15"></path><path d="M332.93,70.43A2.28,2.28,0,0,1,330,69.18c-.24-1,.66-2.11,2-2.43s2.65.24,2.89,1.26S334.29,70.11,332.93,70.43Z" style="fill:#BA68C8"></path><path d="M332.93,70.43A2.28,2.28,0,0,1,330,69.18c-.24-1,.66-2.11,2-2.43s2.65.24,2.89,1.26S334.29,70.11,332.93,70.43Z" style="opacity:0.15"></path><path d="M334,67.58c.56.35.24,1.42-1,1.79a2.15,2.15,0,0,1-2.33-.42.8.8,0,0,1,.29-1.09c-.24.36-.12.8.46,1a2.46,2.46,0,0,0,2.24-.33C334.05,68.24,334.16,67.85,334,67.58Z" style="opacity:0.15"></path><path d="M341.3,85a1.75,1.75,0,1,1-.91,2.64A2,2,0,0,1,341.3,85Z" style="fill:#BA68C8"></path><path d="M341.3,85a1.75,1.75,0,1,1-.91,2.64A2,2,0,0,1,341.3,85Z" style="opacity:0.15"></path><path d="M341.31,87.65c-.57-.11-.64-1.09.27-1.79a1.93,1.93,0,0,1,2.06-.37.69.69,0,0,1,.09,1c.09-.37-.14-.69-.69-.7a2.17,2.17,0,0,0-1.75,1C341.06,87.12,341.09,87.48,341.31,87.65Z" style="opacity:0.15"></path><path d="M346.12,77.3c-1.06-1.61-.94-3.56.26-4.36s3.06-.15,4.12,1.46.95,3.56-.26,4.36S347.18,78.9,346.12,77.3Z" style="fill:#BA68C8"></path><path d="M346.12,77.3c-1.06-1.61-.94-3.56.26-4.36s3.06-.15,4.12,1.46.95,3.56-.26,4.36S347.18,78.9,346.12,77.3Z" style="opacity:0.15"></path><path d="M350.33,77.32c-.17.89-1.72,1-2.8-.44-.85-1.13-1.06-2.59-.55-3.24a1.09,1.09,0,0,1,1.55-.13c-.58-.14-1.09.22-1.1,1.07a3.34,3.34,0,0,0,1.48,2.76C349.5,77.71,350.06,77.67,350.33,77.32Z" style="opacity:0.15"></path><path d="M327.51,89.74a1.48,1.48,0,1,1-2.34-.31A1.7,1.7,0,0,1,327.51,89.74Z" style="fill:#BA68C8"></path><path d="M327.51,89.74a1.48,1.48,0,1,1-2.34-.31A1.7,1.7,0,0,1,327.51,89.74Z" style="opacity:0.15"></path><path d="M325.28,90.2c0-.49.8-.71,1.53-.09a1.62,1.62,0,0,1,.65,1.65.58.58,0,0,1-.8.24c.32,0,.55-.24.46-.69A1.79,1.79,0,0,0,326,90,.58.58,0,0,0,325.28,90.2Z" style="opacity:0.15"></path><path d="M335.91,92.8c1.41.12,2.48,1.08,2.38,2.14s-1.31,1.82-2.72,1.7-2.47-1.09-2.38-2.15S334.5,92.67,335.91,92.8Z" style="fill:#BA68C8"></path><path d="M335.91,92.8c1.41.12,2.48,1.08,2.38,2.14s-1.31,1.82-2.72,1.7-2.47-1.09-2.38-2.15S334.5,92.67,335.91,92.8Z" style="opacity:0.15"></path><path d="M334,95.2c-.43-.51.22-1.44,1.53-1.4,1,0,2,.57,2.12,1.16a.81.81,0,0,1-.64,1c.35-.27.37-.73-.11-1.12a2.47,2.47,0,0,0-2.27-.41C334.13,94.55,333.9,94.89,334,95.2Z" style="opacity:0.15"></path><path d="M343.79,92a1.47,1.47,0,0,1,2-.1,1.71,1.71,0,0,1-2.52,2.1A1.48,1.48,0,0,1,343.79,92Z" style="fill:#BA68C8"></path><path d="M343.79,92a1.47,1.47,0,0,1,2-.1,1.71,1.71,0,0,1-2.52,2.1A1.48,1.48,0,0,1,343.79,92Z" style="opacity:0.15"></path><path d="M344,94c-.43,0-.55-.76.06-1.33a1.42,1.42,0,0,1,1.49-.43.52.52,0,0,1,.14.72c0-.28-.16-.5-.56-.46a1.57,1.57,0,0,0-1.21.84C343.77,93.58,343.82,93.84,344,94Z" style="opacity:0.15"></path><path d="M340.83,69.48a1.28,1.28,0,1,1,.72-2.36c.86.26,1.41,1,1.21,1.66A1.48,1.48,0,0,1,340.83,69.48Z" style="fill:#BA68C8"></path><path d="M340.83,69.48a1.28,1.28,0,1,1,.72-2.36c.86.26,1.41,1,1.21,1.66A1.48,1.48,0,0,1,340.83,69.48Z" style="opacity:0.15"></path><path d="M342.36,68.23c.21.38-.33.87-1.15.68-.64-.15-1.16-.62-1.17-1a.51.51,0,0,1,.53-.51c-.26.12-.33.4-.08.72a1.6,1.6,0,0,0,1.37.55C342.18,68.62,342.37,68.43,342.36,68.23Z" style="opacity:0.15"></path><path d="M331,79.54a1.48,1.48,0,0,1-1.14,1.71c-.69,0-1.28-.67-1.33-1.57A1.48,1.48,0,0,1,329.66,78C330.34,77.93,330.93,78.64,331,79.54Z" style="fill:#BA68C8"></path><path d="M331,79.54a1.48,1.48,0,0,1-1.14,1.71c-.69,0-1.28-.67-1.33-1.57A1.48,1.48,0,0,1,329.66,78C330.34,77.93,330.93,78.64,331,79.54Z" style="opacity:0.15"></path><path d="M329.27,78.53c.29-.32.94,0,1,.84a1.43,1.43,0,0,1-.55,1.45.51.51,0,0,1-.66-.32c.2.2.5.17.7-.17a1.56,1.56,0,0,0,.06-1.47C329.7,78.57,329.47,78.45,329.27,78.53Z" style="opacity:0.15"></path><path d="M341.8,78.29a1.28,1.28,0,1,1,2,.6A1.47,1.47,0,0,1,341.8,78.29Z" style="fill:#BA68C8"></path><path d="M341.8,78.29a1.28,1.28,0,1,1,2,.6A1.47,1.47,0,0,1,341.8,78.29Z" style="opacity:0.15"></path><path d="M343.78,78.22c-.07.42-.79.49-1.33-.15a1.45,1.45,0,0,1-.33-1.51.52.52,0,0,1,.73-.1c-.28,0-.51.13-.5.53a1.6,1.6,0,0,0,.76,1.27A.51.51,0,0,0,343.78,78.22Z" style="opacity:0.15"></path><path d="M326.26,73.31a1.49,1.49,0,0,1-2,.6,1.7,1.7,0,1,1,2-.6Z" style="fill:#BA68C8"></path><path d="M326.26,73.31a1.49,1.49,0,0,1-2,.6,1.7,1.7,0,1,1,2-.6Z" style="opacity:0.15"></path><path d="M325.57,71.45c.43-.07.72.6.27,1.31-.36.56-1,.89-1.34.77a.52.52,0,0,1-.31-.66c0,.28.28.44.66.31a1.62,1.62,0,0,0,1-1.11C325.88,71.75,325.77,71.51,325.57,71.45Z" style="opacity:0.15"></path><path d="M338.55,83.23a2.51,2.51,0,1,1,.67-3.22A2.34,2.34,0,0,1,338.55,83.23Z" style="fill:#BA68C8"></path><path d="M338.55,83.23a2.51,2.51,0,1,1,.67-3.22A2.34,2.34,0,0,1,338.55,83.23Z" style="opacity:0.15"></path><path d="M337.14,79.33c-.78,0-1.49.8-1.26,2s1.81,2.06,2.58,1.27a2.24,2.24,0,0,1-1.87-1.29A1.41,1.41,0,0,1,337.14,79.33Z" style="opacity:0.15"></path></g><g id="freepik--Line--inject-244"><path d="M246,176.21a1,1,0,0,1-.72-1.74l1.09-1.08a1,1,0,1,1,1.43,1.44l-1.08,1.08A1,1,0,0,1,246,176.21Z" style="fill:#e0e0e0"></path><path d="M251.18,171a1,1,0,0,1-.72-1.74l2.06-2a1,1,0,0,1,1.44,1.44l-2.06,2A1,1,0,0,1,251.18,171Zm6.17-6.16a1,1,0,0,1-.71-1.74l2.05-2a1,1,0,0,1,1.44,1.44l-2.06,2.06A1,1,0,0,1,257.35,164.87Zm6.18-6.15a1,1,0,0,1-.72-1.74l2.06-2a1,1,0,1,1,1.43,1.44l-2.05,2A1,1,0,0,1,263.53,158.72Zm6.17-6.16a1,1,0,0,1-.72-1.74l2.06-2a1,1,0,0,1,1.44,1.45l-2.06,2.05A1,1,0,0,1,269.7,152.56Zm6.17-6.15a1,1,0,0,1-.71-1.74l2-2a1,1,0,0,1,1.44,1.44l-2.06,2.05A1,1,0,0,1,275.87,146.41Zm6.18-6.15a1,1,0,0,1-.72-1.74l2.06-2.06a1,1,0,0,1,1.44,1.45L282.77,140A1,1,0,0,1,282.05,140.26Zm6.17-6.16a1,1,0,0,1-.72-1.74l2.06-2.05a1,1,0,0,1,1.44,1.44l-2.06,2.05A1,1,0,0,1,288.22,134.1ZM294.4,128a1,1,0,0,1-.72-1.74l2.05-2a1,1,0,1,1,1.44,1.44l-2.06,2.05A1,1,0,0,1,294.4,128Zm6.17-6.16a1,1,0,0,1-.72-1.74l2.06-2a1,1,0,0,1,1.44,0,1,1,0,0,1,0,1.44l-2.06,2A1,1,0,0,1,300.57,121.79Z" style="fill:#e0e0e0"></path><path d="M306.74,115.64a1,1,0,0,1-.72-1.74l1.08-1.08a1,1,0,1,1,1.44,1.44l-1.08,1.08A1,1,0,0,1,306.74,115.64Z" style="fill:#e0e0e0"></path></g><g id="freepik--prohibition-sign--inject-244"><path d="M336.23,121.63a40.52,40.52,0,0,1-5.8-.42,40,40,0,1,1,5.8.42ZM336.1,44.3a37,37,0,1,0,29.71,14.82A36.89,36.89,0,0,0,336.1,44.3Z" style="fill:#455a64"></path><rect x="333.51" y="43.98" width="3.21" height="77.02" transform="translate(34 251.12) rotate(-43.08)" style="fill:#455a64"></rect></g></g></svg>