<svg xmlns="http://www.w3.org/2000/svg" viewBox="0 0 500 500"><g id="freepik--Floor--inject-124"><g id="freepik--Shrubbery--inject-124"><g id="freepik--shrubbery--inject-124"><g id="freepik--shrubbery--inject-124"><path d="M490.28,266.71c6.58-4.69,6.53-16.85-1.83-19.46,5.77-5.78,4-18.24-4.34-19,2.05-5.11,1-12.11-5.53-13.4,2.08-6.26-3.72-10.61-9.53-8.36-.25-6.6-9.61-7-11.72-2.33.12-2.56-3.71-7.3-6.17-7.31,4.25-3.32,3.07-10-.57-10.86,5-3.75,2.3-12.32-3.61-12.24,4-6.25-4.49-12.77-9.75-10.85,3-7-10.92-12.61-13.93-5.17-5.32-8.76-23.57-3.6-21.13,7.79a4.34,4.34,0,0,0-3.23,7.74,6.3,6.3,0,0,0-8.57,1.87,3.36,3.36,0,0,0-2.8-4.4c5.78-2.35,1.73-10.94-3.61-10.61,5.05-6.48-5.19-14-10.63-8.87-2.53-6-11.57-4.69-11,2.28-2-3.63-5.94-3.38-9.18-1.43-4.46,2.68-3.86,7.45-1.41,11.32-1.85-2.21-7.5-3.43-8.36.23a4.42,4.42,0,0,0-6.38-.73c-1.67-6-12.41-6.78-14.44.61a5,5,0,0,0-4.82.07c-1.78,1-3.33,3.54-2.81,5.64-1.66-2-6.08-1.07-8.09-.2-3.56,1.54-3.26,4.32-4.3,7.39-2.38-1.44-4.23-1-6.53.59a7.46,7.46,0,0,0,0-3.39c-.42-1.54-2.07-2.7-3.44-3.35a9.85,9.85,0,0,0-6.22-.83,5.44,5.44,0,0,0-3.16,2.12c-2.83-4.71-15.39-1.36-11.05,4.39-2.73-.61-7,1.92-8.17,4.32-1.7,3.45.52,5.92,3,8-2.18-.06-3.19,2.09-3.42,4.41a5.12,5.12,0,0,0-1.72-2.11c-2.18-1.4-7.37-.17-7.21,3-.61-3.46-2.92-5.76-8.19-5.4-5.81.39-7.06,4.46-6.65,7.56-.58-2.06-1.85-5.61-4-7.17s-7.5-1.86-9.44.51c-.24-.15.27.11,0,0a12.41,12.41,0,0,0-2.12-7.22c-1.81-2.42-6.34-4.83-9.17-2.78,1.08-4.24.38-9.69-4.92-10.57-5.1-.85-12,6.26-13.23,10.81-.61-3.18-1.55-6.49-5-7.63a8,8,0,0,0-8.06,2.2c.53-2.64,1.86-5.64.43-8.18a5.06,5.06,0,0,0-6.87-2.18c-2-7.39-12.77-6.61-14.44-.61a4.42,4.42,0,0,0-6.38.73c-.86-3.66-6.51-2.44-8.36-.23,2.45-3.87,3-8.64-1.41-11.32-3.24-2-7.18-2.2-9.18,1.43.59-7-8.45-8.23-11-2.28-5.44-5.14-15.68,2.39-10.63,8.87-5.34-.33-9.39,8.26-3.61,10.61a3.36,3.36,0,0,0-2.8,4.4,6.3,6.3,0,0,0-8.57-1.87,4.34,4.34,0,0,0-3.23-7.74C100.27,154.12,82,149,76.7,157.72c-3-7.44-16.91-1.85-13.93,5.17-5.26-1.92-13.72,4.6-9.75,10.85-5.91-.08-8.56,8.49-3.61,12.24-3.64.89-4.82,7.54-.57,10.86-2.46,0-6.29,4.75-6.17,7.31-2.11-4.65-11.47-4.27-11.72,2.33-5.81-2.25-11.61,2.1-9.53,8.36-6.57,1.29-7.58,8.29-5.53,13.4-8.37.77-10.11,13.23-4.34,19C3.19,249.86,3.14,262,9.72,266.71c-4.36,2.08-4.79,12.2,2.31,15-4.62,4.13-4,13.07,3.21,13.68-3.66,7.55,6.56,13,13.31,8.9,1.64-.79,1.32-1,3-.12H468.43c1.7-.84,1.38-.67,3,.12,6.75,4.07,17-1.35,13.31-8.9,7.18-.61,7.83-9.55,3.21-13.68C495.07,278.91,494.64,268.79,490.28,266.71Z" style="fill:#ebebeb"></path><path d="M71.22,177.62a6.66,6.66,0,0,1,10.7.92,6.69,6.69,0,0,1,10.84,3.85A8,8,0,0,0,79.51,184a5.58,5.58,0,0,1,0-1.15,6.67,6.67,0,0,1,.9-2.58,5.92,5.92,0,0,0-.69-.73,8,8,0,0,0-9.22-1A5.9,5.9,0,0,1,71.22,177.62Z" style="fill:#e0e0e0"></path><path d="M140.91,166.07a5.17,5.17,0,0,0-7.3-.43,4.93,4.93,0,0,0-1,1.15,5.16,5.16,0,0,0-8.37,3,6.24,6.24,0,0,1,3.92-2.15,6.15,6.15,0,0,1,6.31,3.37,5.22,5.22,0,0,0,0-.88,5.42,5.42,0,0,0-.7-2,6.92,6.92,0,0,1,.53-.56,6.13,6.13,0,0,1,7.11-.74A4,4,0,0,0,140.91,166.07Z" style="fill:#e0e0e0"></path><path d="M11.55,247.25c-5.77-5.78-4-18.24,4.34-19-2.05-5.11-1-12.11,5.53-13.4-2.08-6.26,3.72-10.61,9.53-8.36.25-6.6,9.61-7,11.72-2.33-.12-2.56,3.71-7.3,6.17-7.31-4.25-3.32-3.07-10,.57-10.86-4.95-3.75-2.3-12.32,3.61-12.24-3.15-5,1.54-10.09,6.23-11-1.7,1.89-3.25,4.42-2,7,1.11,2.33,4.12,2.74,6.12,3.72-4.74,1.6-6.92,6.36-3.39,10.53-4.83.61-5.45,7-3.52,9.64,1.19-1,3.65-1.26,5.45-.92,2.43.46,3.73,1.68,5.91,4.12-4.3-3.32-8.66,3-5.93,6.77-2.18-.93-5.75-1.18-7.73,2.27a5.78,5.78,0,0,0,1.31,6.91c-1.71.66-2.22,3.59-1.78,5.2a5.45,5.45,0,0,0,4.47,4.35c-6.29,1.69-.26,9.15,2,11.42-5-.43-7,3.08-8.49,6.94.42-1.09-2.88-3.11-3.59-3.43a9.69,9.69,0,0,0-5.26-.72c-3.63.49-6.49,3-6.31,6.87,0-.94-3.64-1.47-5.74-.19a8.21,8.21,0,0,0-4,6.3c-.42,3.44,2.81,6.32,5.63,7.87-2.81,2-5.66,3.51-6.56,7.27-1.1,4.58,2.71,6.23,5.18,9-2.74,1.81-5.47,3-6.42,6.62-1.16,4.44,2.47,6.45,5.29,8.88-7.1.51-10.08,9.7-6.5,15a8,8,0,0,0,1.25,1.43c-6.06.65-12.28-4.08-9.3-10.23-7.18-.61-7.83-9.55-3.21-13.68-7.1-2.79-6.67-12.91-2.31-15C3.14,262,3.19,249.86,11.55,247.25Z" style="fill:#e0e0e0"></path><path d="M430,171.28a6.7,6.7,0,0,0-9.46-.56,6.42,6.42,0,0,0-1.23,1.49,6.69,6.69,0,0,0-10.85,3.84,8,8,0,0,1,13.25,1.58,5.49,5.49,0,0,0,0-1.14,6.66,6.66,0,0,0-.9-2.59,6.69,6.69,0,0,1,.69-.72,7.94,7.94,0,0,1,9.22-1A5.54,5.54,0,0,0,430,171.28Z" style="fill:#e0e0e0"></path><path d="M359.09,166.07a5.17,5.17,0,0,1,7.3-.43,4.93,4.93,0,0,1,.95,1.15,5.16,5.16,0,0,1,8.37,3,6.24,6.24,0,0,0-3.92-2.15,6.15,6.15,0,0,0-6.31,3.37,5.22,5.22,0,0,1,0-.88,5.42,5.42,0,0,1,.7-2,6.92,6.92,0,0,0-.53-.56,6.13,6.13,0,0,0-7.11-.74A4,4,0,0,1,359.09,166.07Z" style="fill:#e0e0e0"></path><path d="M488.45,247.25c5.77-5.78,4-18.24-4.34-19,2.05-5.11,1-12.11-5.53-13.4,2.08-6.26-3.72-10.61-9.53-8.36-.25-6.6-9.61-7-11.72-2.33.12-2.56-3.71-7.3-6.17-7.31,4.25-3.32,3.07-10-.57-10.86,5-3.75,2.3-12.32-3.61-12.24,3.15-5-1.54-10.09-6.23-11,1.7,1.89,3.25,4.42,2,7-1.11,2.33-4.12,2.74-6.12,3.72,4.74,1.6,6.92,6.36,3.39,10.53,4.83.61,5.45,7,3.52,9.64-1.19-1-3.65-1.26-5.45-.92-2.43.46-3.73,1.68-5.91,4.12,4.3-3.32,8.66,3,5.93,6.77,2.18-.93,5.75-1.18,7.73,2.27a5.78,5.78,0,0,1-1.31,6.91c1.71.66,2.22,3.59,1.78,5.2a5.45,5.45,0,0,1-4.47,4.35c6.29,1.69.26,9.15-1.95,11.42,5-.43,7,3.08,8.49,6.94-.42-1.09,2.88-3.11,3.59-3.43a9.69,9.69,0,0,1,5.26-.72c3.63.49,6.49,3,6.31,6.87,0-.94,3.64-1.47,5.74-.19a8.21,8.21,0,0,1,4,6.3c.42,3.44-2.81,6.32-5.63,7.87,2.81,2,5.66,3.51,6.56,7.27,1.1,4.58-2.71,6.23-5.18,9,2.74,1.81,5.47,3,6.42,6.62,1.16,4.44-2.47,6.45-5.29,8.88,7.1.51,10.08,9.7,6.5,15a8,8,0,0,1-1.25,1.43c6.06.65,12.28-4.08,9.3-10.23,7.18-.61,7.83-9.55,3.21-13.68,7.1-2.79,6.67-12.91,2.31-15C496.86,262,496.81,249.86,488.45,247.25Z" style="fill:#e0e0e0"></path></g></g></g><g id="freepik--Grass--inject-124"><path d="M79.85,437.79c-94-54.26-94-142.22,0-196.48s246.33-54.25,340.3,0,94,142.22,0,196.48S173.82,492,79.85,437.79Z" style="fill:#BA68C8"></path><path d="M79.85,437.79c-94-54.26-94-142.22,0-196.48s246.33-54.25,340.3,0,94,142.22,0,196.48S173.82,492,79.85,437.79Z" style="fill:#fff;opacity:0.65"></path></g></g><g id="freepik--Sun--inject-124"><circle id="freepik--sun--inject-124" cx="83.45" cy="62.72" r="24.37" style="fill:#ffbda7"></circle></g><g id="freepik--Clouds--inject-124"><path id="freepik--Cloud--inject-124" d="M410.42,70c0-3.84,4.2-6.5,9-6.95,5.61-.53,9.59,2,9.72,6.39,3.67-1.51,7.54-.54,7.25,3.49.95-1.1,4.52-1.07,5.8-.76a5,5,0,0,1,3.2,2.72,3.69,3.69,0,0,1,.33,2.07c2.14-.7,7-1.13,8.22.83,2.17,3.49-6.48,3.6-8.23,2.55-.37,2.71-9.67,3.16-11.92.65-1.76,1.77-4.28,2.16-7,2.33-4.6.27-7.42-1.29-11-3.12-3.9,3.31-10.65,3.37-14.16-.42-.9.85-3.37,1.11-5.35.64-1.3-.31-1.6-.86-1.6-.86a11.27,11.27,0,0,1-2.38.71c-2.56.54-7.3,0-5.31-2.32.68-.79,3.16-1.28,4.21-1,1.12-2.19,5.58-4.26,8.14-2.41.1-2.65,2.53-4.73,5.94-5.25C406.37,69.06,409.11,68.91,410.42,70Z" style="fill:#f5f5f5"></path><path id="freepik--cloud--inject-124" d="M339,44.17c0-5,5.47-8.45,11.66-9,7.29-.68,12.46,2.57,12.64,8.31,4.77-2,9.79-.7,9.42,4.54,1.24-1.43,5.88-1.39,7.54-1a6.52,6.52,0,0,1,4.16,3.54,4.8,4.8,0,0,1,.43,2.68c2.78-.91,9.1-1.46,10.69,1.09,2.81,4.54-8.43,4.68-10.7,3.31-.48,3.53-12.57,4.11-15.49.85-2.29,2.3-5.57,2.81-9.12,3-6,.36-9.64-1.67-14.31-4-5.07,4.3-13.84,4.38-18.41-.54-1.17,1.1-4.38,1.44-7,.82-1.69-.4-2.08-1.12-2.08-1.12a14.27,14.27,0,0,1-3.1.93c-3.32.7-9.48,0-6.9-3,.88-1,4.11-1.66,5.48-1.35,1.45-2.84,7.25-5.54,10.58-3.13.13-3.45,3.28-6.14,7.71-6.83C333.71,43,337.27,42.76,339,44.17Z" style="fill:#f5f5f5"></path><path id="freepik--cloud--inject-124" d="M174.9,57.46c0-4.52,4.95-7.65,10.55-8.18,6.6-.62,11.28,2.32,11.43,7.52,4.32-1.78,8.87-.64,8.52,4.1,1.13-1.29,5.33-1.25,6.83-.89a5.87,5.87,0,0,1,3.76,3.2,4.31,4.31,0,0,1,.39,2.43c2.52-.83,8.24-1.33,9.67,1,2.54,4.1-7.63,4.23-9.68,3-.44,3.2-11.37,3.72-14,.77-2.06,2.09-5,2.54-8.24,2.74-5.41.32-8.73-1.51-13-3.67-4.58,3.89-12.52,4-16.65-.49-1.06,1-4,1.3-6.29.75-1.53-.37-1.88-1-1.88-1a13.82,13.82,0,0,1-2.81.85c-3,.62-8.58,0-6.24-2.74.8-.92,3.72-1.5,5-1.22,1.31-2.57,6.56-5,9.57-2.83.12-3.12,3-5.56,7-6.18C170.14,56.36,173.37,56.18,174.9,57.46Z" style="fill:#f5f5f5"></path></g><g id="freepik--shadow--inject-124"><path id="freepik--shadow--inject-124" d="M154.83,343c2.25,36.89,57.54,69.59,90,78.23,41,7.47,65-18.58,99.09-30.7,14.76-3.48,25.37-14.42,37.38-22.73,13.54-7.85,27.56-15.89,42.65-20.22,6.61-2.94,40.8-1.8,33.29-13.22C412.08,293.49,362.86,370,313.42,354.7c-11.49-4.28-21.23-12.4-31.31-19.19-8.31-8.6-18.44-15.45-30.53-17C225.28,314.76,157.34,304.49,154.83,343Z" style="opacity:0.30000000000000004"></path></g><g id="freepik--Character--inject-124"><g id="freepik--character--inject-124"><g id="freepik--Bottom--inject-124"><path d="M407,343.32l-.43.18a74.69,74.69,0,0,1-9.71,3.12c-3,.74-5.95,1.22-8.75,2.69-13.87,7.28-23.14,9.1-39.33,25.18,0,0-16.55-18-18.1-19.62,0,0,10.81-4.39,11-9.16a11.61,11.61,0,0,1,3.59-7.87c2.05-1.74,5-2.41,9.06-3.13a67.44,67.44,0,0,0,10.44-2.27,28,28,0,0,0,5-2.28A39.87,39.87,0,0,1,383.23,325a28.57,28.57,0,0,1,11.07.77,38.66,38.66,0,0,1,6.37,2.11c1.64.7,4,1.45,4.91,3.13a3.93,3.93,0,0,0,.39.73,2.89,2.89,0,0,0,1.63.74,6.89,6.89,0,0,1,3.4,1.9,4.78,4.78,0,0,1,1.32,3.61,5.41,5.41,0,0,1-2.08,3.52A12.93,12.93,0,0,1,407,343.32Z" style="fill:#f28f8f"></path><path d="M391.56,347.93c4.95-2.07,6-8.71-1.08-11.57s-13-2.77-21.13.57-11.45,4.05-19.6,5.66-8.25,4.05-8.25,4.05-.74-6.32,1.86-9.22c2.1-2.34,3.41-2.51,12.07-3.84s11.93-2.69,20.26-6.94c6.64-3.38,17-4.42,28.92,2.21,15,8.34,7.05,13,3.4,14.5C401.86,346,391.56,347.93,391.56,347.93Z" style="fill:#455a64"></path><path d="M256,298.43c6.4,6.25,21.69,15.29,32.81,23.65,18.53,13.94,36.05,27.13,43.3,38.53,6.29,9.89,10.85,27.29-11.71,29.77-12.85,1.42-42.26-8-54.95-15.77L237,349.9Z" style="fill:#37474f"></path><path d="M446.72,336.42l-.45.06a72.09,72.09,0,0,1-10.17.67c-3.09,0-6.07-.25-9.15.49-15.22,3.7-24.66,3.21-44.26,14.88,0,0-11.7-21.46-12.8-23.43,0,0,11.55-1.63,12.9-6.21a11.6,11.6,0,0,1,5.4-6.76c2.4-1.2,5.4-1.14,9.55-.84a67.93,67.93,0,0,0,10.67.33,28.52,28.52,0,0,0,5.43-1,39.7,39.7,0,0,1,14.29-1.72,28.53,28.53,0,0,1,10.55,3.43,38.45,38.45,0,0,1,5.67,3.59c1.42,1.08,3.56,2.39,4,4.23a3.62,3.62,0,0,0,.21.8,2.81,2.81,0,0,0,1.4,1.12,7,7,0,0,1,2.84,2.67,4.78,4.78,0,0,1,.39,3.82,5.32,5.32,0,0,1-2.87,2.91A12.68,12.68,0,0,1,446.72,336.42Z" style="fill:#ffa8a7"></path><path d="M430.65,337.15c5.3-.81,7.94-7,1.76-11.49s-11.94-5.85-20.64-4.58-12.08,1.15-20.39.73-9,1.93-9,1.93.82-6.31,4.05-8.49c2.6-1.77,3.91-1.61,12.63-.8s12.23.29,21.35-1.81c7.26-1.67,17.57-.16,27.51,9.16,12.51,11.73,3.7,14.29-.22,14.9C441.12,337.73,430.65,337.15,430.65,337.15Z" style="fill:#455a64"></path><path d="M327.66,388.79c14.58-5.19,57.44-37.09,57.44-37.09,2.75-5.14.94-11.06-1.84-15.7-4.64-7.77-10.22-8-10.22-8-5.23,1.62-10.05,2.11-23.09,4.32-10.94,1.85-28.39,5.3-37.41,14.16S327.66,388.79,327.66,388.79Z" style="fill:#37474f"></path><path d="M316.12,343.49c10.46,7.81,13.75,14.71,13.75,14.71s-2.08-11.53-10.79-16.59A29.21,29.21,0,0,0,316.12,343.49Z" style="fill:#263238"></path><path d="M167.15,312.24c-6.58,29.89-2.11,47.53,16.64,62.86,23.11,18.91,34.42,25,50.05,32,16.47,7.35,39,9.16,50.09,1.42,10.27-7.19,4.34-17.86,2.74-23.63-3.9-14.16-46.22-44.07-46.22-44.07,8.72-15.27,14.21-26.73,14.63-40.25Z" style="fill:#455a64"></path><path d="M279.5,410.86c12.44-4.87,36.58-20.36,36.58-20.36-5.2-.95-8-4-14.06-9.31-7.19-6.36-11.77-9.22-24.33-9.31C277.69,371.88,269.37,414.83,279.5,410.86Z" style="fill:#455a64"></path><path d="M277.69,371.88a28.25,28.25,0,0,1,6.69,8.49c-.81-5-2-6.75-4.91-9.67Z" style="fill:#37474f"></path><path d="M248.88,347c-9.88-8.08-26.48-10.77-40-8.55,3.83-4.61,20.4-6.19,35-1A21.4,21.4,0,0,1,248.88,347Z" style="fill:#37474f"></path><path d="M175,315.79l2,.13c-3.08,21.16.19,37.29,8.41,48.42,9-4.28,9.15-13.85,7.6-21.25A90.16,90.16,0,0,1,191.51,320l2,.17A89.88,89.88,0,0,0,195,342.67c2.35,11.22-.61,19.43-8.32,23.32.91,1.14,1.86,2.29,2.9,3.43,10.1,11.15,36.07,33.77,64.94,43.43a79.21,79.21,0,0,1-12.34-2.7c-24.41-11.16-45.27-29.6-54.11-39.36C176,357.46,171.32,343.07,175,315.79Z" style="fill:#37474f"></path></g><g id="freepik--Top--inject-124"><path d="M206.37,137c12.74,10.43,3.36,8.77,8.23,19.77,1.46,2.62,3.86,4.66,5.09,7.39,2.73,6-1,13-6.42,16-1.7,1-3.69,1.88-4.47,3.69-1.18,2.74,1.13,5.79.89,8.76-.67,5.08-6.57,6.1-10.62,4-2.74-.65-5.52.75-8.32.93-5.55.39-8.84-3.71-10.78-8.32-1.87-2.39-5.54-2-8.37-3.15-7.47-3.27-3.72-9.82-5.18-15.59-1.15-3.15-4.72-5.2-5.11-8.53-.26-4.93,4.9-8.39,8.79-10.52,11.71-4,3.94-11.53,13.78-16.57,6.37-2.36,14.12-5,20.49-1.36C206,134.45,205,135.78,206.37,137Z" style="fill:#263238"></path><path d="M243.57,207.8c12.58,3.39,16,6.22,21,14.82S279.24,247,284,257.91c4.1,9.36,7,17.9,3.8,21.65s-28.29-8.37-28.29-8.37l-18.4-39.87Z" style="fill:#ffa8a7"></path><path d="M258.14,268.14l.55,1.71c5.95-3.37,13.34-3.94,17.19-1.66C271.61,264.63,265.45,264,258.14,268.14Z" style="fill:#f28f8f"></path><path d="M243.37,207.13c7.73,2.1,13.82,4.21,17.66,9.17s19.41,28.85,19.41,28.85S267,257.62,248.88,256.73L242,238.2Z" style="fill:#f5f5f5"></path><g id="freepik--top--inject-124"><g id="freepik--Chest--inject-124"><path d="M256.84,262.5c10.44-12.47,8.08-22.74,5.85-28.83-4.45-12.2-19.32-26.54-19.32-26.54S236.85,204,223,202.44a132.73,132.73,0,0,0-27.32-.22,136.44,136.44,0,0,0-20,3c4.24,7,6.38,17.84,5,25.06-3.15,17.2-6.42,20.77-6.42,20.77s2,17.93,2.55,22.39a34.46,34.46,0,0,1-2.57,14.95,219.2,219.2,0,0,0-9.1,26.82A3.5,3.5,0,0,0,167,319.2c29.82,14.72,78.32,1.78,94.54-16.66-.24-5.36-5.73-14.88-6.16-20.63C254.83,275.13,254.82,272.43,256.84,262.5Z" style="fill:#37474f"></path><path d="M230.64,263.92s-7.75,7.44-21.78,3.17-15.43-15.47-15.43-15.47-2.67,13.81,14.1,18.86C224.05,275.45,230.64,263.92,230.64,263.92Z" style="fill:#263238"></path></g></g><path d="M278.06,251.7a2.39,2.39,0,0,0-2.18-1.95c1.27-.54,1.5-1.31,1.31-3.08s-1-2.62-2.44-2.62c0,0-.23-3.4-.86-4.44s-2.54-.85-4.43-.85c-.29-1.54-2.21-2-6.7-1.78s-8.72.18-11,1-6.93,7.29-10.14,10.85c-2.39,2.67-10.57,5.94-18.36,7.54s-15,2.69-29.86,4.83c-2.13-10.88-5.83-30.65-7.12-36.27-3.6-15.72-10.67-19.69-10.67-19.69-6.84,1.35-13.69,5.91-15.41,12.49s0,17.78,2.24,29.76,7,29.11,10,36.22,5.67,10.94,7.91,11.26,8.42.2,18.43-3.59S216,283.18,237.06,274c5.06-2.22,7.5-3.44,14.11-4.3s8.68-2.15,13.16-4.27,11.14-6.4,11.87-7.3.72-2-.18-3.31C278.33,253.6,278.28,252.52,278.06,251.7Z" style="fill:#ffa8a7"></path><path d="M241.07,257.67a5.29,5.29,0,0,0-.35-5.65,7.56,7.56,0,0,0-1.32-1.45c-3.59,2.23-10,4.55-16.16,5.82-7.08,1.46-13.68,2.49-26,4.28a9.62,9.62,0,0,0-5.38,7.92,5.65,5.65,0,0,0,.52,2.85c1,1.94,3.4,2.73,5.58,2.78s4.36-.47,6.53-.29c3.62.29,7,2.44,10.57,2.39a9,9,0,0,0,6.59-3.06,9,9,0,0,1,2.49-2.5,4.76,4.76,0,0,1,1.83-.38c1.54-.06,3.09.19,4.63,0a4.75,4.75,0,0,0,3.85-2.21c.79-1.57.19-3.53.85-5.16C236.28,260.57,239.64,259.93,241.07,257.67Z" style="fill:#BA68C8;opacity:0.25"></path><path d="M193.38,261.22c-13.38,4-16.23,10.5-16.23,10.5s.17-8.61,15.64-13.53Z" style="fill:#f28f8f"></path><path d="M237.06,274c1.76-.8,3.51-1.62,5.31-2.32a32.6,32.6,0,0,1,5.57-1.62c1.89-.4,3.82-.58,5.71-.94a29.14,29.14,0,0,0,5.51-1.57c1.77-.73,3.48-1.63,5.22-2.46s3.4-1.78,5.06-2.76,3.28-2,4.85-3.1c.4-.27.78-.56,1.15-.85a4.41,4.41,0,0,0,.49-.43,2.18,2.18,0,0,0,.33-.54,2.49,2.49,0,0,0-.51-2.4l-.22-.3.34-.18a5.54,5.54,0,0,0,1.39-1,1.6,1.6,0,0,0,.55-1.34,3,3,0,0,0-.6-1.45,2,2,0,0,0-1.36-.65L274.5,250l1.25-.52a1.62,1.62,0,0,0,1.09-1.1,5.36,5.36,0,0,0,0-1.79,3,3,0,0,0-.61-1.6,1.92,1.92,0,0,0-1.49-.58h-.3l0-.3c-.05-.75-.14-1.52-.25-2.26a6.41,6.41,0,0,0-.59-2.08,2.36,2.36,0,0,0-1.84-.66c-.74,0-1.51,0-2.29,0h-.25l0-.24A1.64,1.64,0,0,0,268,237.6a7.89,7.89,0,0,0-2-.35,33.85,33.85,0,0,0-4.15,0c-2.79.12-5.59.09-8.33.48a8,8,0,0,0-2,.53,7.21,7.21,0,0,0-1.63,1.2,41.09,41.09,0,0,0-2.88,3c-1.83,2.1-3.58,4.28-5.46,6.34,1.83-2.11,3.51-4.33,5.3-6.48a36,36,0,0,1,2.82-3.11,7.24,7.24,0,0,1,1.69-1.3,8.14,8.14,0,0,1,2.06-.58c2.79-.45,5.59-.45,8.37-.62a36.8,36.8,0,0,1,4.21-.08,8.28,8.28,0,0,1,2.13.37,3,3,0,0,1,1,.59,2,2,0,0,1,.58,1.07l-.3-.24c.77,0,1.53-.05,2.33,0a6.34,6.34,0,0,1,1.2.18,2,2,0,0,1,1.12.74,7,7,0,0,1,.69,2.33c.12.77.21,1.54.27,2.32l-.32-.3a2.54,2.54,0,0,1,2,.79,3.6,3.6,0,0,1,.78,1.94,5.84,5.84,0,0,1,0,2,2.08,2.08,0,0,1-.55,1,3,3,0,0,1-.92.58l-.1-.65a2.64,2.64,0,0,1,1.81.87,3.61,3.61,0,0,1,.76,1.83,2.25,2.25,0,0,1-.75,1.88,6.19,6.19,0,0,1-1.56,1.07l.11-.48A4.29,4.29,0,0,1,277,256a2.58,2.58,0,0,1-.11,1.62,2.75,2.75,0,0,1-.43.69,4.65,4.65,0,0,1-.58.53c-.39.3-.79.59-1.19.86-1.6,1.11-3.24,2.12-4.91,3.1a83.76,83.76,0,0,1-10.4,5.15,28.14,28.14,0,0,1-5.62,1.52c-1.92.33-3.84.5-5.73.84a32.65,32.65,0,0,0-5.57,1.47C240.61,272.43,238.84,273.21,237.06,274Z" style="fill:#b16668"></path><path d="M258.69,240.45c.87-.31,1.75-.55,2.63-.77s1.78-.4,2.68-.57,1.81-.28,2.72-.34a14.75,14.75,0,0,1,2.74,0c-.9.12-1.8.25-2.69.4l-2.68.46-2.69.44C260.5,240.2,259.6,240.35,258.69,240.45Z" style="fill:#f28f8f"></path><path d="M263.78,246.28a20.91,20.91,0,0,1,2.65-.95c.9-.28,1.81-.49,2.73-.68s1.84-.35,2.78-.46a15.53,15.53,0,0,1,2.81-.14c-.47.07-.92.15-1.38.25l-1.37.28-2.74.57Z" style="fill:#f28f8f"></path><path d="M271,242.94a3,3,0,0,1-.38.9,2.63,2.63,0,0,1-.73.72c-.17.12.07.47.24.31a3,3,0,0,0,.63-.87,2.53,2.53,0,0,0,.29-1S271,242.9,271,242.94Z" style="fill:#f28f8f"></path><path d="M266.43,252.05a25.25,25.25,0,0,1,4.63-1.57,22.38,22.38,0,0,1,4.82-.73c-.79.2-1.57.43-2.35.63l-2.35.6C269.61,251.36,268,251.73,266.43,252.05Z" style="fill:#f28f8f"></path><path d="M267.92,258.68a39.75,39.75,0,0,1,8.1-3.9,35.18,35.18,0,0,1-3.94,2.18A36.78,36.78,0,0,1,267.92,258.68Z" style="fill:#f28f8f"></path><path d="M178.6,204.6c-5.55.28-13,2.55-17.56,10s-4,37.43-4,37.43,5.92,5.31,16.23,5.57S192,252.05,192,252.05s-2.9-18.13-4.44-26.88S183.92,207.67,178.6,204.6Z" style="fill:#f5f5f5"></path><g id="freepik--Head--inject-124"><path d="M198.28,132.76a17.6,17.6,0,0,0-6.81,8.68,5,5,0,0,0-.32,3,3.68,3.68,0,0,0,3.59,2.39,7.3,7.3,0,0,0,4.22-1.7,15.14,15.14,0,0,0,5.48-8.07c.41-1.47.52-3.89-.83-5C202,130.79,199.7,131.83,198.28,132.76Z" style="fill:#BA68C8"></path><path d="M252.2,161.73c4.32-7,2.52-17.41-.73-22.62-4.69-7.54-13.06-11.68-26.41-12.71-10.15-.79-22.83,2-26.17,12.06-10,3.41-8.49,16.81-6.77,22.61,3.62,12.17,9.78,22.15,9.06,28.25Z" style="fill:#263238"></path><path d="M193.53,165.38c3.91-3.71,8.46-2.07,10.25,1.79s5.61,3,4.59-2.64c2.61-.9,6-3.08,4.82-13.44-.22-2.65,1.22-7,3.91-8.92,4.5-3.19,12.38-1.47,16.38,3.56,6.73-4.38,10.75-4.59,15-.4,2.06,2,5.26,7.41,3.69,16.4-.6,2.71-.09,6.19-.66,11.31-2.12,19.37-7.94,22.81-13.42,24.53-3.28,1-5,1.05-10,.44l-.81,7.33s4.26,6.51,2.7,22.38c-24.78-11.66-28.7-22.41-29.82-24.21l2.86-21.86a6.18,6.18,0,0,1-6.59-.75C191.61,177.31,189.61,169.09,193.53,165.38Z" style="fill:#ffa8a7"></path><polygon points="235.42 161.57 234.73 178.99 243.81 175.86 235.42 161.57" style="fill:#f28f8f"></polygon><path d="M228.12,198c-6.18-1-19.08-5.89-21.41-14.49,0,0-.16,5.94,7,11.34,5.61,4.25,14.11,5.95,14.11,5.95Z" style="fill:#f28f8f"></path><path d="M229,166.2a2.77,2.77,0,1,1-2.16-3.26A2.78,2.78,0,0,1,229,166.2Z" style="fill:#263238"></path><path d="M247.84,167.09a2.77,2.77,0,1,1-1.7-3.53A2.76,2.76,0,0,1,247.84,167.09Z" style="fill:#263238"></path><path d="M247.69,155.58a4,4,0,0,0-5.06,2.38l7.44,2.69A4,4,0,0,0,247.69,155.58Z" style="fill:#263238"></path><path d="M223.93,159.67a4,4,0,0,0,1.37-5.42l-6.79,4.05A4,4,0,0,0,223.93,159.67Z" style="fill:#263238"></path><path d="M227.05,170.07a18.13,18.13,0,0,1-1.94-.43,7.42,7.42,0,0,1-1.65-.67,5.19,5.19,0,0,1-1.13-.84c-.15-.15-.31-.3-.45-.46a10.71,10.71,0,0,1-.59-.9c0-.05-.08,0-.08.07a3.74,3.74,0,0,0,2,2.73,5.56,5.56,0,0,0,1.67.64,6.59,6.59,0,0,0,2.17-.07S227.08,170.07,227.05,170.07Z" style="fill:#b16668"></path><path d="M250.14,168c-.41.49-.92,1-1.37,1.44a6.85,6.85,0,0,1-1.43,1.07,5,5,0,0,1-1.29.54l-.63.14a7.6,7.6,0,0,1-1.07,0c-.07,0,0,.1,0,.12a3.77,3.77,0,0,0,3.36-.3,6,6,0,0,0,1.41-1.1,6.78,6.78,0,0,0,1.05-1.9S250.16,167.92,250.14,168Z" style="fill:#b16668"></path><path d="M248,134.76l-29.5-3.24c-20.79,5.66-16.27,32.1-12.45,35.68,12.4-3.69,12.92-15.59,12.79-22.42,5.38,6.28,14.93,11.53,19.57,12.54-1.89-2.86-3-9.55-3-9.55a24.21,24.21,0,0,0,8.22,11.12c6.83,5,12.11,2.74,12.11,2.74S260.13,144.1,248,134.76Z" style="fill:#263238"></path><path d="M228.31,183.61c-.92,2.44,1.69,3.89,3.44,2.07,1.15-1,1.66-3.47.05-4.33a8.69,8.69,0,0,1,1.48-.61c.05,0,.06-.06.08-.14a4,4,0,0,0-1.9.15A4.88,4.88,0,0,0,228.31,183.61Z" style="fill:#b16668"></path></g><path d="M256.48,271.19c-9.57,6.92-8.58,6.44-17.83,12.07s-16,8.91-18.24,8.42-15.68-8.48-20.5-11.58c-3.9-2.52-3.12-1.46-7.92-.81s-10.07,2.47-11.26,3.39-2.91,8-3.25,10.49,1.55,6.78,2.38,8.46,2.47.09,2.89-.74c2.63,4.37,5.15,7.93,8,6.44a10.55,10.55,0,0,0,2.85,2.28c1.13.39,2.84-1.16,1.86-4.38,1.39-.79,2.13-1.14,2.32-3.05a10.84,10.84,0,0,1,3.24,1.58c2.16,1.39,5.08,4.25,7.58,4.27,3.76,0,3.08,1.22,5.57,1.48s6,0,15.06-2.54,35.14-12.13,42.57-15.65,10-5.36,12.82-8,4.25-4.58,3.5-6C285.49,272.25,273.72,259.85,256.48,271.19Z" style="fill:#ffa8a7"></path><path d="M276.49,278.35c4.79-4,.34-11-4.94-11.74-12.56-.91-22.72,11.66-33.36,16.93-1.08,3-.83,7.07,2.62,8.28,4.16,1.44,7.91-2.47,12-2.66,2.72-.13,5.39,1.34,8.09.91C267.55,288.11,268.84,279.79,276.49,278.35Z" style="fill:#BA68C8;opacity:0.25"></path><path d="M256.48,271.19c-3.69,2.68-7.27,5.5-11.08,8s-7.7,4.89-11.65,7.16c-2,1.14-4,2.23-6,3.23-1,.5-2.07,1-3.14,1.39a13,13,0,0,1-3.34.93,2.61,2.61,0,0,1-.92-.05,5.19,5.19,0,0,1-.84-.3c-.53-.22-1-.47-1.56-.73-1-.51-2-1-3-1.6-2-1.09-4-2.22-5.95-3.37s-3.93-2.32-5.87-3.5l-2.91-1.81a18,18,0,0,0-2.92-1.64c-1-.37-2.08.1-3.21.3s-2.28.37-3.38.57a43.31,43.31,0,0,0-6.56,1.71,16.47,16.47,0,0,0-3.05,1.34,3.08,3.08,0,0,0-.81,1.29c-.21.51-.4,1-.58,1.58a52.72,52.72,0,0,0-1.68,6.57,7.16,7.16,0,0,0-.19,1.63,8.27,8.27,0,0,0,.21,1.63,21.62,21.62,0,0,0,1,3.21c.21.52.42,1.05.65,1.56l.35.77a4.34,4.34,0,0,0,.36.69c.26.36.66.34,1.1.07a3.19,3.19,0,0,0,1-1.1l.28-.51.29.49a35.61,35.61,0,0,0,3.12,4.59,7.25,7.25,0,0,0,2,1.73,2.44,2.44,0,0,0,2.4,0l.2-.11.17.18a14.57,14.57,0,0,0,1.67,1.57,4.85,4.85,0,0,0,.92.58.93.93,0,0,0,.87,0,2.25,2.25,0,0,0,1-1.73,5.35,5.35,0,0,0-.24-2.2l-.06-.22.19-.11a5.88,5.88,0,0,0,1.58-1.09,3.06,3.06,0,0,0,.61-1.73l0-.33.29.08c3.37,1,5.62,3.66,8.46,5.18a5.68,5.68,0,0,0,2.23.69,9.75,9.75,0,0,1,2.5.29c.87.23,1.52.83,2.25,1a9.29,9.29,0,0,0,2.38.26,41.07,41.07,0,0,0,9.67-1.55c3.19-.79,6.33-1.75,9.46-2.78,6.24-2.06,12.45-4.26,18.64-6.5s12.36-4.53,18.38-7.2c-6,2.74-12.15,5.07-18.3,7.42s-12.35,4.57-18.6,6.65c-3.13,1.05-6.28,2-9.48,2.83a42.35,42.35,0,0,1-9.78,1.61,10.33,10.33,0,0,1-2.51-.28c-.87-.24-1.49-.83-2.24-1a9.42,9.42,0,0,0-2.39-.27,6.08,6.08,0,0,1-2.45-.74,35.8,35.8,0,0,1-4.11-2.8,18.3,18.3,0,0,0-2-1.33,9.19,9.19,0,0,0-2.17-1l.33-.25a3.65,3.65,0,0,1-.73,2,6.25,6.25,0,0,1-1.73,1.23l.14-.33a6,6,0,0,1,.26,2.43,2.79,2.79,0,0,1-1.28,2.18,1.56,1.56,0,0,1-1.38.07,5.59,5.59,0,0,1-1.06-.66,15.07,15.07,0,0,1-1.75-1.63l.36.06a3,3,0,0,1-1.49.38,3.29,3.29,0,0,1-1.48-.38,8,8,0,0,1-2.22-1.88,34.8,34.8,0,0,1-3.2-4.67l.57,0a3.56,3.56,0,0,1-1.27,1.37,1.76,1.76,0,0,1-1,.31,1.3,1.3,0,0,1-1-.53,3.93,3.93,0,0,1-.45-.81l-.36-.78c-.23-.53-.46-1.06-.66-1.6a20.76,20.76,0,0,1-1-3.31,9.31,9.31,0,0,1-.22-1.76,9.12,9.12,0,0,1,.2-1.76,56,56,0,0,1,1.74-6.65c.18-.55.38-1.09.61-1.63.11-.26.24-.53.38-.79a3.42,3.42,0,0,1,.26-.4,1.39,1.39,0,0,1,.38-.35,16.64,16.64,0,0,1,3.2-1.4,45.2,45.2,0,0,1,6.66-1.71c1.14-.2,2.26-.32,3.36-.55l1.68-.36a3.42,3.42,0,0,1,1.82.09,17.46,17.46,0,0,1,3,1.71l2.89,1.81c1.94,1.19,3.9,2.36,5.86,3.52s3.93,2.29,5.92,3.4c1,.54,2,1.09,3,1.6.51.25,1,.5,1.53.72a2.78,2.78,0,0,0,1.55.33,13,13,0,0,0,3.23-.89c1.05-.41,2.09-.88,3.11-1.37,2.05-1,4.05-2.07,6-3.19s3.94-2.29,5.88-3.47,3.91-2.34,5.83-3.56C249.11,276.57,252.74,273.81,256.48,271.19Z" style="fill:#b16668"></path><path d="M194.42,283.4c-2,.73-4.1,1.39-6.11,2.15-1,.39-2,.77-3,1.25a11.09,11.09,0,0,0-2.62,1.68,3.41,3.41,0,0,0-.89,2.74c0,1,.26,2.11.38,3.19.22,2.16.41,4.32.53,6.48-.4-2.14-.72-4.27-1.05-6.4a28.07,28.07,0,0,1-.48-3.24,5.24,5.24,0,0,1,.14-1.71,3.55,3.55,0,0,1,.88-1.54,12.15,12.15,0,0,1,2.84-1.76,24.81,24.81,0,0,1,3.06-1.19C190.21,284.39,192.31,283.86,194.42,283.4Z" style="fill:#f28f8f"></path><path d="M196.77,287.36a59.52,59.52,0,0,0-6.1,2.86,28.05,28.05,0,0,0-2.84,1.75,5.26,5.26,0,0,0-.62.51c-.11.09-.11.17-.15.23l-.08.35a9.8,9.8,0,0,0,0,1.63,40.1,40.1,0,0,0,.85,6.63,11.78,11.78,0,0,0,1.3,3.05c.51,1,1.08,2,1.62,3-.67-.9-1.3-1.85-1.91-2.8a12.11,12.11,0,0,1-1.52-3.08,35.52,35.52,0,0,1-1-6.74,10.37,10.37,0,0,1,.07-1.75,4.52,4.52,0,0,1,.11-.47,1.29,1.29,0,0,1,.32-.46,5.84,5.84,0,0,1,.69-.56,20.94,20.94,0,0,1,3-1.71A35.46,35.46,0,0,1,196.77,287.36Z" style="fill:#f28f8f"></path><path d="M203.73,290.84c-2,.29-4.08.5-6.08.88-.5.1-1,.22-1.46.36a3,3,0,0,0-1.17.76,16,16,0,0,0-2,2.29l-.44.61c-.07.1-.14.2-.2.3a.53.53,0,0,0-.06.24,6.64,6.64,0,0,0,.1,1.45c.13,1,.35,2,.53,3s.39,2,.62,3a3.8,3.8,0,0,0,.51,1.39.71.71,0,0,0,.6.31,1.91,1.91,0,0,0,.71-.23,1.89,1.89,0,0,1-.7.33.83.83,0,0,1-.75-.3,4.14,4.14,0,0,1-.7-1.41c-.29-1-.54-2-.8-3s-.47-2-.64-3a8.4,8.4,0,0,1-.13-1.61,1.14,1.14,0,0,1,.14-.5c.07-.13.14-.24.21-.35s.29-.44.45-.65a16.5,16.5,0,0,1,2.09-2.34,3.63,3.63,0,0,1,1.41-.86,9.67,9.67,0,0,1,1.55-.31A47.3,47.3,0,0,1,203.73,290.84Z" style="fill:#f28f8f"></path><path d="M197.75,302.18c.15-1.45.17-2.91.22-4.36v-.17l.17,0c1-.16,2-.34,3-.49l3-.43.09,0,.08,0a8.77,8.77,0,0,1,2.9,2.12,11,11,0,0,1,1.83,3.06,21.06,21.06,0,0,0,1.58,3.06,8.45,8.45,0,0,0,2.37,2.47,7.74,7.74,0,0,1-2.67-2.26,22.07,22.07,0,0,1-1.8-3,10.24,10.24,0,0,0-1.78-2.86,9.67,9.67,0,0,0-2.68-2l.17,0-3,.37c-1,.13-2,.22-3,.33l.18-.2c-.06.73-.14,1.46-.25,2.18A19.53,19.53,0,0,1,197.75,302.18Z" style="fill:#f28f8f"></path><g id="freepik--Bump--inject-124"><path d="M213.55,168.64c-8.08,5.67,2.81,14.06,8.8,8.53C228,171.59,219,165.16,213.55,168.64Z" style="fill:#BA68C8;opacity:0.25"></path><path d="M251.78,169.78a6.46,6.46,0,0,0-3,1c-5.2,3.65-2.54,8.43,1.62,9.89.46-2.21.86-4.72,1.17-7.59C251.67,171.87,251.74,170.79,251.78,169.78Z" style="fill:#BA68C8;opacity:0.25"></path><path d="M252.1,286.26a1.06,1.06,0,0,0,.17-1.5,1.07,1.07,0,1,0-1.67,1.33A1.06,1.06,0,0,0,252.1,286.26Z" style="fill:#BA68C8"></path><path d="M255,279.28a1.07,1.07,0,1,0-1.5-.17A1.07,1.07,0,0,0,255,279.28Z" style="fill:#BA68C8"></path><path d="M263.67,281.08a1.07,1.07,0,1,0-1.5-.17A1.07,1.07,0,0,0,263.67,281.08Z" style="fill:#BA68C8"></path><path d="M265.66,276.59a.65.65,0,0,0-.81-1,.65.65,0,1,0,.81,1Z" style="fill:#BA68C8"></path><path d="M260.75,285.73a.64.64,0,0,0,.1-.91.65.65,0,0,0-.91-.11.66.66,0,0,0-.1.92A.65.65,0,0,0,260.75,285.73Z" style="fill:#BA68C8"></path><path d="M247.14,282.79a.65.65,0,1,0-.91-.1A.65.65,0,0,0,247.14,282.79Z" style="fill:#BA68C8"></path><path d="M244.17,287.53a.66.66,0,0,0,.1-.92.65.65,0,0,0-.91-.1.64.64,0,0,0-.1.91A.65.65,0,0,0,244.17,287.53Z" style="fill:#BA68C8"></path><path d="M274.89,272.15a.65.65,0,0,0,.1-.91.65.65,0,0,0-1,.81A.65.65,0,0,0,274.89,272.15Z" style="fill:#BA68C8"></path><path d="M282.39,258.7a.66.66,0,0,0,.1-.92.65.65,0,0,0-.91-.1.64.64,0,0,0-.1.91A.65.65,0,0,0,282.39,258.7Z" style="fill:#BA68C8"></path><path d="M269.85,277a.65.65,0,0,0,.1-.91.65.65,0,0,0-1,.81A.65.65,0,0,0,269.85,277Z" style="fill:#BA68C8"></path><path d="M251.23,282.55a.65.65,0,0,0-.81-1,.65.65,0,1,0,.81,1Z" style="fill:#BA68C8"></path><path d="M269.13,272.7A1.07,1.07,0,0,0,267.8,271a1.08,1.08,0,0,0-.17,1.5A1.06,1.06,0,0,0,269.13,272.7Z" style="fill:#BA68C8"></path><path d="M280.79,256.27a1.06,1.06,0,1,0-1.49-.17A1.05,1.05,0,0,0,280.79,256.27Z" style="fill:#BA68C8"></path><path d="M257.72,284.45a1.57,1.57,0,1,0-2.21-.25A1.57,1.57,0,0,0,257.72,284.45Z" style="fill:#BA68C8"></path><path d="M261.24,276.31a1.58,1.58,0,0,0-2-2.47,1.58,1.58,0,0,0,2,2.47Z" style="fill:#BA68C8"></path><path d="M279.54,261a1.58,1.58,0,1,0-2.22-.26A1.59,1.59,0,0,0,279.54,261Z" style="fill:#BA68C8"></path><path d="M225.22,266.13a1.07,1.07,0,1,1,1.07-1.07A1.06,1.06,0,0,1,225.22,266.13Z" style="fill:#BA68C8"></path><path d="M218.63,262.46a1.07,1.07,0,1,1,1.07-1.07A1.07,1.07,0,0,1,218.63,262.46Z" style="fill:#BA68C8"></path><path d="M212.94,269.28a1.07,1.07,0,1,1,1.06-1.07A1.07,1.07,0,0,1,212.94,269.28Z" style="fill:#BA68C8"></path><path d="M208.59,267a.65.65,0,1,1,.65-.65A.65.65,0,0,1,208.59,267Z" style="fill:#BA68C8"></path><path d="M218.12,271.1a.65.65,0,1,1,.65-.65A.65.65,0,0,1,218.12,271.1Z" style="fill:#BA68C8"></path><path d="M226.94,260.32a.65.65,0,1,1,.65-.65A.65.65,0,0,1,226.94,260.32Z" style="fill:#BA68C8"></path><path d="M232.21,262.18a.65.65,0,1,1,.65-.65A.65.65,0,0,1,232.21,262.18Z" style="fill:#BA68C8"></path><path d="M198.6,269.28a.65.65,0,1,1,.65-.65A.65.65,0,0,1,198.6,269.28Z" style="fill:#BA68C8"></path><path d="M184,276.66a.65.65,0,1,1,.65-.64A.64.64,0,0,1,184,276.66Z" style="fill:#BA68C8"></path><path d="M205.56,269.93a.65.65,0,1,1,.65-.65A.65.65,0,0,1,205.56,269.93Z" style="fill:#BA68C8"></path><path d="M223.59,262.68a.65.65,0,1,1,.65-.64A.65.65,0,0,1,223.59,262.68Z" style="fill:#BA68C8"></path><circle cx="203.45" cy="265.06" r="1.07" style="fill:#BA68C8"></circle><circle cx="183.71" cy="272.71" r="1.07" style="fill:#BA68C8"></circle><path d="M219.7,268.21a1.58,1.58,0,1,1,1.57-1.57A1.57,1.57,0,0,1,219.7,268.21Z" style="fill:#BA68C8"></path><path d="M211.87,264a1.58,1.58,0,1,1,1.57-1.57A1.57,1.57,0,0,1,211.87,264Z" style="fill:#BA68C8"></path><path d="M187.64,276.69a1.58,1.58,0,1,1,0-3.15,1.58,1.58,0,0,1,0,3.15Z" style="fill:#BA68C8"></path></g></g></g></g><g id="freepik--Symbols--inject-124"><g id="freepik--Exclamation--inject-124"><path d="M271.3,162l5.25,2.27a2,2,0,0,0,2.5-.75L294.32,134a1.64,1.64,0,0,0-.95-2.23l-9.94-4.3a1.61,1.61,0,0,0-2.25.75l-11.08,31.5A1.91,1.91,0,0,0,271.3,162Z" style="fill:#BA68C8"></path><path d="M267.56,177.82a5.83,5.83,0,1,0-3-7.67A5.79,5.79,0,0,0,267.56,177.82Z" style="fill:#BA68C8"></path><path d="M283.2,183.88,286,187.2a1.5,1.5,0,0,0,2,.33l20.36-15.08a1.25,1.25,0,0,0,.09-1.85l-5.36-6.28a1.22,1.22,0,0,0-1.79-.24l-18.17,17.86A1.45,1.45,0,0,0,283.2,183.88Z" style="fill:#BA68C8"></path><path d="M275.32,193.49a4.45,4.45,0,1,0,.49-6.28A4.42,4.42,0,0,0,275.32,193.49Z" style="fill:#BA68C8"></path><g style="opacity:0.30000000000000004"><path d="M283.2,183.88,286,187.2a1.5,1.5,0,0,0,2,.33l20.36-15.08a1.25,1.25,0,0,0,.09-1.85l-5.36-6.28a1.22,1.22,0,0,0-1.79-.24l-18.17,17.86A1.45,1.45,0,0,0,283.2,183.88Z" style="fill:#fff"></path><path d="M275.32,193.49a4.45,4.45,0,1,0,.49-6.28A4.42,4.42,0,0,0,275.32,193.49Z" style="fill:#fff"></path></g></g></g></svg>